<ttFont>
    <TTGlyph name=".notAccess" xMin="11" yMin="0" xMax="542" yMax="533">
      <contour>
        <pt x="274" y="450" on="1"/>
        <pt x="174" y="205" on="1"/>
        <pt x="375" y="205" on="1"/>
      </contour>
      <contour>
        <pt x="464" y="0" on="1"/>
        <pt x="406" y="142" on="1"/>
        <pt x="145" y="142" on="1"/>
        <pt x="87" y="0" on="1"/>
        <pt x="11" y="0" on="1"/>
        <pt x="234" y="533" on="1"/>
        <pt x="316" y="533" on="1"/>
        <pt x="542" y="0" on="1"/>
      </contour>
    </TTGlyph>
    <TTGlyph name=".notdef" xMin="100" yMin="0" xMax="1300" yMax="1800">
      <contour>
        <pt x="150" y="50" on="1"/>
        <pt x="1250" y="50" on="1"/>
        <pt x="1250" y="1750" on="1"/>
        <pt x="150" y="1750" on="1"/>
      </contour>
      <contour>
        <pt x="100" y="1800" on="1"/>
        <pt x="1300" y="1800" on="1"/>
        <pt x="1300" y="0" on="1"/>
        <pt x="100" y="0" on="1"/>
      </contour>
    </TTGlyph>
    <TTGlyph name="A" xMin="0" yMin="0" xMax="1288" yMax="1317">
      <contour>
        <pt x="743" y="555" on="1"/>
        <pt x="582" y="1003" on="1"/>
        <pt x="439" y="555" on="1"/>
      </contour>
      <contour>
        <pt x="396" y="425" on="1"/>
        <pt x="305" y="151" on="1"/>
        <pt x="295" y="120" on="0"/>
        <pt x="362" y="92" on="0"/>
        <pt x="444" y="83" on="1"/>
        <pt x="444" y="0" on="1"/>
        <pt x="0" y="0" on="1"/>
        <pt x="0" y="83" on="1"/>
        <pt x="68" y="95" on="0"/>
        <pt x="138" y="121" on="0"/>
        <pt x="148" y="151" on="1"/>
        <pt x="490" y="1197" on="1"/>
        <pt x="517" y="1220" on="0"/>
        <pt x="582" y="1257" on="0"/>
        <pt x="650" y="1287" on="0"/>
        <pt x="717" y="1309" on="0"/>
        <pt x="747" y="1317" on="1"/>
        <pt x="1167" y="151" on="1"/>
        <pt x="1172" y="137" on="0"/>
        <pt x="1187" y="115" on="0"/>
        <pt x="1214" y="99" on="0"/>
        <pt x="1256" y="87" on="0"/>
        <pt x="1288" y="83" on="1"/>
        <pt x="1288" y="0" on="1"/>
        <pt x="766" y="0" on="1"/>
        <pt x="766" y="83" on="1"/>
        <pt x="843" y="87" on="0"/>
        <pt x="898" y="118" on="0"/>
        <pt x="887" y="151" on="1"/>
        <pt x="789" y="425" on="1"/>
      </contour>
    </TTGlyph>
    <TTGlyph name="AE" xMin="0" yMin="0" xMax="1633" yMax="1260">
      <contour>
        <pt x="1633" y="324" on="1"/>
        <pt x="1628" y="281" on="0"/>
        <pt x="1618" y="180" on="0"/>
        <pt x="1607" y="87" on="0"/>
        <pt x="1597" y="15" on="0"/>
        <pt x="1593" y="0" on="1"/>
        <pt x="621" y="0" on="1"/>
        <pt x="621" y="83" on="1"/>
        <pt x="689" y="97" on="0"/>
        <pt x="754" y="130" on="0"/>
        <pt x="754" y="144" on="1"/>
        <pt x="754" y="615" on="1"/>
        <pt x="503" y="615" on="1"/>
        <pt x="315" y="151" on="1"/>
        <pt x="302" y="122" on="0"/>
        <pt x="345" y="92" on="0"/>
        <pt x="416" y="83" on="1"/>
        <pt x="416" y="0" on="1"/>
        <pt x="0" y="0" on="1"/>
        <pt x="0" y="83" on="1"/>
        <pt x="60" y="91" on="0"/>
        <pt x="128" y="122" on="0"/>
        <pt x="141" y="151" on="1"/>
        <pt x="521" y="1093" on="1"/>
        <pt x="528" y="1110" on="0"/>
        <pt x="523" y="1133" on="0"/>
        <pt x="491" y="1152" on="0"/>
        <pt x="430" y="1168" on="0"/>
        <pt x="381" y="1177" on="1"/>
        <pt x="381" y="1260" on="1"/>
        <pt x="1528" y="1260" on="1"/>
        <pt x="1568" y="1225" on="1"/>
        <pt x="1566" y="1199" on="0"/>
        <pt x="1559" y="1115" on="0"/>
        <pt x="1548" y="1027" on="0"/>
        <pt x="1534" y="949" on="0"/>
        <pt x="1527" y="930" on="1"/>
        <pt x="1442" y="930" on="1"/>
        <pt x="1437" y="1023" on="0"/>
        <pt x="1399" y="1130" on="0"/>
        <pt x="1360" y="1130" on="1"/>
        <pt x="1034" y="1130" on="1"/>
        <pt x="1034" y="735" on="1"/>
        <pt x="1429" y="735" on="1"/>
        <pt x="1466" y="697" on="1"/>
        <pt x="1457" y="683" on="0"/>
        <pt x="1433" y="644" on="0"/>
        <pt x="1408" y="604" on="0"/>
        <pt x="1383" y="569" on="0"/>
        <pt x="1374" y="560" on="1"/>
        <pt x="1360" y="574" on="0"/>
        <pt x="1320" y="594" on="0"/>
        <pt x="1285" y="607" on="0"/>
        <pt x="1275" y="610" on="1"/>
        <pt x="1266" y="613" on="0"/>
        <pt x="1270" y="615" on="1"/>
        <pt x="1034" y="615" on="1"/>
        <pt x="1034" y="194" on="1"/>
        <pt x="1034" y="179" on="0"/>
        <pt x="1049" y="156" on="0"/>
        <pt x="1094" y="139" on="0"/>
        <pt x="1175" y="130" on="0"/>
        <pt x="1241" y="130" on="1"/>
        <pt x="1325" y="130" on="1"/>
        <pt x="1371" y="130" on="0"/>
        <pt x="1437" y="155" on="0"/>
        <pt x="1488" y="209" on="0"/>
        <pt x="1530" y="293" on="0"/>
        <pt x="1551" y="352" on="1"/>
      </contour>
      <contour>
        <pt x="754" y="1108" on="1"/>
        <pt x="754" y="1119" on="0"/>
        <pt x="741" y="1129" on="0"/>
        <pt x="723" y="1126" on="0"/>
        <pt x="703" y="1108" on="0"/>
        <pt x="696" y="1091" on="1"/>
        <pt x="549" y="735" on="1"/>
        <pt x="754" y="735" on="1"/>
      </contour>
    </TTGlyph>
    <TTGlyph name="AEacute" xMin="0" yMin="0" xMax="1633" yMax="1779">
      <component glyphName="AE" x="0" y="0" flags="0x0"/>
      <component glyphName="acutecomb.LP" x="1525" y="320" flags="0x0"/>
    </TTGlyph>
    <TTGlyph name="Aacute" xMin="0" yMin="0" xMax="1288" yMax="1779">
      <component glyphName="A" x="0" y="0" flags="0x0"/>
      <component glyphName="acutecomb.LP" x="1187" y="320" flags="0x0"/>
    </TTGlyph>
    <TTGlyph name="Abreve" xMin="0" yMin="0" xMax="1288" yMax="1765">
      <component glyphName="A" x="0" y="0" flags="0x0"/>
      <component glyphName="uni0306" x="1159" y="320" flags="0x0"/>
    </TTGlyph>
    <TTGlyph name="Acircumflex" xMin="0" yMin="0" xMax="1288" yMax="1751">
      <component glyphName="A" x="0" y="0" flags="0x0"/>
      <component glyphName="uni0302.LP" x="1158" y="320" flags="0x0"/>
    </TTGlyph>
    <TTGlyph name="Adieresis" xMin="0" yMin="0" xMax="1288" yMax="1680">
      <component glyphName="A" x="0" y="0" flags="0x0"/>
      <component glyphName="uni0308.LP" x="1159" y="320" flags="0x0"/>
    </TTGlyph>
    <TTGlyph name="Agrave" xMin="0" yMin="0" xMax="1288" yMax="1779">
      <component glyphName="A" x="0" y="0" flags="0x0"/>
      <component glyphName="gravecomb.LP" x="1077" y="320" flags="0x0"/>
    </TTGlyph>
    <TTGlyph name="Amacron" xMin="0" yMin="0" xMax="1288" yMax="1629">
      <component glyphName="A" x="0" y="0" flags="0x0"/>
      <component glyphName="uni0304.LP" x="1169" y="320" flags="0x0"/>
    </TTGlyph>
    <TTGlyph name="Aring" xMin="0" yMin="0" xMax="1288" yMax="1790">
      <component glyphName="A" x="0" y="0" flags="0x0"/>
      <component glyphName="uni030A" x="1159" y="320" flags="0x0"/>
    </TTGlyph>
    <TTGlyph name="Aringacute" xMin="0" yMin="0" xMax="1288" yMax="2219">
      <component glyphName="A" x="0" y="0" flags="0x0"/>
      <component glyphName="uni030A" x="1159" y="320" flags="0x0"/>
      <component glyphName="acutecomb.LP" x="1187" y="760" flags="0x0"/>
    </TTGlyph>
    <TTGlyph name="Atilde" xMin="0" yMin="0" xMax="1288" yMax="1700">
      <component glyphName="A" x="0" y="0" flags="0x0"/>
      <component glyphName="tildecomb.LP" x="1189" y="320" flags="0x0"/>
    </TTGlyph>
    <TTGlyph name="B" xMin="26" yMin="-14" xMax="1166" yMax="1290">
      <contour>
        <pt x="483" y="1176" on="1"/>
        <pt x="476" y="1176" on="0"/>
        <pt x="463" y="1175" on="0"/>
        <pt x="455" y="1175" on="1"/>
        <pt x="455" y="745" on="1"/>
        <pt x="469" y="745" on="1"/>
        <pt x="564" y="745" on="0"/>
        <pt x="682" y="783" on="0"/>
        <pt x="747" y="846" on="0"/>
        <pt x="770" y="928" on="0"/>
        <pt x="770" y="971" on="1"/>
        <pt x="770" y="1021" on="0"/>
        <pt x="742" y="1097" on="0"/>
        <pt x="675" y="1149" on="0"/>
        <pt x="565" y="1176" on="0"/>
      </contour>
      <contour>
        <pt x="580" y="635" on="1"/>
        <pt x="535" y="635" on="0"/>
        <pt x="480" y="627" on="0"/>
        <pt x="455" y="622" on="1"/>
        <pt x="455" y="134" on="1"/>
        <pt x="455" y="128" on="0"/>
        <pt x="458" y="121" on="1"/>
        <pt x="486" y="109" on="0"/>
        <pt x="546" y="100" on="0"/>
        <pt x="587" y="100" on="1"/>
        <pt x="731" y="100" on="0"/>
        <pt x="872" y="229" on="0"/>
        <pt x="872" y="342" on="1"/>
        <pt x="872" y="397" on="0"/>
        <pt x="846" y="502" on="0"/>
        <pt x="780" y="585" on="0"/>
        <pt x="667" y="635" on="0"/>
      </contour>
      <contour>
        <pt x="1166" y="356" on="1"/>
        <pt x="1166" y="271" on="0"/>
        <pt x="1094" y="134" on="0"/>
        <pt x="956" y="38" on="0"/>
        <pt x="756" y="-14" on="0"/>
        <pt x="629" y="-14" on="1"/>
        <pt x="607" y="-14" on="0"/>
        <pt x="540" y="-13" on="0"/>
        <pt x="461" y="-11" on="0"/>
        <pt x="374" y="-9" on="0"/>
        <pt x="332" y="-7" on="1"/>
        <pt x="233" y="-4" on="0"/>
        <pt x="123" y="0" on="1"/>
        <pt x="40" y="0" on="1"/>
        <pt x="40" y="83" on="1"/>
        <pt x="108" y="97" on="0"/>
        <pt x="175" y="130" on="0"/>
        <pt x="175" y="144" on="1"/>
        <pt x="175" y="1156" on="1"/>
        <pt x="136" y="1152" on="0"/>
        <pt x="67" y="1143" on="0"/>
        <pt x="40" y="1138" on="1"/>
        <pt x="26" y="1230" on="1"/>
        <pt x="72" y="1241" on="0"/>
        <pt x="201" y="1262" on="0"/>
        <pt x="343" y="1279" on="0"/>
        <pt x="487" y="1290" on="0"/>
        <pt x="549" y="1290" on="1"/>
        <pt x="668" y="1290" on="0"/>
        <pt x="856" y="1253" on="0"/>
        <pt x="986" y="1183" on="0"/>
        <pt x="1055" y="1083" on="0"/>
        <pt x="1055" y="1020" on="1"/>
        <pt x="1055" y="912" on="0"/>
        <pt x="936" y="758" on="0"/>
        <pt x="815" y="723" on="1"/>
        <pt x="894" y="711" on="0"/>
        <pt x="1023" y="645" on="0"/>
        <pt x="1115" y="548" on="0"/>
        <pt x="1166" y="425" on="0"/>
      </contour>
    </TTGlyph>
    <TTGlyph name="C" xMin="50" yMin="-30" xMax="1088" yMax="1291">
      <contour>
        <pt x="1088" y="211" on="1"/>
        <pt x="960" y="82" on="0"/>
        <pt x="709" y="-30" on="0"/>
        <pt x="591" y="-30" on="1"/>
        <pt x="487" y="-30" on="0"/>
        <pt x="292" y="54" on="0"/>
        <pt x="141" y="212" on="0"/>
        <pt x="50" y="441" on="0"/>
        <pt x="50" y="586" on="1"/>
        <pt x="50" y="746" on="0"/>
        <pt x="149" y="1006" on="0"/>
        <pt x="322" y="1191" on="0"/>
        <pt x="558" y="1291" on="0"/>
        <pt x="696" y="1290" on="1"/>
        <pt x="750" y="1290" on="0"/>
        <pt x="860" y="1274" on="0"/>
        <pt x="960" y="1247" on="0"/>
        <pt x="1043" y="1211" on="0"/>
        <pt x="1069" y="1190" on="1"/>
        <pt x="1073" y="1187" on="0"/>
        <pt x="1064" y="1153" on="0"/>
        <pt x="1044" y="1104" on="0"/>
        <pt x="1018" y="1047" on="0"/>
        <pt x="991" y="995" on="0"/>
        <pt x="967" y="955" on="0"/>
        <pt x="959" y="947" on="1"/>
        <pt x="884" y="963" on="1"/>
        <pt x="834" y="1064" on="0"/>
        <pt x="705" y="1151" on="0"/>
        <pt x="632" y="1150" on="1"/>
        <pt x="581" y="1150" on="0"/>
        <pt x="475" y="1102" on="0"/>
        <pt x="389" y="982" on="0"/>
        <pt x="335" y="779" on="0"/>
        <pt x="335" y="623" on="1"/>
        <pt x="335" y="497" on="0"/>
        <pt x="399" y="318" on="0"/>
        <pt x="501" y="204" on="0"/>
        <pt x="629" y="150" on="0"/>
        <pt x="693" y="150" on="1"/>
        <pt x="720" y="150" on="0"/>
        <pt x="794" y="161" on="0"/>
        <pt x="881" y="191" on="0"/>
        <pt x="980" y="244" on="0"/>
        <pt x="1031" y="286" on="1"/>
        <pt x="1036" y="282" on="0"/>
        <pt x="1053" y="260" on="0"/>
        <pt x="1070" y="235" on="0"/>
        <pt x="1085" y="214" on="0"/>
      </contour>
    </TTGlyph>
    <TTGlyph name="Cacute" xMin="50" yMin="-30" xMax="1088" yMax="1779">
      <component glyphName="C" x="0" y="0" flags="0x0"/>
      <component glyphName="acutecomb.LP" x="1188" y="320" flags="0x0"/>
    </TTGlyph>
    <TTGlyph name="Ccaron" xMin="50" yMin="-30" xMax="1088" yMax="1785">
      <component glyphName="C" x="0" y="0" flags="0x0"/>
      <component glyphName="uni030C.LP" x="1159" y="320" flags="0x0"/>
    </TTGlyph>
    <TTGlyph name="Ccedilla" xMin="50" yMin="-444" xMax="1088" yMax="1291">
      <contour>
        <pt x="822" y="-229" on="1"/>
        <pt x="822" y="-266" on="0"/>
        <pt x="762" y="-337" on="0"/>
        <pt x="658" y="-396" on="0"/>
        <pt x="521" y="-437" on="0"/>
        <pt x="444" y="-444" on="1"/>
        <pt x="402" y="-365" on="1"/>
        <pt x="483" y="-354" on="0"/>
        <pt x="554" y="-298" on="0"/>
        <pt x="554" y="-266" on="1"/>
        <pt x="554" y="-232" on="0"/>
        <pt x="509" y="-202" on="0"/>
        <pt x="471" y="-199" on="1"/>
        <pt x="472" y="-198" on="0"/>
        <pt x="475" y="-194" on="1"/>
        <pt x="479" y="-190" on="0"/>
        <pt x="497" y="-149" on="0"/>
        <pt x="513" y="-106" on="1"/>
        <pt x="524" y="-75" on="0"/>
        <pt x="540" y="-27" on="1"/>
        <pt x="463" y="-19" on="0"/>
        <pt x="389" y="12" on="1"/>
        <pt x="292" y="54" on="0"/>
        <pt x="141" y="212" on="0"/>
        <pt x="50" y="441" on="0"/>
        <pt x="50" y="586" on="1"/>
        <pt x="50" y="746" on="0"/>
        <pt x="149" y="1006" on="0"/>
        <pt x="322" y="1191" on="0"/>
        <pt x="558" y="1291" on="0"/>
        <pt x="696" y="1290" on="1"/>
        <pt x="750" y="1290" on="0"/>
        <pt x="860" y="1274" on="0"/>
        <pt x="960" y="1247" on="0"/>
        <pt x="1043" y="1211" on="0"/>
        <pt x="1069" y="1190" on="1"/>
        <pt x="1073" y="1187" on="0"/>
        <pt x="1064" y="1153" on="0"/>
        <pt x="1044" y="1104" on="0"/>
        <pt x="1018" y="1047" on="0"/>
        <pt x="991" y="995" on="0"/>
        <pt x="967" y="955" on="0"/>
        <pt x="959" y="947" on="1"/>
        <pt x="884" y="963" on="1"/>
        <pt x="834" y="1064" on="0"/>
        <pt x="705" y="1151" on="0"/>
        <pt x="632" y="1150" on="1"/>
        <pt x="581" y="1150" on="0"/>
        <pt x="475" y="1102" on="0"/>
        <pt x="389" y="982" on="0"/>
        <pt x="335" y="779" on="0"/>
        <pt x="335" y="623" on="1"/>
        <pt x="335" y="497" on="0"/>
        <pt x="399" y="318" on="0"/>
        <pt x="501" y="204" on="0"/>
        <pt x="629" y="150" on="0"/>
        <pt x="693" y="150" on="1"/>
        <pt x="720" y="150" on="0"/>
        <pt x="794" y="161" on="0"/>
        <pt x="881" y="191" on="0"/>
        <pt x="980" y="244" on="0"/>
        <pt x="1031" y="286" on="1"/>
        <pt x="1036" y="282" on="0"/>
        <pt x="1053" y="260" on="0"/>
        <pt x="1070" y="235" on="0"/>
        <pt x="1085" y="214" on="0"/>
        <pt x="1088" y="211" on="1"/>
        <pt x="960" y="82" on="0"/>
        <pt x="834" y="26" on="1"/>
        <pt x="754" y="-10" on="0"/>
        <pt x="677" y="-22" on="1"/>
        <pt x="652" y="-84" on="1"/>
        <pt x="822" y="-114" on="0"/>
      </contour>
    </TTGlyph>
    <TTGlyph name="Ccircumflex" xMin="50" yMin="-30" xMax="1088" yMax="1751">
      <component glyphName="C" x="0" y="0" flags="0x0"/>
      <component glyphName="uni0302.LP" x="1159" y="320" flags="0x0"/>
    </TTGlyph>
    <TTGlyph name="Cdotaccent" xMin="50" yMin="-30" xMax="1088" yMax="1680">
      <component glyphName="C" x="0" y="0" flags="0x0"/>
      <component glyphName="uni0307.LP" x="1160" y="320" flags="0x0"/>
    </TTGlyph>
    <TTGlyph name="D" xMin="26" yMin="0" xMax="1253" yMax="1290">
      <contour>
        <pt x="1253" y="676" on="1"/>
        <pt x="1253" y="551" on="0"/>
        <pt x="1202" y="354" on="0"/>
        <pt x="1113" y="203" on="0"/>
        <pt x="994" y="98" on="0"/>
        <pt x="857" y="31" on="0"/>
        <pt x="710" y="0" on="0"/>
        <pt x="639" y="0" on="1"/>
        <pt x="40" y="0" on="1"/>
        <pt x="40" y="83" on="1"/>
        <pt x="108" y="97" on="0"/>
        <pt x="175" y="130" on="0"/>
        <pt x="175" y="144" on="1"/>
        <pt x="175" y="1147" on="1"/>
        <pt x="40" y="1128" on="1"/>
        <pt x="26" y="1230" on="1"/>
        <pt x="77" y="1242" on="0"/>
        <pt x="219" y="1264" on="0"/>
        <pt x="374" y="1281" on="0"/>
        <pt x="531" y="1290" on="0"/>
        <pt x="598" y="1290" on="1"/>
        <pt x="756" y="1290" on="0"/>
        <pt x="1000" y="1207" on="0"/>
        <pt x="1167" y="1049" on="0"/>
        <pt x="1253" y="821" on="0"/>
      </contour>
      <contour>
        <pt x="523" y="1176" on="1"/>
        <pt x="507" y="1176" on="0"/>
        <pt x="472" y="1175" on="0"/>
        <pt x="455" y="1174" on="1"/>
        <pt x="455" y="190" on="1"/>
        <pt x="455" y="173" on="0"/>
        <pt x="459" y="145" on="0"/>
        <pt x="486" y="125" on="0"/>
        <pt x="544" y="114" on="0"/>
        <pt x="597" y="114" on="1"/>
        <pt x="651" y="114" on="0"/>
        <pt x="776" y="172" on="0"/>
        <pt x="882" y="298" on="0"/>
        <pt x="953" y="496" on="0"/>
        <pt x="953" y="637" on="1"/>
        <pt x="953" y="904" on="0"/>
        <pt x="735" y="1176" on="0"/>
      </contour>
    </TTGlyph>
    <TTGlyph name="Dcaron" xMin="26" yMin="0" xMax="1253" yMax="1785">
      <component glyphName="D" x="0" y="0" flags="0x0"/>
      <component glyphName="uni030C.LP" x="1117" y="320" flags="0x0"/>
    </TTGlyph>
    <TTGlyph name="Dcroat" xMin="26" yMin="0" xMax="1253" yMax="1290">
      <contour>
        <pt x="1253" y="676" on="1"/>
        <pt x="1253" y="551" on="0"/>
        <pt x="1202" y="354" on="0"/>
        <pt x="1113" y="203" on="0"/>
        <pt x="994" y="98" on="0"/>
        <pt x="857" y="31" on="0"/>
        <pt x="710" y="0" on="0"/>
        <pt x="639" y="0" on="1"/>
        <pt x="40" y="0" on="1"/>
        <pt x="40" y="83" on="1"/>
        <pt x="108" y="97" on="0"/>
        <pt x="175" y="130" on="0"/>
        <pt x="175" y="144" on="1"/>
        <pt x="175" y="615" on="1"/>
        <pt x="50" y="615" on="1"/>
        <pt x="28" y="639" on="1"/>
        <pt x="30" y="646" on="0"/>
        <pt x="40" y="676" on="0"/>
        <pt x="51" y="708" on="0"/>
        <pt x="62" y="737" on="0"/>
        <pt x="65" y="745" on="1"/>
        <pt x="175" y="745" on="1"/>
        <pt x="175" y="1147" on="1"/>
        <pt x="40" y="1128" on="1"/>
        <pt x="26" y="1230" on="1"/>
        <pt x="77" y="1242" on="0"/>
        <pt x="219" y="1264" on="0"/>
        <pt x="374" y="1281" on="0"/>
        <pt x="531" y="1290" on="0"/>
        <pt x="598" y="1290" on="1"/>
        <pt x="756" y="1290" on="0"/>
        <pt x="1000" y="1207" on="0"/>
        <pt x="1167" y="1049" on="0"/>
        <pt x="1253" y="821" on="0"/>
      </contour>
      <contour>
        <pt x="523" y="1176" on="1"/>
        <pt x="507" y="1176" on="0"/>
        <pt x="472" y="1175" on="0"/>
        <pt x="455" y="1174" on="1"/>
        <pt x="455" y="745" on="1"/>
        <pt x="690" y="745" on="1"/>
        <pt x="715" y="722" on="1"/>
        <pt x="675" y="615" on="1"/>
        <pt x="455" y="615" on="1"/>
        <pt x="455" y="190" on="1"/>
        <pt x="455" y="173" on="0"/>
        <pt x="459" y="145" on="0"/>
        <pt x="486" y="125" on="0"/>
        <pt x="544" y="114" on="0"/>
        <pt x="597" y="114" on="1"/>
        <pt x="651" y="114" on="0"/>
        <pt x="776" y="172" on="0"/>
        <pt x="882" y="298" on="0"/>
        <pt x="953" y="496" on="0"/>
        <pt x="953" y="637" on="1"/>
        <pt x="953" y="904" on="0"/>
        <pt x="735" y="1176" on="0"/>
      </contour>
    </TTGlyph>
    <TTGlyph name="Delta" xMin="39" yMin="0" xMax="1214" yMax="1317">
      <contour>
        <pt x="871" y="206" on="1"/>
        <pt x="814" y="349" on="0"/>
        <pt x="758" y="491" on="1"/>
        <pt x="734" y="551" on="0"/>
        <pt x="681" y="683" on="0"/>
        <pt x="629" y="816" on="0"/>
        <pt x="578" y="944" on="0"/>
        <pt x="556" y="1001" on="1"/>
        <pt x="532" y="938" on="0"/>
        <pt x="482" y="802" on="0"/>
        <pt x="433" y="666" on="0"/>
        <pt x="385" y="535" on="0"/>
        <pt x="363" y="477" on="1"/>
        <pt x="312" y="339" on="0"/>
        <pt x="263" y="206" on="1"/>
        <pt x="256" y="187" on="0"/>
        <pt x="253" y="166" on="0"/>
        <pt x="273" y="157" on="0"/>
        <pt x="324" y="155" on="0"/>
        <pt x="372" y="155" on="1"/>
        <pt x="760" y="155" on="1"/>
        <pt x="809" y="155" on="0"/>
        <pt x="861" y="157" on="0"/>
        <pt x="882" y="166" on="0"/>
        <pt x="878" y="187" on="0"/>
      </contour>
      <contour>
        <pt x="1183" y="0" on="1"/>
        <pt x="64" y="0" on="1"/>
        <pt x="39" y="61" on="1"/>
        <pt x="123" y="287" on="0"/>
        <pt x="202" y="499" on="1"/>
        <pt x="236" y="589" on="0"/>
        <pt x="307" y="781" on="0"/>
        <pt x="375" y="965" on="0"/>
        <pt x="437" y="1132" on="0"/>
        <pt x="461" y="1197" on="1"/>
        <pt x="521" y="1234" on="0"/>
        <pt x="648" y="1291" on="0"/>
        <pt x="717" y="1317" on="1"/>
        <pt x="746" y="1242" on="0"/>
        <pt x="819" y="1055" on="0"/>
        <pt x="900" y="851" on="0"/>
        <pt x="985" y="639" on="0"/>
        <pt x="1024" y="540" on="1"/>
        <pt x="1116" y="308" on="0"/>
        <pt x="1214" y="61" on="1"/>
      </contour>
    </TTGlyph>
    <TTGlyph name="E" xMin="40" yMin="0" xMax="1054" yMax="1260">
      <contour>
        <pt x="1054" y="324" on="1"/>
        <pt x="1050" y="281" on="0"/>
        <pt x="1040" y="180" on="0"/>
        <pt x="1028" y="87" on="0"/>
        <pt x="1017" y="15" on="0"/>
        <pt x="1013" y="0" on="1"/>
        <pt x="40" y="0" on="1"/>
        <pt x="40" y="83" on="1"/>
        <pt x="108" y="97" on="0"/>
        <pt x="175" y="130" on="0"/>
        <pt x="175" y="144" on="1"/>
        <pt x="175" y="1115" on="1"/>
        <pt x="175" y="1127" on="0"/>
        <pt x="112" y="1163" on="0"/>
        <pt x="40" y="1177" on="1"/>
        <pt x="40" y="1260" on="1"/>
        <pt x="946" y="1260" on="1"/>
        <pt x="989" y="1225" on="1"/>
        <pt x="987" y="1199" on="0"/>
        <pt x="979" y="1115" on="0"/>
        <pt x="967" y="1027" on="0"/>
        <pt x="954" y="949" on="0"/>
        <pt x="948" y="930" on="1"/>
        <pt x="863" y="930" on="1"/>
        <pt x="858" y="1023" on="0"/>
        <pt x="818" y="1130" on="0"/>
        <pt x="781" y="1130" on="1"/>
        <pt x="455" y="1130" on="1"/>
        <pt x="455" y="735" on="1"/>
        <pt x="850" y="735" on="1"/>
        <pt x="886" y="697" on="1"/>
        <pt x="878" y="683" on="0"/>
        <pt x="855" y="645" on="0"/>
        <pt x="830" y="606" on="0"/>
        <pt x="805" y="574" on="0"/>
        <pt x="794" y="566" on="1"/>
        <pt x="779" y="581" on="0"/>
        <pt x="744" y="601" on="0"/>
        <pt x="699" y="615" on="0"/>
        <pt x="638" y="621" on="0"/>
        <pt x="596" y="621" on="1"/>
        <pt x="455" y="621" on="1"/>
        <pt x="455" y="194" on="1"/>
        <pt x="455" y="179" on="0"/>
        <pt x="469" y="156" on="0"/>
        <pt x="513" y="139" on="0"/>
        <pt x="593" y="130" on="0"/>
        <pt x="659" y="130" on="1"/>
        <pt x="748" y="130" on="1"/>
        <pt x="794" y="130" on="0"/>
        <pt x="859" y="155" on="0"/>
        <pt x="909" y="209" on="0"/>
        <pt x="950" y="293" on="0"/>
        <pt x="971" y="352" on="1"/>
      </contour>
    </TTGlyph>
    <TTGlyph name="Eacute" xMin="40" yMin="0" xMax="1054" yMax="1779">
      <component glyphName="E" x="0" y="0" flags="0x0"/>
      <component glyphName="acutecomb.LP" x="1090" y="320" flags="0x0"/>
    </TTGlyph>
    <TTGlyph name="Ebreve" xMin="40" yMin="0" xMax="1054" yMax="1765">
      <component glyphName="E" x="0" y="0" flags="0x0"/>
      <component glyphName="uni0306" x="1062" y="320" flags="0x0"/>
    </TTGlyph>
    <TTGlyph name="Ecaron" xMin="40" yMin="0" xMax="1054" yMax="1785">
      <component glyphName="E" x="0" y="0" flags="0x0"/>
      <component glyphName="uni030C.LP" x="1061" y="320" flags="0x0"/>
    </TTGlyph>
    <TTGlyph name="Ecircumflex" xMin="40" yMin="0" xMax="1054" yMax="1751">
      <component glyphName="E" x="0" y="0" flags="0x0"/>
      <component glyphName="uni0302.LP" x="1061" y="320" flags="0x0"/>
    </TTGlyph>
    <TTGlyph name="Edieresis" xMin="40" yMin="0" xMax="1054" yMax="1680">
      <component glyphName="E" x="0" y="0" flags="0x0"/>
      <component glyphName="uni0308.LP" x="1062" y="320" flags="0x0"/>
    </TTGlyph>
    <TTGlyph name="Edotaccent" xMin="40" yMin="0" xMax="1054" yMax="1680">
      <component glyphName="E" x="0" y="0" flags="0x0"/>
      <component glyphName="uni0307.LP" x="1062" y="320" flags="0x0"/>
    </TTGlyph>
    <TTGlyph name="Egrave" xMin="40" yMin="0" xMax="1054" yMax="1779">
      <component glyphName="E" x="0" y="0" flags="0x0"/>
      <component glyphName="gravecomb.LP" x="980" y="320" flags="0x0"/>
    </TTGlyph>
    <TTGlyph name="Emacron" xMin="40" yMin="0" xMax="1054" yMax="1629">
      <component glyphName="E" x="0" y="0" flags="0x0"/>
      <component glyphName="uni0304.LP" x="1072" y="320" flags="0x0"/>
    </TTGlyph>
    <TTGlyph name="Eng" xMin="39" yMin="-430" xMax="1225" yMax="1290">
      <contour>
        <pt x="1225" y="277" on="1"/>
        <pt x="1225" y="173" on="0"/>
        <pt x="1191" y="11" on="0"/>
        <pt x="1123" y="-124" on="0"/>
        <pt x="1022" y="-241" on="0"/>
        <pt x="956" y="-298" on="1"/>
        <pt x="930" y="-321" on="0"/>
        <pt x="857" y="-367" on="0"/>
        <pt x="769" y="-406" on="0"/>
        <pt x="665" y="-430" on="0"/>
        <pt x="608" y="-430" on="1"/>
        <pt x="579" y="-430" on="0"/>
        <pt x="511" y="-418" on="0"/>
        <pt x="442" y="-399" on="0"/>
        <pt x="379" y="-374" on="0"/>
        <pt x="330" y="-348" on="0"/>
        <pt x="300" y="-323" on="0"/>
        <pt x="300" y="-312" on="1"/>
        <pt x="300" y="-306" on="0"/>
        <pt x="327" y="-274" on="0"/>
        <pt x="368" y="-232" on="0"/>
        <pt x="419" y="-186" on="0"/>
        <pt x="468" y="-145" on="0"/>
        <pt x="507" y="-115" on="0"/>
        <pt x="517" y="-111" on="1"/>
        <pt x="545" y="-138" on="0"/>
        <pt x="601" y="-189" on="0"/>
        <pt x="661" y="-229" on="0"/>
        <pt x="726" y="-254" on="0"/>
        <pt x="764" y="-254" on="1"/>
        <pt x="806" y="-254" on="0"/>
        <pt x="873" y="-197" on="0"/>
        <pt x="920" y="-80" on="0"/>
        <pt x="945" y="100" on="0"/>
        <pt x="945" y="224" on="1"/>
        <pt x="945" y="872" on="1"/>
        <pt x="945" y="939" on="0"/>
        <pt x="933" y="1020" on="0"/>
        <pt x="904" y="1065" on="0"/>
        <pt x="854" y="1080" on="0"/>
        <pt x="817" y="1080" on="1"/>
        <pt x="791" y="1080" on="0"/>
        <pt x="721" y="1062" on="0"/>
        <pt x="632" y="1014" on="0"/>
        <pt x="521" y="932" on="0"/>
        <pt x="455" y="868" on="1"/>
        <pt x="455" y="144" on="1"/>
        <pt x="455" y="132" on="0"/>
        <pt x="527" y="97" on="0"/>
        <pt x="600" y="83" on="1"/>
        <pt x="600" y="0" on="1"/>
        <pt x="39" y="0" on="1"/>
        <pt x="39" y="83" on="1"/>
        <pt x="107" y="97" on="0"/>
        <pt x="175" y="130" on="0"/>
        <pt x="175" y="144" on="1"/>
        <pt x="175" y="990" on="1"/>
        <pt x="175" y="1029" on="0"/>
        <pt x="172" y="1078" on="0"/>
        <pt x="149" y="1107" on="0"/>
        <pt x="96" y="1122" on="0"/>
        <pt x="45" y="1127" on="1"/>
        <pt x="45" y="1210" on="1"/>
        <pt x="81" y="1213" on="0"/>
        <pt x="176" y="1229" on="0"/>
        <pt x="277" y="1250" on="0"/>
        <pt x="373" y="1276" on="0"/>
        <pt x="410" y="1290" on="1"/>
        <pt x="455" y="1245" on="1"/>
        <pt x="455" y="1058" on="1"/>
        <pt x="539" y="1127" on="0"/>
        <pt x="679" y="1217" on="0"/>
        <pt x="801" y="1269" on="0"/>
        <pt x="910" y="1290" on="0"/>
        <pt x="964" y="1290" on="1"/>
        <pt x="1007" y="1290" on="0"/>
        <pt x="1099" y="1264" on="0"/>
        <pt x="1176" y="1195" on="0"/>
        <pt x="1225" y="1075" on="0"/>
        <pt x="1225" y="981" on="1"/>
      </contour>
    </TTGlyph>
    <TTGlyph name="Eng.BaselineHook" xMin="39" yMin="-30" xMax="1225" yMax="1290">
      <contour>
        <pt x="1225" y="587" on="1"/>
        <pt x="1225" y="506" on="0"/>
        <pt x="1211" y="370" on="0"/>
        <pt x="1178" y="255" on="0"/>
        <pt x="1125" y="156" on="0"/>
        <pt x="1086" y="112" on="1"/>
        <pt x="1062" y="85" on="0"/>
        <pt x="1005" y="34" on="0"/>
        <pt x="940" y="-6" on="0"/>
        <pt x="872" y="-30" on="0"/>
        <pt x="838" y="-30" on="1"/>
        <pt x="783" y="-30" on="0"/>
        <pt x="692" y="2" on="0"/>
        <pt x="626" y="55" on="0"/>
        <pt x="590" y="122" on="0"/>
        <pt x="590" y="158" on="1"/>
        <pt x="590" y="164" on="0"/>
        <pt x="617" y="187" on="0"/>
        <pt x="658" y="216" on="0"/>
        <pt x="709" y="247" on="0"/>
        <pt x="758" y="274" on="0"/>
        <pt x="797" y="295" on="0"/>
        <pt x="807" y="299" on="1"/>
        <pt x="813" y="258" on="0"/>
        <pt x="834" y="200" on="0"/>
        <pt x="858" y="163" on="0"/>
        <pt x="883" y="146" on="0"/>
        <pt x="894" y="146" on="1"/>
        <pt x="907" y="146" on="0"/>
        <pt x="926" y="174" on="0"/>
        <pt x="939" y="258" on="0"/>
        <pt x="945" y="410" on="0"/>
        <pt x="945" y="534" on="1"/>
        <pt x="945" y="872" on="1"/>
        <pt x="945" y="939" on="0"/>
        <pt x="933" y="1020" on="0"/>
        <pt x="904" y="1065" on="0"/>
        <pt x="854" y="1080" on="0"/>
        <pt x="817" y="1080" on="1"/>
        <pt x="791" y="1080" on="0"/>
        <pt x="721" y="1062" on="0"/>
        <pt x="632" y="1014" on="0"/>
        <pt x="521" y="932" on="0"/>
        <pt x="455" y="868" on="1"/>
        <pt x="455" y="144" on="1"/>
        <pt x="455" y="138" on="0"/>
        <pt x="461" y="122" on="0"/>
        <pt x="482" y="106" on="0"/>
        <pt x="524" y="90" on="0"/>
        <pt x="560" y="83" on="1"/>
        <pt x="560" y="0" on="1"/>
        <pt x="39" y="0" on="1"/>
        <pt x="39" y="83" on="1"/>
        <pt x="107" y="97" on="0"/>
        <pt x="175" y="130" on="0"/>
        <pt x="175" y="144" on="1"/>
        <pt x="175" y="990" on="1"/>
        <pt x="175" y="1029" on="0"/>
        <pt x="172" y="1078" on="0"/>
        <pt x="149" y="1107" on="0"/>
        <pt x="96" y="1122" on="0"/>
        <pt x="45" y="1127" on="1"/>
        <pt x="45" y="1210" on="1"/>
        <pt x="81" y="1213" on="0"/>
        <pt x="176" y="1229" on="0"/>
        <pt x="277" y="1250" on="0"/>
        <pt x="373" y="1276" on="0"/>
        <pt x="410" y="1290" on="1"/>
        <pt x="455" y="1245" on="1"/>
        <pt x="455" y="1058" on="1"/>
        <pt x="539" y="1127" on="0"/>
        <pt x="679" y="1217" on="0"/>
        <pt x="802" y="1269" on="0"/>
        <pt x="911" y="1290" on="0"/>
        <pt x="965" y="1290" on="1"/>
        <pt x="1008" y="1290" on="0"/>
        <pt x="1100" y="1264" on="0"/>
        <pt x="1176" y="1195" on="0"/>
        <pt x="1225" y="1075" on="0"/>
        <pt x="1225" y="981" on="1"/>
      </contour>
    </TTGlyph>
    <TTGlyph name="Eng.Kom" xMin="49" yMin="-30" xMax="1195" yMax="1290">
      <contour>
        <pt x="1195" y="567" on="1"/>
        <pt x="1195" y="493" on="0"/>
        <pt x="1163" y="361" on="0"/>
        <pt x="1106" y="244" on="0"/>
        <pt x="1028" y="143" on="0"/>
        <pt x="981" y="102" on="1"/>
        <pt x="910" y="39" on="0"/>
        <pt x="743" y="-30" on="0"/>
        <pt x="628" y="-30" on="1"/>
        <pt x="523" y="-30" on="0"/>
        <pt x="357" y="11" on="0"/>
        <pt x="241" y="70" on="0"/>
        <pt x="180" y="135" on="0"/>
        <pt x="180" y="158" on="1"/>
        <pt x="180" y="169" on="0"/>
        <pt x="207" y="204" on="0"/>
        <pt x="253" y="244" on="0"/>
        <pt x="311" y="286" on="0"/>
        <pt x="372" y="325" on="0"/>
        <pt x="432" y="359" on="0"/>
        <pt x="457" y="369" on="1"/>
        <pt x="475" y="320" on="0"/>
        <pt x="529" y="238" on="0"/>
        <pt x="594" y="178" on="0"/>
        <pt x="666" y="145" on="0"/>
        <pt x="704" y="145" on="1"/>
        <pt x="746" y="145" on="0"/>
        <pt x="822" y="167" on="0"/>
        <pt x="881" y="244" on="0"/>
        <pt x="915" y="390" on="0"/>
        <pt x="915" y="514" on="1"/>
        <pt x="915" y="872" on="1"/>
        <pt x="915" y="939" on="0"/>
        <pt x="900" y="1020" on="0"/>
        <pt x="867" y="1065" on="0"/>
        <pt x="814" y="1080" on="0"/>
        <pt x="777" y="1080" on="1"/>
        <pt x="751" y="1080" on="0"/>
        <pt x="697" y="1062" on="0"/>
        <pt x="626" y="1014" on="0"/>
        <pt x="531" y="932" on="0"/>
        <pt x="465" y="868" on="1"/>
        <pt x="465" y="674" on="1"/>
        <pt x="465" y="662" on="0"/>
        <pt x="537" y="627" on="0"/>
        <pt x="610" y="613" on="1"/>
        <pt x="610" y="530" on="1"/>
        <pt x="49" y="530" on="1"/>
        <pt x="49" y="613" on="1"/>
        <pt x="117" y="627" on="0"/>
        <pt x="185" y="660" on="0"/>
        <pt x="185" y="674" on="1"/>
        <pt x="185" y="990" on="1"/>
        <pt x="185" y="1029" on="0"/>
        <pt x="182" y="1078" on="0"/>
        <pt x="159" y="1107" on="0"/>
        <pt x="106" y="1122" on="0"/>
        <pt x="55" y="1127" on="1"/>
        <pt x="55" y="1210" on="1"/>
        <pt x="91" y="1213" on="0"/>
        <pt x="186" y="1229" on="0"/>
        <pt x="287" y="1250" on="0"/>
        <pt x="383" y="1276" on="0"/>
        <pt x="420" y="1290" on="1"/>
        <pt x="465" y="1245" on="1"/>
        <pt x="465" y="1058" on="1"/>
        <pt x="549" y="1127" on="0"/>
        <pt x="673" y="1217" on="0"/>
        <pt x="777" y="1269" on="0"/>
        <pt x="870" y="1290" on="0"/>
        <pt x="924" y="1290" on="1"/>
        <pt x="967" y="1290" on="0"/>
        <pt x="1063" y="1264" on="0"/>
        <pt x="1143" y="1195" on="0"/>
        <pt x="1195" y="1075" on="0"/>
        <pt x="1195" y="981" on="1"/>
      </contour>
    </TTGlyph>
    <TTGlyph name="Eng.UCStyle" xMin="40" yMin="-430" xMax="1330" yMax="1260">
      <contour>
        <pt x="40" y="0" on="1"/>
        <pt x="40" y="83" on="1"/>
        <pt x="113" y="92" on="0"/>
        <pt x="175" y="130" on="0"/>
        <pt x="175" y="144" on="1"/>
        <pt x="175" y="1102" on="1"/>
        <pt x="143" y="1132" on="0"/>
        <pt x="74" y="1172" on="0"/>
        <pt x="40" y="1177" on="1"/>
        <pt x="40" y="1260" on="1"/>
        <pt x="342" y="1260" on="1"/>
        <pt x="357" y="1260" on="0"/>
        <pt x="376" y="1255" on="0"/>
        <pt x="396" y="1239" on="0"/>
        <pt x="419" y="1208" on="0"/>
        <pt x="438" y="1182" on="1"/>
        <pt x="1035" y="353" on="1"/>
        <pt x="1035" y="1115" on="1"/>
        <pt x="1035" y="1121" on="0"/>
        <pt x="1023" y="1138" on="0"/>
        <pt x="992" y="1155" on="0"/>
        <pt x="940" y="1171" on="0"/>
        <pt x="900" y="1177" on="1"/>
        <pt x="900" y="1260" on="1"/>
        <pt x="1330" y="1260" on="1"/>
        <pt x="1330" y="1177" on="1"/>
        <pt x="1258" y="1167" on="0"/>
        <pt x="1195" y="1129" on="0"/>
        <pt x="1195" y="1115" on="1"/>
        <pt x="1195" y="87" on="1"/>
        <pt x="1195" y="37" on="0"/>
        <pt x="1190" y="-56" on="0"/>
        <pt x="1170" y="-144" on="0"/>
        <pt x="1130" y="-228" on="0"/>
        <pt x="1096" y="-268" on="1"/>
        <pt x="1073" y="-294" on="0"/>
        <pt x="1009" y="-351" on="0"/>
        <pt x="930" y="-399" on="0"/>
        <pt x="838" y="-430" on="0"/>
        <pt x="788" y="-430" on="1"/>
        <pt x="738" y="-430" on="0"/>
        <pt x="639" y="-411" on="0"/>
        <pt x="559" y="-382" on="0"/>
        <pt x="510" y="-347" on="0"/>
        <pt x="510" y="-331" on="1"/>
        <pt x="510" y="-325" on="0"/>
        <pt x="532" y="-295" on="0"/>
        <pt x="567" y="-257" on="0"/>
        <pt x="610" y="-214" on="0"/>
        <pt x="652" y="-176" on="0"/>
        <pt x="687" y="-149" on="0"/>
        <pt x="697" y="-145" on="1"/>
        <pt x="717" y="-173" on="0"/>
        <pt x="766" y="-212" on="0"/>
        <pt x="819" y="-236" on="0"/>
        <pt x="871" y="-247" on="0"/>
        <pt x="895" y="-247" on="1"/>
        <pt x="968" y="-247" on="0"/>
        <pt x="1031" y="-119" on="0"/>
        <pt x="1034" y="6" on="1"/>
        <pt x="1011" y="12" on="0"/>
        <pt x="976" y="29" on="0"/>
        <pt x="949" y="50" on="0"/>
        <pt x="927" y="76" on="0"/>
        <pt x="916" y="91" on="1"/>
        <pt x="335" y="895" on="1"/>
        <pt x="335" y="144" on="1"/>
        <pt x="335" y="138" on="0"/>
        <pt x="348" y="121" on="0"/>
        <pt x="380" y="104" on="0"/>
        <pt x="431" y="88" on="0"/>
        <pt x="470" y="83" on="1"/>
        <pt x="470" y="0" on="1"/>
      </contour>
    </TTGlyph>
    <TTGlyph name="Eth" xMin="26" yMin="0" xMax="1253" yMax="1290">
      <contour>
        <pt x="1253" y="676" on="1"/>
        <pt x="1253" y="551" on="0"/>
        <pt x="1202" y="354" on="0"/>
        <pt x="1113" y="203" on="0"/>
        <pt x="994" y="98" on="0"/>
        <pt x="857" y="31" on="0"/>
        <pt x="710" y="0" on="0"/>
        <pt x="639" y="0" on="1"/>
        <pt x="40" y="0" on="1"/>
        <pt x="40" y="83" on="1"/>
        <pt x="108" y="97" on="0"/>
        <pt x="175" y="130" on="0"/>
        <pt x="175" y="144" on="1"/>
        <pt x="175" y="615" on="1"/>
        <pt x="50" y="615" on="1"/>
        <pt x="28" y="639" on="1"/>
        <pt x="30" y="646" on="0"/>
        <pt x="40" y="676" on="0"/>
        <pt x="51" y="708" on="0"/>
        <pt x="62" y="737" on="0"/>
        <pt x="65" y="745" on="1"/>
        <pt x="175" y="745" on="1"/>
        <pt x="175" y="1147" on="1"/>
        <pt x="40" y="1128" on="1"/>
        <pt x="26" y="1230" on="1"/>
        <pt x="77" y="1242" on="0"/>
        <pt x="219" y="1264" on="0"/>
        <pt x="374" y="1281" on="0"/>
        <pt x="531" y="1290" on="0"/>
        <pt x="598" y="1290" on="1"/>
        <pt x="756" y="1290" on="0"/>
        <pt x="1000" y="1207" on="0"/>
        <pt x="1167" y="1049" on="0"/>
        <pt x="1253" y="821" on="0"/>
      </contour>
      <contour>
        <pt x="523" y="1176" on="1"/>
        <pt x="507" y="1176" on="0"/>
        <pt x="472" y="1175" on="0"/>
        <pt x="455" y="1174" on="1"/>
        <pt x="455" y="745" on="1"/>
        <pt x="690" y="745" on="1"/>
        <pt x="715" y="722" on="1"/>
        <pt x="675" y="615" on="1"/>
        <pt x="455" y="615" on="1"/>
        <pt x="455" y="190" on="1"/>
        <pt x="455" y="173" on="0"/>
        <pt x="459" y="145" on="0"/>
        <pt x="486" y="125" on="0"/>
        <pt x="544" y="114" on="0"/>
        <pt x="597" y="114" on="1"/>
        <pt x="651" y="114" on="0"/>
        <pt x="776" y="172" on="0"/>
        <pt x="882" y="298" on="0"/>
        <pt x="953" y="496" on="0"/>
        <pt x="953" y="637" on="1"/>
        <pt x="953" y="904" on="0"/>
        <pt x="735" y="1176" on="0"/>
      </contour>
    </TTGlyph>
    <TTGlyph name="Euro" xMin="14" yMin="-30" xMax="1020" yMax="1235">
      <contour>
        <pt x="705" y="427" on="1"/>
        <pt x="412" y="427" on="1"/>
        <pt x="427" y="338" on="0"/>
        <pt x="483" y="220" on="0"/>
        <pt x="554" y="149" on="0"/>
        <pt x="633" y="120" on="0"/>
        <pt x="670" y="120" on="1"/>
        <pt x="696" y="120" on="0"/>
        <pt x="751" y="128" on="0"/>
        <pt x="816" y="156" on="0"/>
        <pt x="897" y="210" on="0"/>
        <pt x="948" y="256" on="1"/>
        <pt x="964" y="239" on="0"/>
        <pt x="991" y="201" on="0"/>
        <pt x="1005" y="181" on="1"/>
        <pt x="945" y="113" on="0"/>
        <pt x="836" y="30" on="0"/>
        <pt x="735" y="-15" on="0"/>
        <pt x="642" y="-30" on="0"/>
        <pt x="598" y="-30" on="1"/>
        <pt x="518" y="-30" on="0"/>
        <pt x="367" y="28" on="0"/>
        <pt x="241" y="144" on="0"/>
        <pt x="149" y="314" on="0"/>
        <pt x="129" y="427" on="1"/>
        <pt x="46" y="427" on="1"/>
        <pt x="14" y="462" on="1"/>
        <pt x="16" y="469" on="0"/>
        <pt x="25" y="495" on="0"/>
        <pt x="34" y="523" on="0"/>
        <pt x="43" y="549" on="0"/>
        <pt x="46" y="557" on="1"/>
        <pt x="115" y="557" on="1"/>
        <pt x="115" y="629" on="1"/>
        <pt x="115" y="648" on="0"/>
        <pt x="117" y="667" on="1"/>
        <pt x="76" y="667" on="1"/>
        <pt x="44" y="702" on="1"/>
        <pt x="46" y="709" on="0"/>
        <pt x="55" y="735" on="0"/>
        <pt x="64" y="763" on="0"/>
        <pt x="73" y="789" on="0"/>
        <pt x="76" y="797" on="1"/>
        <pt x="134" y="797" on="1"/>
        <pt x="156" y="909" on="0"/>
        <pt x="251" y="1074" on="0"/>
        <pt x="392" y="1182" on="0"/>
        <pt x="574" y="1235" on="0"/>
        <pt x="683" y="1235" on="1"/>
        <pt x="733" y="1235" on="0"/>
        <pt x="830" y="1219" on="0"/>
        <pt x="917" y="1192" on="0"/>
        <pt x="990" y="1156" on="0"/>
        <pt x="1016" y="1135" on="1"/>
        <pt x="1020" y="1132" on="0"/>
        <pt x="1011" y="1101" on="0"/>
        <pt x="991" y="1057" on="0"/>
        <pt x="965" y="1005" on="0"/>
        <pt x="938" y="957" on="0"/>
        <pt x="914" y="920" on="0"/>
        <pt x="906" y="912" on="1"/>
        <pt x="831" y="928" on="1"/>
        <pt x="787" y="1011" on="0"/>
        <pt x="679" y="1095" on="0"/>
        <pt x="609" y="1095" on="1"/>
        <pt x="580" y="1095" on="0"/>
        <pt x="519" y="1073" on="0"/>
        <pt x="464" y="1009" on="0"/>
        <pt x="421" y="892" on="0"/>
        <pt x="410" y="797" on="1"/>
        <pt x="775" y="797" on="1"/>
        <pt x="810" y="764" on="1"/>
        <pt x="775" y="667" on="1"/>
        <pt x="401" y="667" on="1"/>
        <pt x="400" y="650" on="0"/>
        <pt x="400" y="633" on="1"/>
        <pt x="400" y="557" on="1"/>
        <pt x="705" y="557" on="1"/>
        <pt x="740" y="524" on="1"/>
      </contour>
    </TTGlyph>
    <TTGlyph name="F" xMin="40" yMin="0" xMax="997" yMax="1260">
      <contour>
        <pt x="40" y="0" on="1"/>
        <pt x="40" y="83" on="1"/>
        <pt x="108" y="97" on="0"/>
        <pt x="175" y="130" on="0"/>
        <pt x="175" y="144" on="1"/>
        <pt x="175" y="1115" on="1"/>
        <pt x="175" y="1127" on="0"/>
        <pt x="112" y="1163" on="0"/>
        <pt x="40" y="1177" on="1"/>
        <pt x="40" y="1260" on="1"/>
        <pt x="956" y="1260" on="1"/>
        <pt x="997" y="1225" on="1"/>
        <pt x="996" y="1199" on="0"/>
        <pt x="988" y="1115" on="0"/>
        <pt x="977" y="1027" on="0"/>
        <pt x="964" y="949" on="0"/>
        <pt x="958" y="930" on="1"/>
        <pt x="871" y="930" on="1"/>
        <pt x="868" y="1023" on="0"/>
        <pt x="827" y="1130" on="0"/>
        <pt x="789" y="1130" on="1"/>
        <pt x="455" y="1130" on="1"/>
        <pt x="455" y="735" on="1"/>
        <pt x="819" y="735" on="1"/>
        <pt x="858" y="697" on="1"/>
        <pt x="849" y="679" on="0"/>
        <pt x="825" y="640" on="0"/>
        <pt x="799" y="604" on="0"/>
        <pt x="774" y="574" on="0"/>
        <pt x="764" y="566" on="1"/>
        <pt x="749" y="581" on="0"/>
        <pt x="715" y="601" on="0"/>
        <pt x="670" y="615" on="0"/>
        <pt x="609" y="621" on="0"/>
        <pt x="567" y="621" on="1"/>
        <pt x="455" y="621" on="1"/>
        <pt x="455" y="144" on="1"/>
        <pt x="455" y="138" on="0"/>
        <pt x="470" y="124" on="0"/>
        <pt x="507" y="109" on="0"/>
        <pt x="571" y="92" on="0"/>
        <pt x="620" y="83" on="1"/>
        <pt x="620" y="0" on="1"/>
      </contour>
    </TTGlyph>
    <TTGlyph name="G" xMin="50" yMin="-30" xMax="1205" yMax="1290">
      <contour>
        <pt x="1112" y="1188" on="1"/>
        <pt x="1117" y="1184" on="0"/>
        <pt x="1108" y="1151" on="0"/>
        <pt x="1088" y="1103" on="0"/>
        <pt x="1060" y="1048" on="0"/>
        <pt x="1031" y="998" on="0"/>
        <pt x="1005" y="959" on="0"/>
        <pt x="996" y="951" on="1"/>
        <pt x="923" y="967" on="1"/>
        <pt x="890" y="1021" on="0"/>
        <pt x="824" y="1095" on="0"/>
        <pt x="754" y="1140" on="0"/>
        <pt x="680" y="1160" on="0"/>
        <pt x="638" y="1160" on="1"/>
        <pt x="613" y="1160" on="0"/>
        <pt x="549" y="1140" on="0"/>
        <pt x="481" y="1093" on="0"/>
        <pt x="417" y="1016" on="0"/>
        <pt x="366" y="899" on="0"/>
        <pt x="335" y="741" on="0"/>
        <pt x="335" y="637" on="1"/>
        <pt x="335" y="505" on="0"/>
        <pt x="393" y="317" on="0"/>
        <pt x="491" y="197" on="0"/>
        <pt x="617" y="140" on="0"/>
        <pt x="686" y="140" on="1"/>
        <pt x="734" y="140" on="0"/>
        <pt x="809" y="156" on="0"/>
        <pt x="840" y="170" on="1"/>
        <pt x="840" y="465" on="1"/>
        <pt x="840" y="476" on="0"/>
        <pt x="835" y="497" on="0"/>
        <pt x="808" y="517" on="0"/>
        <pt x="749" y="537" on="0"/>
        <pt x="694" y="547" on="1"/>
        <pt x="694" y="630" on="1"/>
        <pt x="1205" y="630" on="1"/>
        <pt x="1205" y="547" on="1"/>
        <pt x="1176" y="540" on="0"/>
        <pt x="1140" y="522" on="0"/>
        <pt x="1118" y="500" on="0"/>
        <pt x="1110" y="477" on="0"/>
        <pt x="1110" y="465" on="1"/>
        <pt x="1110" y="174" on="1"/>
        <pt x="1036" y="113" on="0"/>
        <pt x="904" y="34" on="0"/>
        <pt x="787" y="-12" on="0"/>
        <pt x="683" y="-30" on="0"/>
        <pt x="638" y="-30" on="1"/>
        <pt x="564" y="-30" on="0"/>
        <pt x="419" y="3" on="0"/>
        <pt x="288" y="70" on="0"/>
        <pt x="177" y="172" on="0"/>
        <pt x="96" y="308" on="0"/>
        <pt x="50" y="479" on="0"/>
        <pt x="50" y="582" on="1"/>
        <pt x="50" y="748" on="0"/>
        <pt x="157" y="1011" on="0"/>
        <pt x="346" y="1194" on="0"/>
        <pt x="605" y="1290" on="0"/>
        <pt x="757" y="1290" on="1"/>
        <pt x="790" y="1290" on="0"/>
        <pt x="885" y="1276" on="0"/>
        <pt x="985" y="1250" on="0"/>
        <pt x="1080" y="1212" on="0"/>
      </contour>
    </TTGlyph>
    <TTGlyph name="Gbreve" xMin="50" yMin="-30" xMax="1205" yMax="1765">
      <component glyphName="G" x="0" y="0" flags="0x0"/>
      <component glyphName="uni0306" x="1177" y="320" flags="0x0"/>
    </TTGlyph>
    <TTGlyph name="Gcaron" xMin="50" yMin="-30" xMax="1205" yMax="1785">
      <component glyphName="G" x="0" y="0" flags="0x0"/>
      <component glyphName="uni030C.LP" x="1176" y="320" flags="0x0"/>
    </TTGlyph>
    <TTGlyph name="Gcircumflex" xMin="50" yMin="-30" xMax="1205" yMax="1751">
      <component glyphName="G" x="0" y="0" flags="0x0"/>
      <component glyphName="uni0302.LP" x="1176" y="320" flags="0x0"/>
    </TTGlyph>
    <TTGlyph name="Gdotaccent" xMin="50" yMin="-30" xMax="1205" yMax="1680">
      <component glyphName="G" x="0" y="0" flags="0x0"/>
      <component glyphName="uni0307.LP" x="1177" y="320" flags="0x0"/>
    </TTGlyph>
    <TTGlyph name="H" xMin="40" yMin="0" xMax="1360" yMax="1260">
      <contour>
        <pt x="40" y="0" on="1"/>
        <pt x="40" y="83" on="1"/>
        <pt x="108" y="97" on="0"/>
        <pt x="175" y="130" on="0"/>
        <pt x="175" y="144" on="1"/>
        <pt x="175" y="1115" on="1"/>
        <pt x="175" y="1127" on="0"/>
        <pt x="112" y="1163" on="0"/>
        <pt x="40" y="1177" on="1"/>
        <pt x="40" y="1260" on="1"/>
        <pt x="590" y="1260" on="1"/>
        <pt x="590" y="1177" on="1"/>
        <pt x="522" y="1163" on="0"/>
        <pt x="455" y="1129" on="0"/>
        <pt x="455" y="1115" on="1"/>
        <pt x="455" y="725" on="1"/>
        <pt x="945" y="725" on="1"/>
        <pt x="945" y="1115" on="1"/>
        <pt x="945" y="1127" on="0"/>
        <pt x="882" y="1163" on="0"/>
        <pt x="810" y="1177" on="1"/>
        <pt x="810" y="1260" on="1"/>
        <pt x="1360" y="1260" on="1"/>
        <pt x="1360" y="1177" on="1"/>
        <pt x="1292" y="1163" on="0"/>
        <pt x="1225" y="1129" on="0"/>
        <pt x="1225" y="1115" on="1"/>
        <pt x="1225" y="144" on="1"/>
        <pt x="1225" y="132" on="0"/>
        <pt x="1288" y="97" on="0"/>
        <pt x="1360" y="83" on="1"/>
        <pt x="1360" y="0" on="1"/>
        <pt x="810" y="0" on="1"/>
        <pt x="810" y="83" on="1"/>
        <pt x="878" y="97" on="0"/>
        <pt x="945" y="130" on="0"/>
        <pt x="945" y="144" on="1"/>
        <pt x="945" y="595" on="1"/>
        <pt x="455" y="595" on="1"/>
        <pt x="455" y="144" on="1"/>
        <pt x="455" y="132" on="0"/>
        <pt x="517" y="97" on="0"/>
        <pt x="590" y="83" on="1"/>
        <pt x="590" y="0" on="1"/>
      </contour>
    </TTGlyph>
    <TTGlyph name="Hcircumflex" xMin="40" yMin="0" xMax="1360" yMax="1751">
      <component glyphName="H" x="0" y="0" flags="0x0"/>
      <component glyphName="uni0302.LP" x="1214" y="320" flags="0x0"/>
    </TTGlyph>
    <TTGlyph name="I" xMin="60" yMin="0" xMax="610" yMax="1260">
      <contour>
        <pt x="60" y="0" on="1"/>
        <pt x="60" y="83" on="1"/>
        <pt x="128" y="97" on="0"/>
        <pt x="195" y="130" on="0"/>
        <pt x="195" y="144" on="1"/>
        <pt x="195" y="1115" on="1"/>
        <pt x="195" y="1127" on="0"/>
        <pt x="132" y="1163" on="0"/>
        <pt x="60" y="1177" on="1"/>
        <pt x="60" y="1260" on="1"/>
        <pt x="610" y="1260" on="1"/>
        <pt x="610" y="1177" on="1"/>
        <pt x="542" y="1163" on="0"/>
        <pt x="475" y="1129" on="0"/>
        <pt x="475" y="1115" on="1"/>
        <pt x="475" y="144" on="1"/>
        <pt x="475" y="132" on="0"/>
        <pt x="538" y="97" on="0"/>
        <pt x="610" y="83" on="1"/>
        <pt x="610" y="0" on="1"/>
      </contour>
    </TTGlyph>
    <TTGlyph name="IJ" xMin="60" yMin="-430" xMax="1335" yMax="1260">
      <component glyphName="I" x="0" y="0" flags="0x0"/>
      <component glyphName="J" x="690" y="0" flags="0x0"/>
    </TTGlyph>
    <TTGlyph name="Iacute" xMin="60" yMin="0" xMax="692" yMax="1779">
      <component glyphName="I" x="0" y="0" flags="0x0"/>
      <component glyphName="acutecomb.LP" x="878" y="320" flags="0x0"/>
    </TTGlyph>
    <TTGlyph name="Ibreve" xMin="-30" yMin="0" xMax="700" yMax="1765">
      <component glyphName="I" x="0" y="0" flags="0x0"/>
      <component glyphName="uni0306" x="850" y="320" flags="0x0"/>
    </TTGlyph>
    <TTGlyph name="Icircumflex" xMin="-12" yMin="0" xMax="681" yMax="1751">
      <component glyphName="I" x="0" y="0" flags="0x0"/>
      <component glyphName="uni0302.LP" x="849" y="320" flags="0x0"/>
    </TTGlyph>
    <TTGlyph name="Idieresis" xMin="-30" yMin="0" xMax="700" yMax="1680">
      <component glyphName="I" x="0" y="0" flags="0x0"/>
      <component glyphName="uni0308.LP" x="850" y="320" flags="0x0"/>
    </TTGlyph>
    <TTGlyph name="Idotaccent" xMin="60" yMin="0" xMax="610" yMax="1680">
      <component glyphName="I" x="0" y="0" flags="0x0"/>
      <component glyphName="uni0307.LP" x="850" y="320" flags="0x0"/>
    </TTGlyph>
    <TTGlyph name="Igrave" xMin="-15" yMin="0" xMax="610" yMax="1779">
      <component glyphName="I" x="0" y="0" flags="0x0"/>
      <component glyphName="gravecomb.LP" x="768" y="320" flags="0x0"/>
    </TTGlyph>
    <TTGlyph name="Imacron" xMin="10" yMin="0" xMax="680" yMax="1669">
      <component glyphName="I" x="0" y="0" flags="0x0"/>
      <component glyphName="uni0304.Short" x="860" y="320" flags="0x0"/>
    </TTGlyph>
    <TTGlyph name="Itilde" xMin="-76" yMin="0" xMax="746" yMax="1700">
      <component glyphName="I" x="0" y="0" flags="0x0"/>
      <component glyphName="tildecomb.LP" x="880" y="320" flags="0x0"/>
    </TTGlyph>
    <TTGlyph name="J" xMin="-290" yMin="-430" xMax="645" yMax="1260">
      <contour>
        <pt x="645" y="1177" on="1"/>
        <pt x="577" y="1163" on="0"/>
        <pt x="510" y="1129" on="0"/>
        <pt x="510" y="1115" on="1"/>
        <pt x="510" y="175" on="1"/>
        <pt x="510" y="68" on="0"/>
        <pt x="462" y="-89" on="0"/>
        <pt x="388" y="-205" on="0"/>
        <pt x="300" y="-286" on="0"/>
        <pt x="261" y="-318" on="1"/>
        <pt x="234" y="-340" on="0"/>
        <pt x="167" y="-380" on="0"/>
        <pt x="92" y="-411" on="0"/>
        <pt x="13" y="-430" on="0"/>
        <pt x="-25" y="-430" on="1"/>
        <pt x="-74" y="-430" on="0"/>
        <pt x="-169" y="-408" on="0"/>
        <pt x="-244" y="-377" on="0"/>
        <pt x="-290" y="-342" on="0"/>
        <pt x="-290" y="-330" on="1"/>
        <pt x="-290" y="-322" on="0"/>
        <pt x="-268" y="-291" on="0"/>
        <pt x="-232" y="-253" on="0"/>
        <pt x="-189" y="-213" on="0"/>
        <pt x="-148" y="-178" on="0"/>
        <pt x="-113" y="-153" on="0"/>
        <pt x="-104" y="-150" on="1"/>
        <pt x="-48" y="-202" on="0"/>
        <pt x="56" y="-247" on="0"/>
        <pt x="94" y="-247" on="1"/>
        <pt x="120" y="-247" on="0"/>
        <pt x="169" y="-226" on="0"/>
        <pt x="207" y="-153" on="0"/>
        <pt x="230" y="-14" on="0"/>
        <pt x="230" y="103" on="1"/>
        <pt x="230" y="1115" on="1"/>
        <pt x="230" y="1121" on="0"/>
        <pt x="217" y="1135" on="0"/>
        <pt x="178" y="1151" on="0"/>
        <pt x="105" y="1168" on="0"/>
        <pt x="45" y="1177" on="1"/>
        <pt x="45" y="1260" on="1"/>
        <pt x="645" y="1260" on="1"/>
      </contour>
    </TTGlyph>
    <TTGlyph name="K" xMin="40" yMin="-14" xMax="1294" yMax="1260">
      <contour>
        <pt x="40" y="0" on="1"/>
        <pt x="40" y="83" on="1"/>
        <pt x="108" y="97" on="0"/>
        <pt x="175" y="130" on="0"/>
        <pt x="175" y="144" on="1"/>
        <pt x="175" y="1115" on="1"/>
        <pt x="175" y="1127" on="0"/>
        <pt x="112" y="1163" on="0"/>
        <pt x="40" y="1177" on="1"/>
        <pt x="40" y="1260" on="1"/>
        <pt x="590" y="1260" on="1"/>
        <pt x="590" y="1177" on="1"/>
        <pt x="522" y="1163" on="0"/>
        <pt x="455" y="1129" on="0"/>
        <pt x="455" y="1115" on="1"/>
        <pt x="455" y="664" on="1"/>
        <pt x="814" y="1088" on="1"/>
        <pt x="837" y="1115" on="0"/>
        <pt x="858" y="1147" on="0"/>
        <pt x="850" y="1165" on="0"/>
        <pt x="809" y="1174" on="0"/>
        <pt x="770" y="1177" on="1"/>
        <pt x="770" y="1260" on="1"/>
        <pt x="1230" y="1260" on="1"/>
        <pt x="1230" y="1177" on="1"/>
        <pt x="1198" y="1173" on="0"/>
        <pt x="1155" y="1165" on="0"/>
        <pt x="1122" y="1152" on="0"/>
        <pt x="1096" y="1131" on="0"/>
        <pt x="1080" y="1115" on="1"/>
        <pt x="654" y="677" on="1"/>
        <pt x="1135" y="177" on="1"/>
        <pt x="1151" y="160" on="0"/>
        <pt x="1183" y="143" on="0"/>
        <pt x="1219" y="135" on="0"/>
        <pt x="1261" y="137" on="0"/>
        <pt x="1287" y="140" on="1"/>
        <pt x="1294" y="57" on="1"/>
        <pt x="1265" y="48" on="0"/>
        <pt x="1189" y="23" on="0"/>
        <pt x="1112" y="1" on="0"/>
        <pt x="1042" y="-14" on="0"/>
        <pt x="1018" y="-14" on="1"/>
        <pt x="989" y="-14" on="0"/>
        <pt x="944" y="4" on="0"/>
        <pt x="924" y="29" on="1"/>
        <pt x="455" y="620" on="1"/>
        <pt x="455" y="144" on="1"/>
        <pt x="455" y="132" on="0"/>
        <pt x="517" y="97" on="0"/>
        <pt x="590" y="83" on="1"/>
        <pt x="590" y="0" on="1"/>
      </contour>
    </TTGlyph>
    <TTGlyph name="L" xMin="40" yMin="0" xMax="1044" yMax="1260">
      <contour>
        <pt x="1044" y="324" on="1"/>
        <pt x="1040" y="281" on="0"/>
        <pt x="1029" y="180" on="0"/>
        <pt x="1018" y="87" on="0"/>
        <pt x="1007" y="15" on="0"/>
        <pt x="1003" y="0" on="1"/>
        <pt x="40" y="0" on="1"/>
        <pt x="40" y="83" on="1"/>
        <pt x="108" y="97" on="0"/>
        <pt x="175" y="130" on="0"/>
        <pt x="175" y="144" on="1"/>
        <pt x="175" y="1115" on="1"/>
        <pt x="175" y="1127" on="0"/>
        <pt x="112" y="1163" on="0"/>
        <pt x="40" y="1177" on="1"/>
        <pt x="40" y="1260" on="1"/>
        <pt x="590" y="1260" on="1"/>
        <pt x="590" y="1177" on="1"/>
        <pt x="522" y="1163" on="0"/>
        <pt x="455" y="1129" on="0"/>
        <pt x="455" y="1115" on="1"/>
        <pt x="455" y="204" on="1"/>
        <pt x="455" y="186" on="0"/>
        <pt x="472" y="159" on="0"/>
        <pt x="514" y="140" on="0"/>
        <pt x="586" y="130" on="0"/>
        <pt x="641" y="130" on="1"/>
        <pt x="744" y="130" on="1"/>
        <pt x="790" y="130" on="0"/>
        <pt x="853" y="155" on="0"/>
        <pt x="901" y="209" on="0"/>
        <pt x="940" y="293" on="0"/>
        <pt x="961" y="352" on="1"/>
      </contour>
    </TTGlyph>
    <TTGlyph name="Lacute" xMin="40" yMin="0" xMax="1044" yMax="1779">
      <component glyphName="L" x="0" y="0" flags="0x0"/>
      <component glyphName="acutecomb.LP" x="1051" y="320" flags="0x0"/>
    </TTGlyph>
    <TTGlyph name="Lslash" xMin="20" yMin="0" xMax="1044" yMax="1260">
      <contour>
        <pt x="1044" y="324" on="1"/>
        <pt x="1040" y="281" on="0"/>
        <pt x="1029" y="180" on="0"/>
        <pt x="1018" y="87" on="0"/>
        <pt x="1007" y="15" on="0"/>
        <pt x="1003" y="0" on="1"/>
        <pt x="40" y="0" on="1"/>
        <pt x="40" y="83" on="1"/>
        <pt x="108" y="97" on="0"/>
        <pt x="175" y="130" on="0"/>
        <pt x="175" y="144" on="1"/>
        <pt x="175" y="449" on="1"/>
        <pt x="47" y="385" on="1"/>
        <pt x="20" y="407" on="1"/>
        <pt x="21" y="424" on="0"/>
        <pt x="31" y="465" on="0"/>
        <pt x="43" y="505" on="0"/>
        <pt x="56" y="539" on="0"/>
        <pt x="61" y="549" on="1"/>
        <pt x="175" y="606" on="1"/>
        <pt x="175" y="1115" on="1"/>
        <pt x="175" y="1127" on="0"/>
        <pt x="112" y="1163" on="0"/>
        <pt x="40" y="1177" on="1"/>
        <pt x="40" y="1260" on="1"/>
        <pt x="590" y="1260" on="1"/>
        <pt x="590" y="1177" on="1"/>
        <pt x="522" y="1163" on="0"/>
        <pt x="455" y="1129" on="0"/>
        <pt x="455" y="1115" on="1"/>
        <pt x="455" y="747" on="1"/>
        <pt x="742" y="892" on="1"/>
        <pt x="768" y="867" on="1"/>
        <pt x="766" y="850" on="0"/>
        <pt x="757" y="811" on="0"/>
        <pt x="745" y="773" on="0"/>
        <pt x="731" y="739" on="0"/>
        <pt x="725" y="727" on="1"/>
        <pt x="455" y="591" on="1"/>
        <pt x="455" y="204" on="1"/>
        <pt x="455" y="186" on="0"/>
        <pt x="472" y="159" on="0"/>
        <pt x="514" y="140" on="0"/>
        <pt x="586" y="130" on="0"/>
        <pt x="641" y="130" on="1"/>
        <pt x="744" y="130" on="1"/>
        <pt x="790" y="130" on="0"/>
        <pt x="853" y="155" on="0"/>
        <pt x="901" y="209" on="0"/>
        <pt x="940" y="293" on="0"/>
        <pt x="961" y="352" on="1"/>
      </contour>
    </TTGlyph>
    <TTGlyph name="M" xMin="50" yMin="0" xMax="1690" yMax="1260">
      <contour>
        <pt x="1660" y="1177" on="1"/>
        <pt x="1636" y="1177" on="0"/>
        <pt x="1571" y="1164" on="0"/>
        <pt x="1535" y="1152" on="1"/>
        <pt x="1545" y="144" on="1"/>
        <pt x="1545" y="132" on="0"/>
        <pt x="1618" y="97" on="0"/>
        <pt x="1690" y="83" on="1"/>
        <pt x="1690" y="0" on="1"/>
        <pt x="1145" y="0" on="1"/>
        <pt x="1145" y="83" on="1"/>
        <pt x="1213" y="97" on="0"/>
        <pt x="1290" y="130" on="0"/>
        <pt x="1290" y="144" on="1"/>
        <pt x="1282" y="917" on="1"/>
        <pt x="863" y="0" on="1"/>
        <pt x="754" y="0" on="1"/>
        <pt x="348" y="915" on="1"/>
        <pt x="340" y="144" on="1"/>
        <pt x="340" y="132" on="0"/>
        <pt x="403" y="97" on="0"/>
        <pt x="475" y="83" on="1"/>
        <pt x="475" y="0" on="1"/>
        <pt x="50" y="0" on="1"/>
        <pt x="50" y="83" on="1"/>
        <pt x="119" y="97" on="0"/>
        <pt x="185" y="130" on="0"/>
        <pt x="185" y="144" on="1"/>
        <pt x="195" y="1144" on="1"/>
        <pt x="160" y="1163" on="0"/>
        <pt x="89" y="1177" on="0"/>
        <pt x="60" y="1177" on="1"/>
        <pt x="60" y="1260" on="1"/>
        <pt x="426" y="1260" on="1"/>
        <pt x="436" y="1260" on="0"/>
        <pt x="453" y="1254" on="0"/>
        <pt x="469" y="1236" on="0"/>
        <pt x="488" y="1203" on="0"/>
        <pt x="500" y="1176" on="1"/>
        <pt x="859" y="363" on="1"/>
        <pt x="1230" y="1176" on="1"/>
        <pt x="1243" y="1206" on="0"/>
        <pt x="1262" y="1239" on="0"/>
        <pt x="1279" y="1256" on="0"/>
        <pt x="1295" y="1260" on="0"/>
        <pt x="1304" y="1260" on="1"/>
        <pt x="1660" y="1260" on="1"/>
      </contour>
    </TTGlyph>
    <TTGlyph name="N" xMin="40" yMin="-30" xMax="1330" yMax="1260">
      <contour>
        <pt x="40" y="0" on="1"/>
        <pt x="40" y="83" on="1"/>
        <pt x="113" y="92" on="0"/>
        <pt x="175" y="130" on="0"/>
        <pt x="175" y="144" on="1"/>
        <pt x="175" y="1102" on="1"/>
        <pt x="143" y="1132" on="0"/>
        <pt x="74" y="1172" on="0"/>
        <pt x="40" y="1177" on="1"/>
        <pt x="40" y="1260" on="1"/>
        <pt x="342" y="1260" on="1"/>
        <pt x="357" y="1260" on="0"/>
        <pt x="376" y="1255" on="0"/>
        <pt x="396" y="1239" on="0"/>
        <pt x="419" y="1208" on="0"/>
        <pt x="438" y="1182" on="1"/>
        <pt x="1035" y="353" on="1"/>
        <pt x="1035" y="1115" on="1"/>
        <pt x="1035" y="1121" on="0"/>
        <pt x="1023" y="1138" on="0"/>
        <pt x="992" y="1155" on="0"/>
        <pt x="940" y="1171" on="0"/>
        <pt x="900" y="1177" on="1"/>
        <pt x="900" y="1260" on="1"/>
        <pt x="1330" y="1260" on="1"/>
        <pt x="1330" y="1177" on="1"/>
        <pt x="1258" y="1167" on="0"/>
        <pt x="1195" y="1129" on="0"/>
        <pt x="1195" y="1115" on="1"/>
        <pt x="1195" y="-30" on="1"/>
        <pt x="1140" y="-26" on="0"/>
        <pt x="1051" y="-3" on="0"/>
        <pt x="982" y="29" on="0"/>
        <pt x="932" y="69" on="0"/>
        <pt x="916" y="91" on="1"/>
        <pt x="335" y="895" on="1"/>
        <pt x="335" y="144" on="1"/>
        <pt x="335" y="138" on="0"/>
        <pt x="348" y="121" on="0"/>
        <pt x="380" y="104" on="0"/>
        <pt x="431" y="88" on="0"/>
        <pt x="470" y="83" on="1"/>
        <pt x="470" y="0" on="1"/>
      </contour>
    </TTGlyph>
    <TTGlyph name="Nacute" xMin="40" yMin="-30" xMax="1330" yMax="1779">
      <component glyphName="N" x="0" y="0" flags="0x0"/>
      <component glyphName="acutecomb.LP" x="1228" y="320" flags="0x0"/>
    </TTGlyph>
    <TTGlyph name="Ncaron" xMin="40" yMin="-30" xMax="1330" yMax="1785">
      <component glyphName="N" x="0" y="0" flags="0x0"/>
      <component glyphName="uni030C.LP" x="1199" y="320" flags="0x0"/>
    </TTGlyph>
    <TTGlyph name="Ntilde" xMin="40" yMin="-30" xMax="1330" yMax="1700">
      <component glyphName="N" x="0" y="0" flags="0x0"/>
      <component glyphName="tildecomb.LP" x="1230" y="320" flags="0x0"/>
    </TTGlyph>
    <TTGlyph name="O" xMin="50" yMin="-30" xMax="1218" yMax="1290">
      <contour>
        <pt x="933" y="629" on="1"/>
        <pt x="933" y="732" on="0"/>
        <pt x="886" y="923" on="0"/>
        <pt x="799" y="1068" on="0"/>
        <pt x="678" y="1155" on="0"/>
        <pt x="604" y="1155" on="1"/>
        <pt x="538" y="1155" on="0"/>
        <pt x="437" y="1086" on="0"/>
        <pt x="369" y="954" on="0"/>
        <pt x="335" y="763" on="0"/>
        <pt x="335" y="641" on="1"/>
        <pt x="335" y="529" on="0"/>
        <pt x="385" y="335" on="0"/>
        <pt x="472" y="192" on="0"/>
        <pt x="588" y="110" on="0"/>
        <pt x="654" y="110" on="1"/>
        <pt x="714" y="110" on="0"/>
        <pt x="817" y="173" on="0"/>
        <pt x="891" y="301" on="0"/>
        <pt x="933" y="497" on="0"/>
      </contour>
      <contour>
        <pt x="1218" y="647" on="1"/>
        <pt x="1218" y="556" on="0"/>
        <pt x="1173" y="386" on="0"/>
        <pt x="1092" y="235" on="0"/>
        <pt x="980" y="110" on="0"/>
        <pt x="843" y="20" on="0"/>
        <pt x="688" y="-30" on="0"/>
        <pt x="605" y="-30" on="1"/>
        <pt x="477" y="-30" on="0"/>
        <pt x="271" y="76" on="0"/>
        <pt x="127" y="254" on="0"/>
        <pt x="50" y="486" on="0"/>
        <pt x="50" y="612" on="1"/>
        <pt x="50" y="748" on="0"/>
        <pt x="139" y="994" on="0"/>
        <pt x="301" y="1180" on="0"/>
        <pt x="526" y="1290" on="0"/>
        <pt x="663" y="1290" on="1"/>
        <pt x="798" y="1290" on="0"/>
        <pt x="1005" y="1181" on="0"/>
        <pt x="1146" y="1001" on="0"/>
        <pt x="1218" y="769" on="0"/>
      </contour>
    </TTGlyph>
    <TTGlyph name="OE" xMin="50" yMin="-30" xMax="1714" yMax="1290">
      <contour>
        <pt x="654" y="110" on="1"/>
        <pt x="690" y="110" on="0"/>
        <pt x="741" y="117" on="0"/>
        <pt x="782" y="130" on="0"/>
        <pt x="817" y="150" on="0"/>
        <pt x="835" y="164" on="1"/>
        <pt x="835" y="1057" on="1"/>
        <pt x="790" y="1107" on="0"/>
        <pt x="667" y="1156" on="0"/>
        <pt x="604" y="1156" on="1"/>
        <pt x="538" y="1156" on="0"/>
        <pt x="438" y="1087" on="0"/>
        <pt x="370" y="955" on="0"/>
        <pt x="335" y="763" on="0"/>
        <pt x="335" y="641" on="1"/>
        <pt x="335" y="529" on="0"/>
        <pt x="384" y="335" on="0"/>
        <pt x="470" y="192" on="0"/>
        <pt x="586" y="110" on="0"/>
      </contour>
      <contour>
        <pt x="1714" y="324" on="1"/>
        <pt x="1710" y="281" on="0"/>
        <pt x="1700" y="180" on="0"/>
        <pt x="1688" y="87" on="0"/>
        <pt x="1677" y="15" on="0"/>
        <pt x="1673" y="0" on="1"/>
        <pt x="880" y="0" on="1"/>
        <pt x="828" y="-1" on="0"/>
        <pt x="762" y="-10" on="0"/>
        <pt x="707" y="-21" on="0"/>
        <pt x="649" y="-30" on="0"/>
        <pt x="605" y="-30" on="1"/>
        <pt x="479" y="-30" on="0"/>
        <pt x="274" y="76" on="0"/>
        <pt x="129" y="254" on="0"/>
        <pt x="50" y="486" on="0"/>
        <pt x="50" y="612" on="1"/>
        <pt x="50" y="748" on="0"/>
        <pt x="141" y="994" on="0"/>
        <pt x="305" y="1180" on="0"/>
        <pt x="529" y="1290" on="0"/>
        <pt x="663" y="1290" on="1"/>
        <pt x="703" y="1290" on="0"/>
        <pt x="761" y="1281" on="0"/>
        <pt x="811" y="1270" on="0"/>
        <pt x="860" y="1261" on="0"/>
        <pt x="890" y="1260" on="1"/>
        <pt x="1606" y="1260" on="1"/>
        <pt x="1649" y="1225" on="1"/>
        <pt x="1647" y="1199" on="0"/>
        <pt x="1639" y="1115" on="0"/>
        <pt x="1627" y="1027" on="0"/>
        <pt x="1614" y="949" on="0"/>
        <pt x="1608" y="930" on="1"/>
        <pt x="1523" y="930" on="1"/>
        <pt x="1518" y="1023" on="0"/>
        <pt x="1478" y="1130" on="0"/>
        <pt x="1441" y="1130" on="1"/>
        <pt x="1115" y="1130" on="1"/>
        <pt x="1115" y="735" on="1"/>
        <pt x="1510" y="735" on="1"/>
        <pt x="1546" y="697" on="1"/>
        <pt x="1538" y="683" on="0"/>
        <pt x="1515" y="643" on="0"/>
        <pt x="1490" y="602" on="0"/>
        <pt x="1465" y="568" on="0"/>
        <pt x="1454" y="560" on="1"/>
        <pt x="1439" y="575" on="0"/>
        <pt x="1404" y="595" on="0"/>
        <pt x="1359" y="609" on="0"/>
        <pt x="1298" y="615" on="0"/>
        <pt x="1256" y="615" on="1"/>
        <pt x="1115" y="615" on="1"/>
        <pt x="1115" y="194" on="1"/>
        <pt x="1115" y="179" on="0"/>
        <pt x="1129" y="156" on="0"/>
        <pt x="1173" y="139" on="0"/>
        <pt x="1253" y="130" on="0"/>
        <pt x="1319" y="130" on="1"/>
        <pt x="1408" y="130" on="1"/>
        <pt x="1454" y="130" on="0"/>
        <pt x="1519" y="155" on="0"/>
        <pt x="1569" y="209" on="0"/>
        <pt x="1610" y="293" on="0"/>
        <pt x="1631" y="352" on="1"/>
      </contour>
    </TTGlyph>
    <TTGlyph name="Oacute" xMin="50" yMin="-30" xMax="1218" yMax="1779">
      <component glyphName="O" x="0" y="0" flags="0x0"/>
      <component glyphName="acutecomb.LP" x="1189" y="320" flags="0x0"/>
    </TTGlyph>
    <TTGlyph name="Obreve" xMin="50" yMin="-30" xMax="1218" yMax="1765">
      <component glyphName="O" x="0" y="0" flags="0x0"/>
      <component glyphName="uni0306" x="1161" y="320" flags="0x0"/>
    </TTGlyph>
    <TTGlyph name="Ocircumflex" xMin="50" yMin="-30" xMax="1218" yMax="1751">
      <component glyphName="O" x="0" y="0" flags="0x0"/>
      <component glyphName="uni0302.LP" x="1160" y="320" flags="0x0"/>
    </TTGlyph>
    <TTGlyph name="Odieresis" xMin="50" yMin="-30" xMax="1218" yMax="1680">
      <component glyphName="O" x="0" y="0" flags="0x0"/>
      <component glyphName="uni0308.LP" x="1161" y="320" flags="0x0"/>
    </TTGlyph>
    <TTGlyph name="Ograve" xMin="50" yMin="-30" xMax="1218" yMax="1779">
      <component glyphName="O" x="0" y="0" flags="0x0"/>
      <component glyphName="gravecomb.LP" x="1079" y="320" flags="0x0"/>
    </TTGlyph>
    <TTGlyph name="Ohorn" xMin="50" yMin="-30" xMax="1280" yMax="1545">
      <contour>
        <pt x="933" y="629" on="1"/>
        <pt x="933" y="732" on="0"/>
        <pt x="886" y="923" on="0"/>
        <pt x="799" y="1068" on="0"/>
        <pt x="678" y="1155" on="0"/>
        <pt x="604" y="1155" on="1"/>
        <pt x="538" y="1155" on="0"/>
        <pt x="437" y="1086" on="0"/>
        <pt x="369" y="954" on="0"/>
        <pt x="335" y="763" on="0"/>
        <pt x="335" y="641" on="1"/>
        <pt x="335" y="529" on="0"/>
        <pt x="385" y="335" on="0"/>
        <pt x="472" y="192" on="0"/>
        <pt x="588" y="110" on="0"/>
        <pt x="654" y="110" on="1"/>
        <pt x="714" y="110" on="0"/>
        <pt x="817" y="173" on="0"/>
        <pt x="891" y="301" on="0"/>
        <pt x="933" y="497" on="0"/>
      </contour>
      <contour>
        <pt x="1280" y="1392" on="1"/>
        <pt x="1280" y="1329" on="0"/>
        <pt x="1166" y="1188" on="0"/>
        <pt x="1050" y="1120" on="1"/>
        <pt x="1091" y="1074" on="0"/>
        <pt x="1154" y="965" on="0"/>
        <pt x="1196" y="843" on="0"/>
        <pt x="1218" y="713" on="0"/>
        <pt x="1218" y="647" on="1"/>
        <pt x="1218" y="556" on="0"/>
        <pt x="1173" y="386" on="0"/>
        <pt x="1092" y="235" on="0"/>
        <pt x="980" y="110" on="0"/>
        <pt x="843" y="20" on="0"/>
        <pt x="688" y="-30" on="0"/>
        <pt x="605" y="-30" on="1"/>
        <pt x="477" y="-30" on="0"/>
        <pt x="271" y="76" on="0"/>
        <pt x="127" y="254" on="0"/>
        <pt x="50" y="486" on="0"/>
        <pt x="50" y="612" on="1"/>
        <pt x="50" y="748" on="0"/>
        <pt x="139" y="994" on="0"/>
        <pt x="301" y="1180" on="0"/>
        <pt x="526" y="1290" on="0"/>
        <pt x="663" y="1290" on="1"/>
        <pt x="746" y="1290" on="0"/>
        <pt x="887" y="1247" on="0"/>
        <pt x="946" y="1209" on="1"/>
        <pt x="972" y="1238" on="0"/>
        <pt x="988" y="1291" on="0"/>
        <pt x="988" y="1311" on="1"/>
        <pt x="988" y="1340" on="0"/>
        <pt x="948" y="1392" on="0"/>
        <pt x="920" y="1415" on="1"/>
        <pt x="1208" y="1545" on="1"/>
        <pt x="1223" y="1534" on="0"/>
        <pt x="1249" y="1501" on="0"/>
        <pt x="1268" y="1460" on="0"/>
        <pt x="1280" y="1414" on="0"/>
      </contour>
    </TTGlyph>
    <TTGlyph name="Ohungarumlaut" xMin="50" yMin="-30" xMax="1218" yMax="1829">
      <component glyphName="O" x="0" y="0" flags="0x0"/>
      <component glyphName="uni030B" x="1146" y="320" flags="0x0"/>
    </TTGlyph>
    <TTGlyph name="Omacron" xMin="50" yMin="-30" xMax="1218" yMax="1629">
      <component glyphName="O" x="0" y="0" flags="0x0"/>
      <component glyphName="uni0304.LP" x="1171" y="320" flags="0x0"/>
    </TTGlyph>
    <TTGlyph name="Omega" xMin="60" yMin="0" xMax="1321" yMax="1290">
      <component glyphName="uni03A9" x="0" y="0" flags="0x0"/>
    </TTGlyph>
    <TTGlyph name="Oslash" xMin="50" yMin="-53" xMax="1218" yMax="1313">
      <contour>
        <pt x="933" y="629" on="1"/>
        <pt x="933" y="689" on="0"/>
        <pt x="916" y="804" on="0"/>
        <pt x="901" y="858" on="1"/>
        <pt x="445" y="239" on="1"/>
        <pt x="487" y="178" on="0"/>
        <pt x="594" y="110" on="0"/>
        <pt x="654" y="110" on="1"/>
        <pt x="714" y="110" on="0"/>
        <pt x="817" y="173" on="0"/>
        <pt x="891" y="301" on="0"/>
        <pt x="933" y="497" on="0"/>
      </contour>
      <contour>
        <pt x="335" y="641" on="1"/>
        <pt x="335" y="576" on="0"/>
        <pt x="352" y="457" on="0"/>
        <pt x="368" y="403" on="1"/>
        <pt x="825" y="1022" on="1"/>
        <pt x="782" y="1084" on="0"/>
        <pt x="671" y="1155" on="0"/>
        <pt x="604" y="1155" on="1"/>
        <pt x="538" y="1155" on="0"/>
        <pt x="437" y="1086" on="0"/>
        <pt x="369" y="954" on="0"/>
        <pt x="335" y="763" on="0"/>
      </contour>
      <contour>
        <pt x="1074" y="1093" on="1"/>
        <pt x="1146" y="1002" on="0"/>
        <pt x="1218" y="771" on="0"/>
        <pt x="1218" y="647" on="1"/>
        <pt x="1218" y="556" on="0"/>
        <pt x="1173" y="386" on="0"/>
        <pt x="1092" y="235" on="0"/>
        <pt x="980" y="110" on="0"/>
        <pt x="843" y="20" on="0"/>
        <pt x="688" y="-30" on="0"/>
        <pt x="605" y="-30" on="1"/>
        <pt x="520" y="-30" on="0"/>
        <pt x="374" y="17" on="0"/>
        <pt x="312" y="59" on="1"/>
        <pt x="267" y="-2" on="1"/>
        <pt x="258" y="-10" on="0"/>
        <pt x="211" y="-27" on="0"/>
        <pt x="156" y="-41" on="0"/>
        <pt x="105" y="-52" on="0"/>
        <pt x="93" y="-53" on="1"/>
        <pt x="60" y="-15" on="1"/>
        <pt x="196" y="169" on="1"/>
        <pt x="125" y="258" on="0"/>
        <pt x="50" y="487" on="0"/>
        <pt x="50" y="612" on="1"/>
        <pt x="50" y="748" on="0"/>
        <pt x="139" y="994" on="0"/>
        <pt x="301" y="1180" on="0"/>
        <pt x="526" y="1290" on="0"/>
        <pt x="663" y="1290" on="1"/>
        <pt x="750" y="1290" on="0"/>
        <pt x="897" y="1244" on="0"/>
        <pt x="957" y="1202" on="1"/>
        <pt x="1003" y="1264" on="1"/>
        <pt x="1017" y="1272" on="0"/>
        <pt x="1063" y="1288" on="0"/>
        <pt x="1112" y="1302" on="0"/>
        <pt x="1160" y="1311" on="0"/>
        <pt x="1175" y="1313" on="1"/>
        <pt x="1208" y="1275" on="1"/>
      </contour>
    </TTGlyph>
    <TTGlyph name="Oslashacute" xMin="50" yMin="-53" xMax="1218" yMax="1779">
      <component glyphName="Oslash" x="0" y="0" flags="0x0"/>
      <component glyphName="acutecomb.LP" x="1177" y="320" flags="0x0"/>
    </TTGlyph>
    <TTGlyph name="Otilde" xMin="50" yMin="-30" xMax="1218" yMax="1700">
      <component glyphName="O" x="0" y="0" flags="0x0"/>
      <component glyphName="tildecomb.LP" x="1191" y="320" flags="0x0"/>
    </TTGlyph>
    <TTGlyph name="P" xMin="26" yMin="0" xMax="1122" yMax="1290">
      <contour>
        <pt x="40" y="0" on="1"/>
        <pt x="40" y="83" on="1"/>
        <pt x="108" y="97" on="0"/>
        <pt x="175" y="130" on="0"/>
        <pt x="175" y="144" on="1"/>
        <pt x="175" y="1148" on="1"/>
        <pt x="99" y="1139" on="0"/>
        <pt x="40" y="1128" on="1"/>
        <pt x="26" y="1230" on="1"/>
        <pt x="82" y="1243" on="0"/>
        <pt x="221" y="1265" on="0"/>
        <pt x="370" y="1281" on="0"/>
        <pt x="522" y="1290" on="0"/>
        <pt x="590" y="1290" on="1"/>
        <pt x="709" y="1290" on="0"/>
        <pt x="905" y="1244" on="0"/>
        <pt x="1045" y="1154" on="0"/>
        <pt x="1122" y="1022" on="0"/>
        <pt x="1122" y="936" on="1"/>
        <pt x="1122" y="832" on="0"/>
        <pt x="1040" y="674" on="0"/>
        <pt x="913" y="568" on="0"/>
        <pt x="762" y="515" on="0"/>
        <pt x="693" y="515" on="1"/>
        <pt x="647" y="515" on="0"/>
        <pt x="556" y="530" on="0"/>
        <pt x="522" y="545" on="1"/>
        <pt x="489" y="660" on="1"/>
        <pt x="530" y="641" on="0"/>
        <pt x="588" y="630" on="0"/>
        <pt x="623" y="630" on="1"/>
        <pt x="665" y="630" on="0"/>
        <pt x="743" y="660" on="0"/>
        <pt x="802" y="724" on="0"/>
        <pt x="837" y="824" on="0"/>
        <pt x="837" y="895" on="1"/>
        <pt x="837" y="962" on="0"/>
        <pt x="794" y="1067" on="0"/>
        <pt x="715" y="1139" on="0"/>
        <pt x="603" y="1176" on="0"/>
        <pt x="533" y="1176" on="1"/>
        <pt x="515" y="1176" on="0"/>
        <pt x="475" y="1175" on="0"/>
        <pt x="455" y="1174" on="1"/>
        <pt x="455" y="144" on="1"/>
        <pt x="455" y="138" on="0"/>
        <pt x="467" y="124" on="0"/>
        <pt x="503" y="108" on="0"/>
        <pt x="568" y="92" on="0"/>
        <pt x="620" y="83" on="1"/>
        <pt x="620" y="0" on="1"/>
      </contour>
    </TTGlyph>
    <TTGlyph name="Pi" xMin="39" yMin="0" xMax="1311" yMax="1260">
      <contour>
        <pt x="39" y="0" on="1"/>
        <pt x="39" y="83" on="1"/>
        <pt x="107" y="97" on="0"/>
        <pt x="175" y="130" on="0"/>
        <pt x="175" y="144" on="1"/>
        <pt x="175" y="1115" on="1"/>
        <pt x="175" y="1127" on="0"/>
        <pt x="111" y="1163" on="0"/>
        <pt x="39" y="1177" on="1"/>
        <pt x="39" y="1260" on="1"/>
        <pt x="1311" y="1260" on="1"/>
        <pt x="1311" y="1177" on="1"/>
        <pt x="1242" y="1163" on="0"/>
        <pt x="1175" y="1129" on="0"/>
        <pt x="1175" y="1115" on="1"/>
        <pt x="1175" y="144" on="1"/>
        <pt x="1175" y="132" on="0"/>
        <pt x="1238" y="97" on="0"/>
        <pt x="1311" y="83" on="1"/>
        <pt x="1311" y="0" on="1"/>
        <pt x="760" y="0" on="1"/>
        <pt x="760" y="83" on="1"/>
        <pt x="828" y="97" on="0"/>
        <pt x="895" y="130" on="0"/>
        <pt x="895" y="144" on="1"/>
        <pt x="895" y="1067" on="1"/>
        <pt x="895" y="1079" on="0"/>
        <pt x="875" y="1103" on="0"/>
        <pt x="836" y="1123" on="0"/>
        <pt x="778" y="1136" on="0"/>
        <pt x="740" y="1136" on="1"/>
        <pt x="594" y="1136" on="1"/>
        <pt x="558" y="1135" on="0"/>
        <pt x="506" y="1122" on="0"/>
        <pt x="472" y="1103" on="0"/>
        <pt x="455" y="1079" on="0"/>
        <pt x="455" y="1067" on="1"/>
        <pt x="455" y="144" on="1"/>
        <pt x="455" y="132" on="0"/>
        <pt x="517" y="97" on="0"/>
        <pt x="590" y="83" on="1"/>
        <pt x="590" y="0" on="1"/>
      </contour>
    </TTGlyph>
    <TTGlyph name="Q" xMin="50" yMin="-335" xMax="1462" yMax="1290">
      <contour>
        <pt x="933" y="629" on="1"/>
        <pt x="933" y="732" on="0"/>
        <pt x="886" y="923" on="0"/>
        <pt x="799" y="1068" on="0"/>
        <pt x="678" y="1155" on="0"/>
        <pt x="604" y="1155" on="1"/>
        <pt x="538" y="1155" on="0"/>
        <pt x="437" y="1086" on="0"/>
        <pt x="369" y="954" on="0"/>
        <pt x="335" y="763" on="0"/>
        <pt x="335" y="641" on="1"/>
        <pt x="335" y="529" on="0"/>
        <pt x="385" y="335" on="0"/>
        <pt x="472" y="192" on="0"/>
        <pt x="588" y="110" on="0"/>
        <pt x="654" y="110" on="1"/>
        <pt x="714" y="110" on="0"/>
        <pt x="817" y="173" on="0"/>
        <pt x="891" y="301" on="0"/>
        <pt x="933" y="497" on="0"/>
      </contour>
      <contour>
        <pt x="1462" y="-127" on="1"/>
        <pt x="1438" y="-171" on="0"/>
        <pt x="1381" y="-246" on="0"/>
        <pt x="1326" y="-303" on="0"/>
        <pt x="1277" y="-335" on="0"/>
        <pt x="1262" y="-335" on="1"/>
        <pt x="1214" y="-335" on="0"/>
        <pt x="1116" y="-303" on="0"/>
        <pt x="1017" y="-251" on="0"/>
        <pt x="917" y="-184" on="0"/>
        <pt x="817" y="-115" on="0"/>
        <pt x="717" y="-50" on="0"/>
        <pt x="667" y="-26" on="1"/>
        <pt x="652" y="-28" on="0"/>
        <pt x="621" y="-30" on="0"/>
        <pt x="605" y="-30" on="1"/>
        <pt x="477" y="-30" on="0"/>
        <pt x="271" y="76" on="0"/>
        <pt x="127" y="254" on="0"/>
        <pt x="50" y="486" on="0"/>
        <pt x="50" y="612" on="1"/>
        <pt x="50" y="748" on="0"/>
        <pt x="139" y="994" on="0"/>
        <pt x="301" y="1180" on="0"/>
        <pt x="526" y="1290" on="0"/>
        <pt x="663" y="1290" on="1"/>
        <pt x="798" y="1290" on="0"/>
        <pt x="1005" y="1181" on="0"/>
        <pt x="1146" y="1001" on="0"/>
        <pt x="1218" y="769" on="0"/>
        <pt x="1218" y="647" on="1"/>
        <pt x="1218" y="547" on="0"/>
        <pt x="1164" y="360" on="0"/>
        <pt x="1066" y="199" on="0"/>
        <pt x="932" y="71" on="0"/>
        <pt x="852" y="30" on="1"/>
        <pt x="912" y="11" on="0"/>
        <pt x="1022" y="-41" on="0"/>
        <pt x="1124" y="-87" on="0"/>
        <pt x="1221" y="-120" on="0"/>
        <pt x="1268" y="-120" on="1"/>
        <pt x="1280" y="-120" on="0"/>
        <pt x="1304" y="-115" on="0"/>
        <pt x="1334" y="-101" on="0"/>
        <pt x="1375" y="-74" on="0"/>
        <pt x="1405" y="-52" on="1"/>
      </contour>
    </TTGlyph>
    <TTGlyph name="R" xMin="26" yMin="-14" xMax="1279" yMax="1290">
      <contour>
        <pt x="40" y="0" on="1"/>
        <pt x="40" y="83" on="1"/>
        <pt x="108" y="97" on="0"/>
        <pt x="175" y="130" on="0"/>
        <pt x="175" y="144" on="1"/>
        <pt x="175" y="1147" on="1"/>
        <pt x="40" y="1128" on="1"/>
        <pt x="26" y="1230" on="1"/>
        <pt x="135" y="1253" on="0"/>
        <pt x="401" y="1290" on="0"/>
        <pt x="549" y="1290" on="1"/>
        <pt x="691" y="1290" on="0"/>
        <pt x="889" y="1244" on="0"/>
        <pt x="1012" y="1162" on="0"/>
        <pt x="1067" y="1051" on="0"/>
        <pt x="1067" y="987" on="1"/>
        <pt x="1067" y="919" on="0"/>
        <pt x="1026" y="804" on="0"/>
        <pt x="953" y="711" on="0"/>
        <pt x="850" y="640" on="0"/>
        <pt x="788" y="618" on="1"/>
        <pt x="1108" y="199" on="1"/>
        <pt x="1124" y="178" on="0"/>
        <pt x="1151" y="152" on="0"/>
        <pt x="1184" y="139" on="0"/>
        <pt x="1229" y="137" on="0"/>
        <pt x="1263" y="140" on="1"/>
        <pt x="1279" y="57" on="1"/>
        <pt x="1246" y="46" on="0"/>
        <pt x="1157" y="21" on="0"/>
        <pt x="1070" y="0" on="0"/>
        <pt x="994" y="-14" on="0"/>
        <pt x="975" y="-14" on="1"/>
        <pt x="946" y="-14" on="0"/>
        <pt x="891" y="18" on="0"/>
        <pt x="877" y="41" on="1"/>
        <pt x="595" y="581" on="1"/>
        <pt x="587" y="580" on="0"/>
        <pt x="578" y="580" on="1"/>
        <pt x="561" y="580" on="1"/>
        <pt x="535" y="580" on="0"/>
        <pt x="483" y="585" on="0"/>
        <pt x="455" y="591" on="1"/>
        <pt x="455" y="144" on="1"/>
        <pt x="455" y="132" on="0"/>
        <pt x="517" y="97" on="0"/>
        <pt x="590" y="83" on="1"/>
        <pt x="590" y="0" on="1"/>
      </contour>
      <contour>
        <pt x="502" y="1176" on="1"/>
        <pt x="491" y="1176" on="0"/>
        <pt x="468" y="1175" on="0"/>
        <pt x="455" y="1175" on="1"/>
        <pt x="455" y="711" on="1"/>
        <pt x="482" y="706" on="0"/>
        <pt x="522" y="704" on="0"/>
        <pt x="544" y="704" on="1"/>
        <pt x="608" y="704" on="0"/>
        <pt x="698" y="739" on="0"/>
        <pt x="755" y="804" on="0"/>
        <pt x="782" y="897" on="0"/>
        <pt x="782" y="956" on="1"/>
        <pt x="782" y="999" on="0"/>
        <pt x="759" y="1079" on="0"/>
        <pt x="696" y="1140" on="0"/>
        <pt x="587" y="1176" on="0"/>
      </contour>
    </TTGlyph>
    <TTGlyph name="Racute" xMin="26" yMin="-14" xMax="1279" yMax="1779">
      <component glyphName="R" x="0" y="0" flags="0x0"/>
      <component glyphName="acutecomb.LP" x="1115" y="320" flags="0x0"/>
    </TTGlyph>
    <TTGlyph name="Rcaron" xMin="26" yMin="-14" xMax="1279" yMax="1785">
      <component glyphName="R" x="0" y="0" flags="0x0"/>
      <component glyphName="uni030C.LP" x="1086" y="320" flags="0x0"/>
    </TTGlyph>
    <TTGlyph name="S" xMin="98" yMin="-30" xMax="995" yMax="1290">
      <contour>
        <pt x="995" y="377" on="1"/>
        <pt x="995" y="332" on="0"/>
        <pt x="967" y="238" on="0"/>
        <pt x="912" y="147" on="0"/>
        <pt x="827" y="66" on="0"/>
        <pt x="712" y="6" on="0"/>
        <pt x="568" y="-30" on="0"/>
        <pt x="480" y="-30" on="1"/>
        <pt x="443" y="-30" on="0"/>
        <pt x="345" y="-16" on="0"/>
        <pt x="243" y="9" on="0"/>
        <pt x="146" y="45" on="0"/>
        <pt x="111" y="68" on="1"/>
        <pt x="106" y="70" on="0"/>
        <pt x="100" y="107" on="0"/>
        <pt x="98" y="163" on="0"/>
        <pt x="98" y="233" on="0"/>
        <pt x="104" y="306" on="0"/>
        <pt x="114" y="376" on="0"/>
        <pt x="121" y="404" on="1"/>
        <pt x="202" y="399" on="1"/>
        <pt x="225" y="340" on="0"/>
        <pt x="290" y="238" on="0"/>
        <pt x="371" y="163" on="0"/>
        <pt x="465" y="120" on="0"/>
        <pt x="516" y="120" on="1"/>
        <pt x="561" y="120" on="0"/>
        <pt x="642" y="142" on="0"/>
        <pt x="704" y="187" on="0"/>
        <pt x="740" y="256" on="0"/>
        <pt x="740" y="304" on="1"/>
        <pt x="740" y="365" on="0"/>
        <pt x="686" y="454" on="0"/>
        <pt x="597" y="523" on="0"/>
        <pt x="483" y="579" on="0"/>
        <pt x="364" y="635" on="0"/>
        <pt x="250" y="697" on="0"/>
        <pt x="161" y="778" on="0"/>
        <pt x="107" y="884" on="0"/>
        <pt x="107" y="957" on="1"/>
        <pt x="107" y="988" on="0"/>
        <pt x="132" y="1062" on="0"/>
        <pt x="183" y="1136" on="0"/>
        <pt x="261" y="1205" on="0"/>
        <pt x="367" y="1258" on="0"/>
        <pt x="503" y="1290" on="0"/>
        <pt x="586" y="1290" on="1"/>
        <pt x="643" y="1290" on="0"/>
        <pt x="751" y="1276" on="0"/>
        <pt x="844" y="1252" on="0"/>
        <pt x="915" y="1218" on="0"/>
        <pt x="933" y="1198" on="1"/>
        <pt x="938" y="1194" on="0"/>
        <pt x="933" y="1163" on="0"/>
        <pt x="919" y="1121" on="0"/>
        <pt x="898" y="1072" on="0"/>
        <pt x="875" y="1027" on="0"/>
        <pt x="853" y="992" on="0"/>
        <pt x="845" y="985" on="1"/>
        <pt x="769" y="991" on="1"/>
        <pt x="749" y="1042" on="0"/>
        <pt x="693" y="1111" on="0"/>
        <pt x="630" y="1153" on="0"/>
        <pt x="565" y="1170" on="0"/>
        <pt x="537" y="1170" on="1"/>
        <pt x="489" y="1170" on="0"/>
        <pt x="421" y="1146" on="0"/>
        <pt x="377" y="1105" on="0"/>
        <pt x="357" y="1052" on="0"/>
        <pt x="357" y="1024" on="1"/>
        <pt x="357" y="977" on="0"/>
        <pt x="412" y="903" on="0"/>
        <pt x="502" y="841" on="0"/>
        <pt x="559" y="812" on="1"/>
        <pt x="676" y="754" on="1"/>
        <pt x="736" y="724" on="0"/>
        <pt x="850" y="654" on="0"/>
        <pt x="940" y="565" on="0"/>
        <pt x="995" y="451" on="0"/>
      </contour>
    </TTGlyph>
    <TTGlyph name="Sacute" xMin="98" yMin="-30" xMax="995" yMax="1779">
      <component glyphName="S" x="0" y="0" flags="0x0"/>
      <component glyphName="acutecomb.LP" x="1089" y="320" flags="0x0"/>
    </TTGlyph>
    <TTGlyph name="Scaron" xMin="98" yMin="-30" xMax="995" yMax="1785">
      <component glyphName="S" x="0" y="0" flags="0x0"/>
      <component glyphName="uni030C.LP" x="1060" y="320" flags="0x0"/>
    </TTGlyph>
    <TTGlyph name="Scircumflex" xMin="98" yMin="-30" xMax="995" yMax="1751">
      <component glyphName="S" x="0" y="0" flags="0x0"/>
      <component glyphName="uni0302.LP" x="1060" y="320" flags="0x0"/>
    </TTGlyph>
    <TTGlyph name="T" xMin="0" yMin="0" xMax="1173" yMax="1260">
      <contour>
        <pt x="297" y="0" on="1"/>
        <pt x="297" y="83" on="1"/>
        <pt x="343" y="92" on="0"/>
        <pt x="403" y="112" on="0"/>
        <pt x="437" y="131" on="0"/>
        <pt x="451" y="148" on="0"/>
        <pt x="451" y="155" on="1"/>
        <pt x="451" y="1130" on="1"/>
        <pt x="212" y="1130" on="1"/>
        <pt x="197" y="1130" on="0"/>
        <pt x="169" y="1105" on="0"/>
        <pt x="140" y="1052" on="0"/>
        <pt x="105" y="968" on="0"/>
        <pt x="83" y="910" on="1"/>
        <pt x="0" y="939" on="1"/>
        <pt x="2" y="968" on="0"/>
        <pt x="12" y="1056" on="0"/>
        <pt x="25" y="1149" on="0"/>
        <pt x="38" y="1234" on="0"/>
        <pt x="43" y="1260" on="1"/>
        <pt x="1133" y="1260" on="1"/>
        <pt x="1173" y="1225" on="1"/>
        <pt x="1172" y="1199" on="0"/>
        <pt x="1164" y="1121" on="0"/>
        <pt x="1152" y="1036" on="0"/>
        <pt x="1139" y="951" on="0"/>
        <pt x="1133" y="920" on="1"/>
        <pt x="1048" y="920" on="1"/>
        <pt x="1038" y="966" on="0"/>
        <pt x="1026" y="1044" on="0"/>
        <pt x="1010" y="1099" on="0"/>
        <pt x="986" y="1130" on="0"/>
        <pt x="965" y="1130" on="1"/>
        <pt x="731" y="1130" on="1"/>
        <pt x="731" y="155" on="1"/>
        <pt x="731" y="149" on="0"/>
        <pt x="745" y="132" on="0"/>
        <pt x="779" y="112" on="0"/>
        <pt x="839" y="92" on="0"/>
        <pt x="885" y="83" on="1"/>
        <pt x="885" y="0" on="1"/>
      </contour>
    </TTGlyph>
    <TTGlyph name="Tcaron" xMin="0" yMin="0" xMax="1173" yMax="1785">
      <component glyphName="T" x="0" y="0" flags="0x0"/>
      <component glyphName="uni030C.LP" x="1100" y="320" flags="0x0"/>
    </TTGlyph>
    <TTGlyph name="Thorn" xMin="39" yMin="0" xMax="1122" yMax="1260">
      <contour>
        <pt x="39" y="0" on="1"/>
        <pt x="39" y="83" on="1"/>
        <pt x="107" y="97" on="0"/>
        <pt x="175" y="130" on="0"/>
        <pt x="175" y="144" on="1"/>
        <pt x="175" y="1115" on="1"/>
        <pt x="175" y="1127" on="0"/>
        <pt x="111" y="1163" on="0"/>
        <pt x="39" y="1177" on="1"/>
        <pt x="39" y="1260" on="1"/>
        <pt x="620" y="1260" on="1"/>
        <pt x="620" y="1177" on="1"/>
        <pt x="569" y="1168" on="0"/>
        <pt x="504" y="1152" on="0"/>
        <pt x="468" y="1137" on="0"/>
        <pt x="455" y="1122" on="0"/>
        <pt x="455" y="1115" on="1"/>
        <pt x="455" y="1026" on="1"/>
        <pt x="490" y="1028" on="0"/>
        <pt x="558" y="1030" on="0"/>
        <pt x="590" y="1030" on="1"/>
        <pt x="709" y="1030" on="0"/>
        <pt x="905" y="984" on="0"/>
        <pt x="1045" y="894" on="0"/>
        <pt x="1122" y="762" on="0"/>
        <pt x="1122" y="676" on="1"/>
        <pt x="1122" y="572" on="0"/>
        <pt x="1040" y="414" on="0"/>
        <pt x="913" y="308" on="0"/>
        <pt x="762" y="255" on="0"/>
        <pt x="693" y="255" on="1"/>
        <pt x="647" y="255" on="0"/>
        <pt x="556" y="270" on="0"/>
        <pt x="522" y="285" on="1"/>
        <pt x="489" y="400" on="1"/>
        <pt x="530" y="381" on="0"/>
        <pt x="588" y="370" on="0"/>
        <pt x="623" y="370" on="1"/>
        <pt x="665" y="370" on="0"/>
        <pt x="743" y="400" on="0"/>
        <pt x="802" y="464" on="0"/>
        <pt x="837" y="564" on="0"/>
        <pt x="837" y="635" on="1"/>
        <pt x="837" y="702" on="0"/>
        <pt x="794" y="806" on="0"/>
        <pt x="715" y="877" on="0"/>
        <pt x="603" y="914" on="0"/>
        <pt x="533" y="914" on="1"/>
        <pt x="515" y="914" on="0"/>
        <pt x="476" y="913" on="0"/>
        <pt x="455" y="912" on="1"/>
        <pt x="455" y="144" on="1"/>
        <pt x="455" y="138" on="0"/>
        <pt x="467" y="124" on="0"/>
        <pt x="503" y="108" on="0"/>
        <pt x="568" y="92" on="0"/>
        <pt x="620" y="83" on="1"/>
        <pt x="620" y="0" on="1"/>
      </contour>
    </TTGlyph>
    <TTGlyph name="U" xMin="40" yMin="-30" xMax="1325" yMax="1260">
      <contour>
        <pt x="1325" y="1177" on="1"/>
        <pt x="1257" y="1163" on="0"/>
        <pt x="1190" y="1129" on="0"/>
        <pt x="1190" y="1115" on="1"/>
        <pt x="1190" y="524" on="1"/>
        <pt x="1190" y="393" on="0"/>
        <pt x="1113" y="187" on="0"/>
        <pt x="978" y="45" on="0"/>
        <pt x="794" y="-30" on="0"/>
        <pt x="686" y="-30" on="1"/>
        <pt x="583" y="-30" on="0"/>
        <pt x="397" y="27" on="0"/>
        <pt x="257" y="144" on="0"/>
        <pt x="175" y="322" on="0"/>
        <pt x="175" y="444" on="1"/>
        <pt x="175" y="1115" on="1"/>
        <pt x="175" y="1127" on="0"/>
        <pt x="112" y="1163" on="0"/>
        <pt x="40" y="1177" on="1"/>
        <pt x="40" y="1260" on="1"/>
        <pt x="590" y="1260" on="1"/>
        <pt x="590" y="1177" on="1"/>
        <pt x="522" y="1163" on="0"/>
        <pt x="455" y="1129" on="0"/>
        <pt x="455" y="1115" on="1"/>
        <pt x="455" y="514" on="1"/>
        <pt x="455" y="418" on="0"/>
        <pt x="485" y="272" on="0"/>
        <pt x="554" y="175" on="0"/>
        <pt x="669" y="125" on="0"/>
        <pt x="755" y="125" on="1"/>
        <pt x="826" y="125" on="0"/>
        <pt x="921" y="187" on="0"/>
        <pt x="977" y="292" on="0"/>
        <pt x="1000" y="429" on="0"/>
        <pt x="1000" y="503" on="1"/>
        <pt x="1000" y="1115" on="1"/>
        <pt x="1000" y="1127" on="0"/>
        <pt x="937" y="1163" on="0"/>
        <pt x="865" y="1177" on="1"/>
        <pt x="865" y="1260" on="1"/>
        <pt x="1325" y="1260" on="1"/>
      </contour>
    </TTGlyph>
    <TTGlyph name="Uacute" xMin="40" yMin="-30" xMax="1325" yMax="1779">
      <component glyphName="U" x="0" y="0" flags="0x0"/>
      <component glyphName="acutecomb.LP" x="1240" y="320" flags="0x0"/>
    </TTGlyph>
    <TTGlyph name="Ubreve" xMin="40" yMin="-30" xMax="1325" yMax="1765">
      <component glyphName="U" x="0" y="0" flags="0x0"/>
      <component glyphName="uni0306" x="1212" y="320" flags="0x0"/>
    </TTGlyph>
    <TTGlyph name="Ucircumflex" xMin="40" yMin="-30" xMax="1325" yMax="1751">
      <component glyphName="U" x="0" y="0" flags="0x0"/>
      <component glyphName="uni0302.LP" x="1211" y="320" flags="0x0"/>
    </TTGlyph>
    <TTGlyph name="Udieresis" xMin="40" yMin="-30" xMax="1325" yMax="1680">
      <component glyphName="U" x="0" y="0" flags="0x0"/>
      <component glyphName="uni0308.LP" x="1212" y="320" flags="0x0"/>
    </TTGlyph>
    <TTGlyph name="Ugrave" xMin="40" yMin="-30" xMax="1325" yMax="1779">
      <component glyphName="U" x="0" y="0" flags="0x0"/>
      <component glyphName="gravecomb.LP" x="1130" y="320" flags="0x0"/>
    </TTGlyph>
    <TTGlyph name="Uhorn" xMin="40" yMin="-30" xMax="1530" yMax="1545">
      <contour>
        <pt x="1530" y="1392" on="1"/>
        <pt x="1530" y="1354" on="0"/>
        <pt x="1488" y="1271" on="0"/>
        <pt x="1403" y="1186" on="0"/>
        <pt x="1275" y="1102" on="0"/>
        <pt x="1190" y="1063" on="1"/>
        <pt x="1190" y="524" on="1"/>
        <pt x="1190" y="393" on="0"/>
        <pt x="1113" y="187" on="0"/>
        <pt x="978" y="45" on="0"/>
        <pt x="794" y="-30" on="0"/>
        <pt x="686" y="-30" on="1"/>
        <pt x="583" y="-30" on="0"/>
        <pt x="397" y="27" on="0"/>
        <pt x="257" y="144" on="0"/>
        <pt x="175" y="322" on="0"/>
        <pt x="175" y="444" on="1"/>
        <pt x="175" y="1115" on="1"/>
        <pt x="175" y="1127" on="0"/>
        <pt x="112" y="1163" on="0"/>
        <pt x="40" y="1177" on="1"/>
        <pt x="40" y="1260" on="1"/>
        <pt x="590" y="1260" on="1"/>
        <pt x="590" y="1177" on="1"/>
        <pt x="522" y="1163" on="0"/>
        <pt x="455" y="1129" on="0"/>
        <pt x="455" y="1115" on="1"/>
        <pt x="455" y="514" on="1"/>
        <pt x="455" y="418" on="0"/>
        <pt x="485" y="272" on="0"/>
        <pt x="554" y="175" on="0"/>
        <pt x="669" y="125" on="0"/>
        <pt x="755" y="125" on="1"/>
        <pt x="826" y="125" on="0"/>
        <pt x="921" y="187" on="0"/>
        <pt x="977" y="292" on="0"/>
        <pt x="1000" y="429" on="0"/>
        <pt x="1000" y="503" on="1"/>
        <pt x="1000" y="1115" on="1"/>
        <pt x="1000" y="1127" on="0"/>
        <pt x="937" y="1163" on="0"/>
        <pt x="865" y="1177" on="1"/>
        <pt x="865" y="1260" on="1"/>
        <pt x="1228" y="1260" on="1"/>
        <pt x="1234" y="1274" on="0"/>
        <pt x="1238" y="1300" on="0"/>
        <pt x="1238" y="1311" on="1"/>
        <pt x="1238" y="1340" on="0"/>
        <pt x="1198" y="1392" on="0"/>
        <pt x="1170" y="1415" on="1"/>
        <pt x="1458" y="1545" on="1"/>
        <pt x="1473" y="1534" on="0"/>
        <pt x="1499" y="1501" on="0"/>
        <pt x="1518" y="1460" on="0"/>
        <pt x="1530" y="1414" on="0"/>
      </contour>
    </TTGlyph>
    <TTGlyph name="Uhungarumlaut" xMin="40" yMin="-30" xMax="1325" yMax="1829">
      <component glyphName="U" x="0" y="0" flags="0x0"/>
      <component glyphName="uni030B" x="1197" y="320" flags="0x0"/>
    </TTGlyph>
    <TTGlyph name="Umacron" xMin="40" yMin="-30" xMax="1325" yMax="1629">
      <component glyphName="U" x="0" y="0" flags="0x0"/>
      <component glyphName="uni0304.LP" x="1222" y="320" flags="0x0"/>
    </TTGlyph>
    <TTGlyph name="Uring" xMin="40" yMin="-30" xMax="1325" yMax="1790">
      <component glyphName="U" x="0" y="0" flags="0x0"/>
      <component glyphName="uni030A" x="1212" y="320" flags="0x0"/>
    </TTGlyph>
    <TTGlyph name="Utilde" xMin="40" yMin="-30" xMax="1325" yMax="1700">
      <component glyphName="U" x="0" y="0" flags="0x0"/>
      <component glyphName="tildecomb.LP" x="1242" y="320" flags="0x0"/>
    </TTGlyph>
    <TTGlyph name="V" xMin="10" yMin="-30" xMax="1340" yMax="1260">
      <contour>
        <pt x="1340" y="1177" on="1"/>
        <pt x="1272" y="1164" on="0"/>
        <pt x="1195" y="1139" on="0"/>
        <pt x="1185" y="1111" on="1"/>
        <pt x="812" y="89" on="1"/>
        <pt x="804" y="67" on="0"/>
        <pt x="758" y="29" on="0"/>
        <pt x="697" y="-1" on="0"/>
        <pt x="630" y="-23" on="0"/>
        <pt x="602" y="-30" on="1"/>
        <pt x="142" y="1111" on="1"/>
        <pt x="131" y="1137" on="0"/>
        <pt x="73" y="1169" on="0"/>
        <pt x="10" y="1177" on="1"/>
        <pt x="10" y="1260" on="1"/>
        <pt x="545" y="1260" on="1"/>
        <pt x="545" y="1177" on="1"/>
        <pt x="505" y="1174" on="0"/>
        <pt x="454" y="1164" on="0"/>
        <pt x="427" y="1149" on="0"/>
        <pt x="421" y="1127" on="0"/>
        <pt x="427" y="1113" on="1"/>
        <pt x="742" y="313" on="1"/>
        <pt x="1026" y="1111" on="1"/>
        <pt x="1031" y="1126" on="0"/>
        <pt x="1025" y="1146" on="0"/>
        <pt x="997" y="1161" on="0"/>
        <pt x="945" y="1172" on="0"/>
        <pt x="904" y="1177" on="1"/>
        <pt x="904" y="1260" on="1"/>
        <pt x="1340" y="1260" on="1"/>
      </contour>
    </TTGlyph>
    <TTGlyph name="W" xMin="20" yMin="-30" xMax="1742" yMax="1260">
      <contour>
        <pt x="1742" y="1177" on="1"/>
        <pt x="1698" y="1168" on="0"/>
        <pt x="1640" y="1152" on="0"/>
        <pt x="1606" y="1137" on="0"/>
        <pt x="1591" y="1123" on="0"/>
        <pt x="1590" y="1115" on="1"/>
        <pt x="1361" y="59" on="1"/>
        <pt x="1356" y="38" on="0"/>
        <pt x="1320" y="7" on="0"/>
        <pt x="1274" y="-14" on="0"/>
        <pt x="1227" y="-27" on="0"/>
        <pt x="1212" y="-30" on="1"/>
        <pt x="866" y="854" on="1"/>
        <pt x="579" y="59" on="1"/>
        <pt x="572" y="38" on="0"/>
        <pt x="535" y="8" on="0"/>
        <pt x="488" y="-13" on="0"/>
        <pt x="438" y="-26" on="0"/>
        <pt x="418" y="-30" on="1"/>
        <pt x="158" y="1107" on="1"/>
        <pt x="153" y="1132" on="0"/>
        <pt x="91" y="1164" on="0"/>
        <pt x="20" y="1177" on="1"/>
        <pt x="20" y="1260" on="1"/>
        <pt x="529" y="1260" on="1"/>
        <pt x="529" y="1177" on="1"/>
        <pt x="480" y="1172" on="0"/>
        <pt x="427" y="1157" on="0"/>
        <pt x="403" y="1139" on="0"/>
        <pt x="401" y="1118" on="0"/>
        <pt x="403" y="1107" on="1"/>
        <pt x="565" y="430" on="1"/>
        <pt x="846" y="1260" on="1"/>
        <pt x="961" y="1260" on="1"/>
        <pt x="1290" y="430" on="1"/>
        <pt x="1442" y="1115" on="1"/>
        <pt x="1444" y="1127" on="0"/>
        <pt x="1422" y="1145" on="0"/>
        <pt x="1380" y="1159" on="0"/>
        <pt x="1322" y="1171" on="0"/>
        <pt x="1288" y="1177" on="1"/>
        <pt x="1288" y="1260" on="1"/>
        <pt x="1742" y="1260" on="1"/>
      </contour>
    </TTGlyph>
    <TTGlyph name="Wacute" xMin="20" yMin="-30" xMax="1742" yMax="1779">
      <component glyphName="W" x="0" y="0" flags="0x0"/>
      <component glyphName="acutecomb.LP" x="1424" y="320" flags="0x0"/>
    </TTGlyph>
    <TTGlyph name="Wcircumflex" xMin="20" yMin="-30" xMax="1742" yMax="1751">
      <component glyphName="W" x="0" y="0" flags="0x0"/>
      <component glyphName="uni0302.LP" x="1395" y="320" flags="0x0"/>
    </TTGlyph>
    <TTGlyph name="Wdieresis" xMin="20" yMin="-30" xMax="1742" yMax="1680">
      <component glyphName="W" x="0" y="0" flags="0x0"/>
      <component glyphName="uni0308.LP" x="1396" y="320" flags="0x0"/>
    </TTGlyph>
    <TTGlyph name="Wgrave" xMin="20" yMin="-30" xMax="1742" yMax="1779">
      <component glyphName="W" x="0" y="0" flags="0x0"/>
      <component glyphName="gravecomb.LP" x="1314" y="320" flags="0x0"/>
    </TTGlyph>
    <TTGlyph name="X" xMin="21" yMin="0" xMax="1279" yMax="1260">
      <contour>
        <pt x="718" y="0" on="1"/>
        <pt x="718" y="83" on="1"/>
        <pt x="762" y="87" on="0"/>
        <pt x="816" y="100" on="0"/>
        <pt x="840" y="119" on="0"/>
        <pt x="837" y="147" on="0"/>
        <pt x="823" y="167" on="1"/>
        <pt x="601" y="490" on="1"/>
        <pt x="382" y="167" on="1"/>
        <pt x="367" y="145" on="0"/>
        <pt x="357" y="116" on="0"/>
        <pt x="375" y="97" on="0"/>
        <pt x="425" y="86" on="0"/>
        <pt x="471" y="83" on="1"/>
        <pt x="471" y="0" on="1"/>
        <pt x="21" y="0" on="1"/>
        <pt x="21" y="83" on="1"/>
        <pt x="86" y="88" on="0"/>
        <pt x="176" y="127" on="0"/>
        <pt x="203" y="167" on="1"/>
        <pt x="509" y="623" on="1"/>
        <pt x="187" y="1093" on="1"/>
        <pt x="172" y="1115" on="0"/>
        <pt x="144" y="1143" on="0"/>
        <pt x="109" y="1161" on="0"/>
        <pt x="64" y="1172" on="0"/>
        <pt x="31" y="1177" on="1"/>
        <pt x="31" y="1260" on="1"/>
        <pt x="602" y="1260" on="1"/>
        <pt x="602" y="1177" on="1"/>
        <pt x="517" y="1169" on="0"/>
        <pt x="465" y="1136" on="0"/>
        <pt x="495" y="1093" on="1"/>
        <pt x="689" y="810" on="1"/>
        <pt x="868" y="1093" on="1"/>
        <pt x="882" y="1116" on="0"/>
        <pt x="891" y="1145" on="0"/>
        <pt x="872" y="1164" on="0"/>
        <pt x="822" y="1174" on="0"/>
        <pt x="777" y="1177" on="1"/>
        <pt x="777" y="1260" on="1"/>
        <pt x="1230" y="1260" on="1"/>
        <pt x="1230" y="1177" on="1"/>
        <pt x="1194" y="1173" on="0"/>
        <pt x="1137" y="1161" on="0"/>
        <pt x="1094" y="1142" on="0"/>
        <pt x="1060" y="1114" on="0"/>
        <pt x="1047" y="1093" on="1"/>
        <pt x="780" y="678" on="1"/>
        <pt x="1131" y="167" on="1"/>
        <pt x="1146" y="146" on="0"/>
        <pt x="1174" y="117" on="0"/>
        <pt x="1207" y="98" on="0"/>
        <pt x="1250" y="87" on="0"/>
        <pt x="1279" y="83" on="1"/>
        <pt x="1279" y="0" on="1"/>
      </contour>
    </TTGlyph>
    <TTGlyph name="Y" xMin="0" yMin="0" xMax="1236" yMax="1270">
      <contour>
        <pt x="340" y="0" on="1"/>
        <pt x="340" y="83" on="1"/>
        <pt x="385" y="92" on="0"/>
        <pt x="445" y="112" on="0"/>
        <pt x="480" y="131" on="0"/>
        <pt x="494" y="148" on="0"/>
        <pt x="494" y="155" on="1"/>
        <pt x="494" y="527" on="1"/>
        <pt x="458" y="606" on="0"/>
        <pt x="370" y="774" on="0"/>
        <pt x="280" y="930" on="0"/>
        <pt x="193" y="1064" on="0"/>
        <pt x="158" y="1111" on="1"/>
        <pt x="149" y="1122" on="0"/>
        <pt x="130" y="1139" on="0"/>
        <pt x="98" y="1150" on="0"/>
        <pt x="46" y="1156" on="0"/>
        <pt x="4" y="1156" on="1"/>
        <pt x="0" y="1239" on="1"/>
        <pt x="29" y="1243" on="0"/>
        <pt x="108" y="1254" on="0"/>
        <pt x="188" y="1263" on="0"/>
        <pt x="258" y="1270" on="0"/>
        <pt x="279" y="1270" on="1"/>
        <pt x="308" y="1270" on="0"/>
        <pt x="370" y="1244" on="0"/>
        <pt x="387" y="1221" on="1"/>
        <pt x="424" y="1171" on="0"/>
        <pt x="504" y="1043" on="0"/>
        <pt x="585" y="901" on="0"/>
        <pt x="664" y="750" on="0"/>
        <pt x="699" y="678" on="1"/>
        <pt x="921" y="1111" on="1"/>
        <pt x="936" y="1137" on="0"/>
        <pt x="887" y="1167" on="0"/>
        <pt x="810" y="1177" on="1"/>
        <pt x="810" y="1260" on="1"/>
        <pt x="1236" y="1260" on="1"/>
        <pt x="1236" y="1177" on="1"/>
        <pt x="1202" y="1171" on="0"/>
        <pt x="1153" y="1158" on="0"/>
        <pt x="1119" y="1143" on="0"/>
        <pt x="1097" y="1124" on="0"/>
        <pt x="1090" y="1111" on="1"/>
        <pt x="774" y="515" on="1"/>
        <pt x="774" y="155" on="1"/>
        <pt x="774" y="149" on="0"/>
        <pt x="788" y="132" on="0"/>
        <pt x="823" y="112" on="0"/>
        <pt x="883" y="92" on="0"/>
        <pt x="930" y="83" on="1"/>
        <pt x="930" y="0" on="1"/>
      </contour>
    </TTGlyph>
    <TTGlyph name="Yacute" xMin="0" yMin="0" xMax="1236" yMax="1779">
      <component glyphName="Y" x="0" y="0" flags="0x0"/>
      <component glyphName="acutecomb.LP" x="1177" y="320" flags="0x0"/>
    </TTGlyph>
    <TTGlyph name="Ycircumflex" xMin="0" yMin="0" xMax="1236" yMax="1751">
      <component glyphName="Y" x="0" y="0" flags="0x0"/>
      <component glyphName="uni0302.LP" x="1148" y="320" flags="0x0"/>
    </TTGlyph>
    <TTGlyph name="Ydieresis" xMin="0" yMin="0" xMax="1236" yMax="1680">
      <component glyphName="Y" x="0" y="0" flags="0x0"/>
      <component glyphName="uni0308.LP" x="1149" y="320" flags="0x0"/>
    </TTGlyph>
    <TTGlyph name="Ygrave" xMin="0" yMin="0" xMax="1236" yMax="1779">
      <component glyphName="Y" x="0" y="0" flags="0x0"/>
      <component glyphName="gravecomb.LP" x="1067" y="320" flags="0x0"/>
    </TTGlyph>
    <TTGlyph name="Z" xMin="49" yMin="0" xMax="1061" yMax="1276">
      <contour>
        <pt x="1061" y="373" on="1"/>
        <pt x="1059" y="341" on="0"/>
        <pt x="1056" y="238" on="0"/>
        <pt x="1053" y="129" on="0"/>
        <pt x="1050" y="29" on="0"/>
        <pt x="1049" y="0" on="1"/>
        <pt x="88" y="0" on="1"/>
        <pt x="49" y="55" on="1"/>
        <pt x="710" y="1120" on="1"/>
        <pt x="341" y="1120" on="1"/>
        <pt x="325" y="1120" on="0"/>
        <pt x="284" y="1082" on="0"/>
        <pt x="244" y="1015" on="0"/>
        <pt x="209" y="925" on="0"/>
        <pt x="198" y="873" on="1"/>
        <pt x="101" y="895" on="1"/>
        <pt x="140" y="1276" on="1"/>
        <pt x="167" y="1270" on="0"/>
        <pt x="212" y="1263" on="0"/>
        <pt x="255" y="1260" on="0"/>
        <pt x="278" y="1260" on="1"/>
        <pt x="1016" y="1260" on="1"/>
        <pt x="1051" y="1207" on="1"/>
        <pt x="396" y="140" on="1"/>
        <pt x="829" y="140" on="1"/>
        <pt x="850" y="140" on="0"/>
        <pt x="884" y="174" on="0"/>
        <pt x="915" y="240" on="0"/>
        <pt x="947" y="335" on="0"/>
        <pt x="966" y="397" on="1"/>
      </contour>
    </TTGlyph>
    <TTGlyph name="Zacute" xMin="49" yMin="0" xMax="1061" yMax="1779">
      <component glyphName="Z" x="0" y="0" flags="0x0"/>
      <component glyphName="acutecomb.LP" x="1130" y="320" flags="0x0"/>
    </TTGlyph>
    <TTGlyph name="Zcaron" xMin="49" yMin="0" xMax="1061" yMax="1785">
      <component glyphName="Z" x="0" y="0" flags="0x0"/>
      <component glyphName="uni030C.LP" x="1101" y="320" flags="0x0"/>
    </TTGlyph>
    <TTGlyph name="Zdotaccent" xMin="49" yMin="0" xMax="1061" yMax="1680">
      <component glyphName="Z" x="0" y="0" flags="0x0"/>
      <component glyphName="uni0307.LP" x="1102" y="320" flags="0x0"/>
    </TTGlyph>
    <TTGlyph name="a" xMin="60" yMin="-30" xMax="1046" yMax="960">
      <contour>
        <pt x="432" y="160" on="1"/>
        <pt x="447" y="160" on="0"/>
        <pt x="483" y="166" on="0"/>
        <pt x="528" y="187" on="0"/>
        <pt x="586" y="225" on="0"/>
        <pt x="623" y="257" on="1"/>
        <pt x="623" y="466" on="1"/>
        <pt x="570" y="457" on="0"/>
        <pt x="497" y="441" on="0"/>
        <pt x="447" y="424" on="0"/>
        <pt x="414" y="404" on="0"/>
        <pt x="402" y="392" on="1"/>
        <pt x="376" y="366" on="0"/>
        <pt x="344" y="310" on="0"/>
        <pt x="344" y="269" on="1"/>
        <pt x="344" y="237" on="0"/>
        <pt x="362" y="195" on="0"/>
        <pt x="388" y="170" on="0"/>
        <pt x="419" y="160" on="0"/>
      </contour>
      <contour>
        <pt x="1046" y="122" on="1"/>
        <pt x="1004" y="93" on="0"/>
        <pt x="907" y="38" on="0"/>
        <pt x="816" y="-4" on="0"/>
        <pt x="742" y="-30" on="0"/>
        <pt x="722" y="-30" on="1"/>
        <pt x="684" y="-30" on="0"/>
        <pt x="630" y="53" on="0"/>
        <pt x="624" y="125" on="1"/>
        <pt x="579" y="80" on="0"/>
        <pt x="488" y="20" on="0"/>
        <pt x="403" y="-16" on="0"/>
        <pt x="325" y="-30" on="0"/>
        <pt x="293" y="-30" on="1"/>
        <pt x="249" y="-30" on="0"/>
        <pt x="166" y="0" on="0"/>
        <pt x="100" y="60" on="0"/>
        <pt x="60" y="148" on="0"/>
        <pt x="60" y="206" on="1"/>
        <pt x="60" y="271" on="0"/>
        <pt x="108" y="364" on="0"/>
        <pt x="145" y="401" on="1"/>
        <pt x="169" y="425" on="0"/>
        <pt x="232" y="470" on="0"/>
        <pt x="338" y="512" on="0"/>
        <pt x="500" y="552" on="0"/>
        <pt x="623" y="571" on="1"/>
        <pt x="623" y="682" on="1"/>
        <pt x="623" y="712" on="0"/>
        <pt x="612" y="763" on="0"/>
        <pt x="585" y="799" on="0"/>
        <pt x="539" y="820" on="0"/>
        <pt x="505" y="820" on="1"/>
        <pt x="484" y="820" on="0"/>
        <pt x="441" y="803" on="0"/>
        <pt x="408" y="771" on="0"/>
        <pt x="389" y="724" on="0"/>
        <pt x="392" y="694" on="1"/>
        <pt x="393" y="688" on="0"/>
        <pt x="355" y="669" on="0"/>
        <pt x="296" y="648" on="0"/>
        <pt x="225" y="628" on="0"/>
        <pt x="160" y="613" on="0"/>
        <pt x="110" y="605" on="0"/>
        <pt x="102" y="607" on="1"/>
        <pt x="78" y="666" on="1"/>
        <pt x="103" y="729" on="0"/>
        <pt x="209" y="836" on="0"/>
        <pt x="353" y="915" on="0"/>
        <pt x="524" y="960" on="0"/>
        <pt x="614" y="960" on="1"/>
        <pt x="687" y="960" on="0"/>
        <pt x="793" y="921" on="0"/>
        <pt x="861" y="854" on="0"/>
        <pt x="893" y="763" on="0"/>
        <pt x="893" y="712" on="1"/>
        <pt x="893" y="258" on="1"/>
        <pt x="893" y="216" on="0"/>
        <pt x="915" y="180" on="0"/>
        <pt x="933" y="180" on="1"/>
        <pt x="940" y="180" on="0"/>
        <pt x="954" y="182" on="0"/>
        <pt x="974" y="188" on="0"/>
        <pt x="1001" y="199" on="0"/>
        <pt x="1021" y="207" on="1"/>
      </contour>
    </TTGlyph>
    <TTGlyph name="a.SngStory" xMin="60" yMin="-30" xMax="1121" yMax="960">
      <contour>
        <pt x="1121" y="125" on="1"/>
        <pt x="1077" y="96" on="0"/>
        <pt x="979" y="40" on="0"/>
        <pt x="889" y="-4" on="0"/>
        <pt x="816" y="-30" on="0"/>
        <pt x="798" y="-30" on="1"/>
        <pt x="760" y="-30" on="0"/>
        <pt x="712" y="41" on="0"/>
        <pt x="702" y="126" on="1"/>
        <pt x="658" y="82" on="0"/>
        <pt x="583" y="22" on="0"/>
        <pt x="512" y="-14" on="0"/>
        <pt x="443" y="-30" on="0"/>
        <pt x="405" y="-30" on="1"/>
        <pt x="339" y="-30" on="0"/>
        <pt x="214" y="30" on="0"/>
        <pt x="118" y="149" on="0"/>
        <pt x="60" y="324" on="0"/>
        <pt x="60" y="439" on="1"/>
        <pt x="60" y="529" on="0"/>
        <pt x="124" y="714" on="0"/>
        <pt x="247" y="865" on="0"/>
        <pt x="425" y="960" on="0"/>
        <pt x="540" y="960" on="1"/>
        <pt x="599" y="960" on="0"/>
        <pt x="704" y="915" on="0"/>
        <pt x="757" y="853" on="1"/>
        <pt x="802" y="873" on="0"/>
        <pt x="905" y="928" on="0"/>
        <pt x="950" y="960" on="1"/>
        <pt x="994" y="920" on="1"/>
        <pt x="985" y="883" on="0"/>
        <pt x="979" y="843" on="1"/>
        <pt x="974" y="809" on="0"/>
        <pt x="965" y="725" on="0"/>
        <pt x="965" y="683" on="1"/>
        <pt x="965" y="334" on="1"/>
        <pt x="965" y="274" on="0"/>
        <pt x="971" y="198" on="0"/>
        <pt x="982" y="189" on="1"/>
        <pt x="993" y="179" on="0"/>
        <pt x="1037" y="184" on="0"/>
        <pt x="1087" y="207" on="1"/>
        <pt x="1087" y="208" on="0"/>
        <pt x="1097" y="183" on="0"/>
        <pt x="1104" y="167" on="1"/>
        <pt x="1111" y="149" on="0"/>
      </contour>
      <contour>
        <pt x="695" y="271" on="1"/>
        <pt x="695" y="698" on="1"/>
        <pt x="684" y="725" on="0"/>
        <pt x="647" y="770" on="0"/>
        <pt x="603" y="802" on="0"/>
        <pt x="554" y="820" on="0"/>
        <pt x="530" y="820" on="1"/>
        <pt x="496" y="820" on="0"/>
        <pt x="425" y="793" on="0"/>
        <pt x="367" y="724" on="0"/>
        <pt x="330" y="604" on="0"/>
        <pt x="330" y="510" on="1"/>
        <pt x="330" y="425" on="0"/>
        <pt x="363" y="300" on="0"/>
        <pt x="416" y="219" on="0"/>
        <pt x="483" y="180" on="0"/>
        <pt x="517" y="180" on="1"/>
        <pt x="535" y="180" on="0"/>
        <pt x="569" y="185" on="0"/>
        <pt x="609" y="204" on="0"/>
        <pt x="660" y="240" on="0"/>
      </contour>
    </TTGlyph>
    <TTGlyph name="aacute" xMin="60" yMin="-30" xMax="1046" yMax="1519">
      <component glyphName="a" x="0" y="0" flags="0x0"/>
      <component glyphName="acutecomb" x="1066" y="0" flags="0x0"/>
    </TTGlyph>
    <TTGlyph name="aacute.SngStory" xMin="60" yMin="-30" xMax="1121" yMax="1519">
      <component glyphName="a.SngStory" x="0" y="0" flags="0x0"/>
      <component glyphName="acutecomb" x="1130" y="0" flags="0x0"/>
    </TTGlyph>
    <TTGlyph name="abreve" xMin="60" yMin="-30" xMax="1046" yMax="1445">
      <component glyphName="a" x="0" y="0" flags="0x0"/>
      <component glyphName="uni0306" x="1041" y="0" flags="0x0"/>
    </TTGlyph>
    <TTGlyph name="abreve.SngStory" xMin="60" yMin="-30" xMax="1121" yMax="1445">
      <component glyphName="a.SngStory" x="0" y="0" flags="0x0"/>
      <component glyphName="uni0306" x="1105" y="0" flags="0x0"/>
    </TTGlyph>
    <TTGlyph name="acircumflex" xMin="60" yMin="-30" xMax="1046" yMax="1501">
      <component glyphName="a" x="0" y="0" flags="0x0"/>
      <component glyphName="uni0302" x="1041" y="0" flags="0x0"/>
    </TTGlyph>
    <TTGlyph name="acircumflex.SngStory" xMin="60" yMin="-30" xMax="1121" yMax="1501">
      <component glyphName="a.SngStory" x="0" y="0" flags="0x0"/>
      <component glyphName="uni0302" x="1105" y="0" flags="0x0"/>
    </TTGlyph>
    <TTGlyph name="acute" xMin="197" yMin="1037" xMax="689" yMax="1519">
      <contour>
        <pt x="294" y="1037" on="1"/>
        <pt x="285" y="1038" on="0"/>
        <pt x="257" y="1050" on="0"/>
        <pt x="228" y="1065" on="0"/>
        <pt x="203" y="1080" on="0"/>
        <pt x="197" y="1085" on="1"/>
        <pt x="401" y="1519" on="1"/>
        <pt x="409" y="1518" on="0"/>
        <pt x="448" y="1513" on="0"/>
        <pt x="500" y="1505" on="0"/>
        <pt x="558" y="1495" on="0"/>
        <pt x="609" y="1486" on="0"/>
        <pt x="649" y="1478" on="0"/>
        <pt x="656" y="1476" on="1"/>
        <pt x="689" y="1417" on="1"/>
      </contour>
    </TTGlyph>
    <TTGlyph name="acutecomb" xMin="-703" yMin="1037" xMax="-211" yMax="1519">
      <contour>
        <pt x="-606" y="1037" on="1"/>
        <pt x="-615" y="1038" on="0"/>
        <pt x="-643" y="1050" on="0"/>
        <pt x="-672" y="1065" on="0"/>
        <pt x="-697" y="1080" on="0"/>
        <pt x="-703" y="1085" on="1"/>
        <pt x="-499" y="1519" on="1"/>
        <pt x="-491" y="1518" on="0"/>
        <pt x="-452" y="1513" on="0"/>
        <pt x="-400" y="1505" on="0"/>
        <pt x="-342" y="1495" on="0"/>
        <pt x="-291" y="1486" on="0"/>
        <pt x="-251" y="1478" on="0"/>
        <pt x="-244" y="1476" on="1"/>
        <pt x="-211" y="1417" on="1"/>
      </contour>
    </TTGlyph>
    <TTGlyph name="acutecomb.LP" xMin="-750" yMin="1037" xMax="-186" yMax="1459">
      <contour>
        <pt x="-675" y="1037" on="1"/>
        <pt x="-684" y="1041" on="0"/>
        <pt x="-704" y="1058" on="0"/>
        <pt x="-725" y="1080" on="0"/>
        <pt x="-743" y="1103" on="0"/>
        <pt x="-750" y="1112" on="1"/>
        <pt x="-393" y="1459" on="1"/>
        <pt x="-366" y="1445" on="0"/>
        <pt x="-303" y="1408" on="0"/>
        <pt x="-246" y="1373" on="0"/>
        <pt x="-203" y="1343" on="0"/>
        <pt x="-195" y="1335" on="1"/>
        <pt x="-186" y="1280" on="1"/>
      </contour>
    </TTGlyph>
    <TTGlyph name="adieresis" xMin="60" yMin="-30" xMax="1046" yMax="1400">
      <component glyphName="a" x="0" y="0" flags="0x0"/>
      <component glyphName="uni0308" x="1041" y="0" flags="0x0"/>
    </TTGlyph>
    <TTGlyph name="adieresis.SngStory" xMin="60" yMin="-30" xMax="1121" yMax="1400">
      <component glyphName="a.SngStory" x="0" y="0" flags="0x0"/>
      <component glyphName="uni0308" x="1105" y="0" flags="0x0"/>
    </TTGlyph>
    <TTGlyph name="ae" xMin="60" yMin="-30" xMax="1469" yMax="960">
      <contour>
        <pt x="1068" y="840" on="1"/>
        <pt x="1044" y="840" on="0"/>
        <pt x="990" y="824" on="0"/>
        <pt x="940" y="770" on="0"/>
        <pt x="900" y="667" on="0"/>
        <pt x="891" y="580" on="1"/>
        <pt x="1185" y="580" on="1"/>
        <pt x="1206" y="580" on="0"/>
        <pt x="1223" y="595" on="0"/>
        <pt x="1223" y="616" on="1"/>
        <pt x="1223" y="671" on="0"/>
        <pt x="1198" y="755" on="0"/>
        <pt x="1156" y="811" on="0"/>
        <pt x="1100" y="840" on="0"/>
      </contour>
      <contour>
        <pt x="648" y="271" on="1"/>
        <pt x="642" y="293" on="0"/>
        <pt x="635" y="340" on="0"/>
        <pt x="635" y="365" on="1"/>
        <pt x="635" y="456" on="1"/>
        <pt x="599" y="454" on="0"/>
        <pt x="535" y="452" on="0"/>
        <pt x="526" y="450" on="1"/>
        <pt x="467" y="438" on="0"/>
        <pt x="392" y="397" on="0"/>
        <pt x="350" y="349" on="0"/>
        <pt x="334" y="295" on="0"/>
        <pt x="334" y="269" on="1"/>
        <pt x="334" y="240" on="0"/>
        <pt x="352" y="199" on="0"/>
        <pt x="380" y="173" on="0"/>
        <pt x="415" y="160" on="0"/>
        <pt x="432" y="160" on="1"/>
        <pt x="477" y="160" on="0"/>
        <pt x="584" y="205" on="0"/>
      </contour>
      <contour>
        <pt x="1469" y="547" on="1"/>
        <pt x="1459" y="537" on="0"/>
        <pt x="1425" y="512" on="0"/>
        <pt x="1384" y="488" on="0"/>
        <pt x="1343" y="466" on="0"/>
        <pt x="1327" y="460" on="1"/>
        <pt x="885" y="460" on="1"/>
        <pt x="885" y="448" on="1"/>
        <pt x="885" y="405" on="0"/>
        <pt x="914" y="302" on="0"/>
        <pt x="972" y="212" on="0"/>
        <pt x="1061" y="152" on="0"/>
        <pt x="1120" y="152" on="1"/>
        <pt x="1151" y="152" on="0"/>
        <pt x="1214" y="164" on="0"/>
        <pt x="1282" y="191" on="0"/>
        <pt x="1359" y="235" on="0"/>
        <pt x="1404" y="266" on="1"/>
        <pt x="1410" y="263" on="0"/>
        <pt x="1428" y="242" on="0"/>
        <pt x="1445" y="219" on="0"/>
        <pt x="1459" y="199" on="0"/>
        <pt x="1461" y="195" on="1"/>
        <pt x="1401" y="131" on="0"/>
        <pt x="1299" y="45" on="0"/>
        <pt x="1199" y="-8" on="0"/>
        <pt x="1092" y="-30" on="0"/>
        <pt x="1026" y="-30" on="1"/>
        <pt x="984" y="-30" on="0"/>
        <pt x="890" y="-1" on="0"/>
        <pt x="799" y="53" on="0"/>
        <pt x="717" y="131" on="0"/>
        <pt x="687" y="181" on="1"/>
        <pt x="595" y="67" on="0"/>
        <pt x="396" y="-30" on="0"/>
        <pt x="293" y="-30" on="1"/>
        <pt x="257" y="-30" on="0"/>
        <pt x="175" y="-5" on="0"/>
        <pt x="106" y="50" on="0"/>
        <pt x="60" y="140" on="0"/>
        <pt x="60" y="206" on="1"/>
        <pt x="60" y="265" on="0"/>
        <pt x="104" y="373" on="0"/>
        <pt x="199" y="464" on="0"/>
        <pt x="348" y="536" on="0"/>
        <pt x="453" y="560" on="1"/>
        <pt x="466" y="563" on="0"/>
        <pt x="506" y="568" on="0"/>
        <pt x="554" y="572" on="0"/>
        <pt x="608" y="575" on="0"/>
        <pt x="635" y="576" on="1"/>
        <pt x="635" y="652" on="1"/>
        <pt x="635" y="698" on="0"/>
        <pt x="618" y="763" on="0"/>
        <pt x="587" y="802" on="0"/>
        <pt x="544" y="820" on="0"/>
        <pt x="517" y="820" on="1"/>
        <pt x="493" y="820" on="0"/>
        <pt x="441" y="804" on="0"/>
        <pt x="400" y="772" on="0"/>
        <pt x="379" y="726" on="0"/>
        <pt x="386" y="696" on="1"/>
        <pt x="387" y="689" on="0"/>
        <pt x="351" y="670" on="0"/>
        <pt x="294" y="649" on="0"/>
        <pt x="224" y="629" on="0"/>
        <pt x="160" y="614" on="0"/>
        <pt x="110" y="607" on="0"/>
        <pt x="102" y="609" on="1"/>
        <pt x="78" y="665" on="1"/>
        <pt x="103" y="722" on="0"/>
        <pt x="181" y="810" on="0"/>
        <pt x="275" y="876" on="0"/>
        <pt x="379" y="920" on="0"/>
        <pt x="479" y="948" on="0"/>
        <pt x="571" y="960" on="0"/>
        <pt x="605" y="960" on="1"/>
        <pt x="676" y="960" on="0"/>
        <pt x="788" y="919" on="0"/>
        <pt x="826" y="869" on="1"/>
        <pt x="892" y="919" on="0"/>
        <pt x="1036" y="960" on="0"/>
        <pt x="1097" y="960" on="1"/>
        <pt x="1185" y="960" on="0"/>
        <pt x="1323" y="893" on="0"/>
        <pt x="1419" y="779" on="0"/>
        <pt x="1469" y="629" on="0"/>
      </contour>
    </TTGlyph>
    <TTGlyph name="aeacute" xMin="60" yMin="-30" xMax="1469" yMax="1519">
      <component glyphName="ae" x="0" y="0" flags="0x0"/>
      <component glyphName="acutecomb" x="1337" y="0" flags="0x0"/>
    </TTGlyph>
    <TTGlyph name="agrave" xMin="60" yMin="-30" xMax="1046" yMax="1519">
      <component glyphName="a" x="0" y="0" flags="0x0"/>
      <component glyphName="gravecomb" x="961" y="0" flags="0x0"/>
    </TTGlyph>
    <TTGlyph name="agrave.SngStory" xMin="60" yMin="-30" xMax="1121" yMax="1519">
      <component glyphName="a.SngStory" x="0" y="0" flags="0x0"/>
      <component glyphName="gravecomb" x="1025" y="0" flags="0x0"/>
    </TTGlyph>
    <TTGlyph name="amacron" xMin="60" yMin="-30" xMax="1046" yMax="1349">
      <component glyphName="a" x="0" y="0" flags="0x0"/>
      <component glyphName="uni0304" x="1051" y="0" flags="0x0"/>
    </TTGlyph>
    <TTGlyph name="amacron.SngStory" xMin="60" yMin="-30" xMax="1121" yMax="1349">
      <component glyphName="a.SngStory" x="0" y="0" flags="0x0"/>
      <component glyphName="uni0304" x="1115" y="0" flags="0x0"/>
    </TTGlyph>
    <TTGlyph name="ampersand" xMin="60" yMin="-30" xMax="1436" yMax="1450">
      <contour>
        <pt x="514" y="1130" on="1"/>
        <pt x="514" y="1079" on="0"/>
        <pt x="541" y="973" on="0"/>
        <pt x="565" y="916" on="1"/>
        <pt x="605" y="942" on="0"/>
        <pt x="661" y="1005" on="0"/>
        <pt x="694" y="1072" on="0"/>
        <pt x="709" y="1140" on="0"/>
        <pt x="709" y="1171" on="1"/>
        <pt x="709" y="1206" on="0"/>
        <pt x="691" y="1259" on="0"/>
        <pt x="663" y="1295" on="0"/>
        <pt x="627" y="1313" on="0"/>
        <pt x="608" y="1313" on="1"/>
        <pt x="583" y="1313" on="0"/>
        <pt x="548" y="1285" on="0"/>
        <pt x="525" y="1236" on="0"/>
        <pt x="514" y="1169" on="0"/>
      </contour>
      <contour>
        <pt x="588" y="124" on="1"/>
        <pt x="636" y="124" on="0"/>
        <pt x="728" y="152" on="0"/>
        <pt x="771" y="176" on="1"/>
        <pt x="726" y="219" on="0"/>
        <pt x="633" y="317" on="0"/>
        <pt x="542" y="426" on="0"/>
        <pt x="456" y="542" on="0"/>
        <pt x="419" y="603" on="1"/>
        <pt x="380" y="547" on="0"/>
        <pt x="352" y="436" on="0"/>
        <pt x="352" y="373" on="1"/>
        <pt x="352" y="303" on="0"/>
        <pt x="395" y="208" on="0"/>
        <pt x="463" y="149" on="0"/>
        <pt x="547" y="124" on="0"/>
      </contour>
      <contour>
        <pt x="1436" y="748" on="1"/>
        <pt x="1424" y="733" on="0"/>
        <pt x="1393" y="692" on="0"/>
        <pt x="1360" y="652" on="0"/>
        <pt x="1329" y="618" on="0"/>
        <pt x="1317" y="609" on="1"/>
        <pt x="1280" y="626" on="0"/>
        <pt x="1199" y="658" on="0"/>
        <pt x="1165" y="660" on="1"/>
        <pt x="1186" y="634" on="0"/>
        <pt x="1198" y="573" on="0"/>
        <pt x="1198" y="543" on="1"/>
        <pt x="1198" y="477" on="0"/>
        <pt x="1138" y="332" on="0"/>
        <pt x="1084" y="261" on="1"/>
        <pt x="1116" y="232" on="0"/>
        <pt x="1148" y="206" on="1"/>
        <pt x="1204" y="159" on="0"/>
        <pt x="1322" y="137" on="0"/>
        <pt x="1370" y="148" on="1"/>
        <pt x="1389" y="65" on="1"/>
        <pt x="1346" y="46" on="0"/>
        <pt x="1244" y="11" on="0"/>
        <pt x="1152" y="-15" on="0"/>
        <pt x="1082" y="-30" on="0"/>
        <pt x="1071" y="-30" on="1"/>
        <pt x="1045" y="-30" on="0"/>
        <pt x="946" y="27" on="0"/>
        <pt x="882" y="79" on="1"/>
        <pt x="803" y="29" on="0"/>
        <pt x="619" y="-30" on="0"/>
        <pt x="518" y="-30" on="1"/>
        <pt x="409" y="-30" on="0"/>
        <pt x="238" y="19" on="0"/>
        <pt x="121" y="115" on="0"/>
        <pt x="60" y="258" on="0"/>
        <pt x="60" y="352" on="1"/>
        <pt x="60" y="455" on="0"/>
        <pt x="188" y="661" on="0"/>
        <pt x="331" y="768" on="1"/>
        <pt x="296" y="846" on="0"/>
        <pt x="257" y="999" on="0"/>
        <pt x="257" y="1073" on="1"/>
        <pt x="257" y="1154" on="0"/>
        <pt x="322" y="1292" on="0"/>
        <pt x="434" y="1393" on="0"/>
        <pt x="585" y="1450" on="0"/>
        <pt x="671" y="1450" on="1"/>
        <pt x="751" y="1450" on="0"/>
        <pt x="867" y="1409" on="0"/>
        <pt x="942" y="1341" on="0"/>
        <pt x="978" y="1252" on="0"/>
        <pt x="978" y="1204" on="1"/>
        <pt x="978" y="1152" on="0"/>
        <pt x="919" y="1041" on="0"/>
        <pt x="825" y="935" on="0"/>
        <pt x="707" y="839" on="0"/>
        <pt x="648" y="802" on="1"/>
        <pt x="631" y="791" on="1"/>
        <pt x="664" y="736" on="0"/>
        <pt x="742" y="627" on="0"/>
        <pt x="828" y="522" on="0"/>
        <pt x="919" y="422" on="0"/>
        <pt x="964" y="376" on="1"/>
        <pt x="980" y="408" on="0"/>
        <pt x="997" y="471" on="0"/>
        <pt x="997" y="502" on="1"/>
        <pt x="997" y="544" on="0"/>
        <pt x="972" y="609" on="0"/>
        <pt x="930" y="652" on="0"/>
        <pt x="876" y="675" on="0"/>
        <pt x="847" y="675" on="1"/>
        <pt x="815" y="713" on="1"/>
        <pt x="820" y="719" on="0"/>
        <pt x="843" y="743" on="0"/>
        <pt x="871" y="769" on="0"/>
        <pt x="899" y="790" on="0"/>
        <pt x="909" y="794" on="1"/>
        <pt x="1403" y="794" on="1"/>
      </contour>
    </TTGlyph>
    <TTGlyph name="approxequal" xMin="50" yMin="270" xMax="890" yMax="853">
      <contour>
        <pt x="890" y="455" on="1"/>
        <pt x="865" y="414" on="0"/>
        <pt x="800" y="347" on="0"/>
        <pt x="728" y="299" on="0"/>
        <pt x="653" y="273" on="0"/>
        <pt x="618" y="273" on="1"/>
        <pt x="576" y="273" on="0"/>
        <pt x="493" y="304" on="0"/>
        <pt x="411" y="340" on="0"/>
        <pt x="329" y="371" on="0"/>
        <pt x="289" y="371" on="1"/>
        <pt x="242" y="371" on="0"/>
        <pt x="167" y="318" on="0"/>
        <pt x="123" y="270" on="1"/>
        <pt x="50" y="355" on="1"/>
        <pt x="75" y="396" on="0"/>
        <pt x="137" y="463" on="0"/>
        <pt x="205" y="511" on="0"/>
        <pt x="277" y="538" on="0"/>
        <pt x="312" y="538" on="1"/>
        <pt x="357" y="538" on="0"/>
        <pt x="447" y="507" on="0"/>
        <pt x="531" y="471" on="0"/>
        <pt x="607" y="440" on="0"/>
        <pt x="639" y="440" on="1"/>
        <pt x="662" y="440" on="0"/>
        <pt x="709" y="457" on="0"/>
        <pt x="752" y="485" on="0"/>
        <pt x="791" y="522" on="0"/>
        <pt x="806" y="543" on="1"/>
      </contour>
      <contour>
        <pt x="890" y="765" on="1"/>
        <pt x="865" y="724" on="0"/>
        <pt x="800" y="657" on="0"/>
        <pt x="728" y="609" on="0"/>
        <pt x="653" y="583" on="0"/>
        <pt x="618" y="583" on="1"/>
        <pt x="576" y="583" on="0"/>
        <pt x="493" y="614" on="0"/>
        <pt x="411" y="650" on="0"/>
        <pt x="329" y="681" on="0"/>
        <pt x="289" y="681" on="1"/>
        <pt x="242" y="681" on="0"/>
        <pt x="167" y="628" on="0"/>
        <pt x="123" y="580" on="1"/>
        <pt x="50" y="665" on="1"/>
        <pt x="75" y="706" on="0"/>
        <pt x="137" y="773" on="0"/>
        <pt x="205" y="821" on="0"/>
        <pt x="277" y="848" on="0"/>
        <pt x="312" y="848" on="1"/>
        <pt x="357" y="848" on="0"/>
        <pt x="447" y="817" on="0"/>
        <pt x="531" y="781" on="0"/>
        <pt x="607" y="750" on="0"/>
        <pt x="639" y="750" on="1"/>
        <pt x="662" y="750" on="0"/>
        <pt x="709" y="767" on="0"/>
        <pt x="752" y="795" on="0"/>
        <pt x="791" y="832" on="0"/>
        <pt x="806" y="853" on="1"/>
      </contour>
    </TTGlyph>
    <TTGlyph name="aring" xMin="60" yMin="-30" xMax="1046" yMax="1470">
      <component glyphName="a" x="0" y="0" flags="0x0"/>
      <component glyphName="uni030A" x="1041" y="0" flags="0x0"/>
    </TTGlyph>
    <TTGlyph name="aring.SngStory" xMin="60" yMin="-30" xMax="1121" yMax="1470">
      <component glyphName="a.SngStory" x="0" y="0" flags="0x0"/>
      <component glyphName="uni030A" x="1105" y="0" flags="0x0"/>
    </TTGlyph>
    <TTGlyph name="aringacute" xMin="60" yMin="-30" xMax="1046" yMax="1959">
      <component glyphName="a" x="0" y="0" flags="0x0"/>
      <component glyphName="uni030A" x="1041" y="0" flags="0x0"/>
      <component glyphName="acutecomb" x="1066" y="440" flags="0x0"/>
    </TTGlyph>
    <TTGlyph name="aringacute.SngStory" xMin="60" yMin="-30" xMax="1121" yMax="1959">
      <component glyphName="a.SngStory" x="0" y="0" flags="0x0"/>
      <component glyphName="uni030A" x="1105" y="0" flags="0x0"/>
      <component glyphName="acutecomb" x="1130" y="440" flags="0x0"/>
    </TTGlyph>
    <TTGlyph name="asciicircum" xMin="100" yMin="565" xMax="907" yMax="1550">
      <contour>
        <pt x="907" y="635" on="1"/>
        <pt x="882" y="612" on="0"/>
        <pt x="835" y="581" on="0"/>
        <pt x="801" y="565" on="1"/>
        <pt x="764" y="592" on="1"/>
        <pt x="481" y="1315" on="1"/>
        <pt x="231" y="635" on="1"/>
        <pt x="220" y="625" on="0"/>
        <pt x="192" y="604" on="0"/>
        <pt x="162" y="585" on="0"/>
        <pt x="133" y="570" on="0"/>
        <pt x="123" y="565" on="1"/>
        <pt x="100" y="592" on="1"/>
        <pt x="422" y="1462" on="1"/>
        <pt x="434" y="1474" on="0"/>
        <pt x="469" y="1499" on="0"/>
        <pt x="505" y="1523" on="0"/>
        <pt x="541" y="1543" on="0"/>
        <pt x="555" y="1550" on="1"/>
      </contour>
    </TTGlyph>
    <TTGlyph name="asciitilde" xMin="49" yMin="475" xMax="950" yMax="799">
      <contour>
        <pt x="950" y="774" on="1"/>
        <pt x="929" y="725" on="0"/>
        <pt x="865" y="620" on="0"/>
        <pt x="786" y="533" on="0"/>
        <pt x="695" y="477" on="0"/>
        <pt x="647" y="477" on="1"/>
        <pt x="605" y="477" on="0"/>
        <pt x="511" y="527" on="0"/>
        <pt x="414" y="587" on="0"/>
        <pt x="319" y="637" on="0"/>
        <pt x="276" y="637" on="1"/>
        <pt x="227" y="637" on="0"/>
        <pt x="144" y="559" on="0"/>
        <pt x="102" y="475" on="1"/>
        <pt x="49" y="502" on="1"/>
        <pt x="70" y="551" on="0"/>
        <pt x="135" y="656" on="0"/>
        <pt x="214" y="743" on="0"/>
        <pt x="304" y="799" on="0"/>
        <pt x="352" y="799" on="1"/>
        <pt x="398" y="799" on="0"/>
        <pt x="495" y="749" on="0"/>
        <pt x="590" y="689" on="0"/>
        <pt x="681" y="639" on="0"/>
        <pt x="721" y="639" on="1"/>
        <pt x="769" y="639" on="0"/>
        <pt x="855" y="717" on="0"/>
        <pt x="897" y="799" on="1"/>
      </contour>
    </TTGlyph>
    <TTGlyph name="asterisk" xMin="50" yMin="707" xMax="854" yMax="1561">
      <contour>
        <pt x="505" y="1230" on="1"/>
        <pt x="707" y="1410" on="1"/>
        <pt x="717" y="1404" on="0"/>
        <pt x="760" y="1371" on="0"/>
        <pt x="806" y="1334" on="0"/>
        <pt x="846" y="1299" on="0"/>
        <pt x="854" y="1291" on="1"/>
        <pt x="842" y="1231" on="1"/>
        <pt x="563" y="1136" on="1"/>
        <pt x="819" y="1051" on="1"/>
        <pt x="818" y="1039" on="0"/>
        <pt x="811" y="986" on="0"/>
        <pt x="802" y="927" on="0"/>
        <pt x="792" y="875" on="0"/>
        <pt x="789" y="864" on="1"/>
        <pt x="731" y="845" on="1"/>
        <pt x="510" y="1038" on="1"/>
        <pt x="564" y="775" on="1"/>
        <pt x="553" y="769" on="0"/>
        <pt x="528" y="759" on="1"/>
        <pt x="475" y="738" on="1"/>
        <pt x="448" y="727" on="0"/>
        <pt x="398" y="710" on="0"/>
        <pt x="387" y="707" on="1"/>
        <pt x="341" y="748" on="1"/>
        <pt x="398" y="1037" on="1"/>
        <pt x="197" y="858" on="1"/>
        <pt x="187" y="864" on="0"/>
        <pt x="144" y="897" on="0"/>
        <pt x="98" y="934" on="0"/>
        <pt x="57" y="969" on="0"/>
        <pt x="50" y="977" on="1"/>
        <pt x="62" y="1037" on="1"/>
        <pt x="342" y="1132" on="1"/>
        <pt x="85" y="1217" on="1"/>
        <pt x="86" y="1229" on="0"/>
        <pt x="93" y="1282" on="0"/>
        <pt x="102" y="1341" on="0"/>
        <pt x="112" y="1393" on="0"/>
        <pt x="115" y="1404" on="1"/>
        <pt x="173" y="1423" on="1"/>
        <pt x="394" y="1229" on="1"/>
        <pt x="340" y="1493" on="1"/>
        <pt x="351" y="1499" on="0"/>
        <pt x="376" y="1509" on="1"/>
        <pt x="428" y="1530" on="1"/>
        <pt x="456" y="1541" on="0"/>
        <pt x="506" y="1558" on="0"/>
        <pt x="517" y="1561" on="1"/>
        <pt x="563" y="1520" on="1"/>
      </contour>
    </TTGlyph>
    <TTGlyph name="at" xMin="90" yMin="-425" xMax="1753" yMax="1373">
      <contour>
        <pt x="1054" y="731" on="1"/>
        <pt x="1034" y="772" on="0"/>
        <pt x="983" y="820" on="0"/>
        <pt x="938" y="820" on="1"/>
        <pt x="858" y="820" on="0"/>
        <pt x="780" y="652" on="0"/>
        <pt x="780" y="465" on="1"/>
        <pt x="780" y="380" on="0"/>
        <pt x="804" y="270" on="0"/>
        <pt x="843" y="205" on="0"/>
        <pt x="891" y="180" on="0"/>
        <pt x="915" y="180" on="1"/>
        <pt x="934" y="180" on="0"/>
        <pt x="966" y="189" on="0"/>
        <pt x="997" y="214" on="0"/>
        <pt x="1031" y="257" on="0"/>
        <pt x="1054" y="290" on="1"/>
      </contour>
      <contour>
        <pt x="1753" y="579" on="1"/>
        <pt x="1753" y="495" on="0"/>
        <pt x="1713" y="339" on="0"/>
        <pt x="1641" y="204" on="0"/>
        <pt x="1544" y="93" on="0"/>
        <pt x="1429" y="14" on="0"/>
        <pt x="1302" y="-30" on="0"/>
        <pt x="1237" y="-30" on="1"/>
        <pt x="1205" y="-30" on="0"/>
        <pt x="1150" y="-16" on="0"/>
        <pt x="1105" y="19" on="0"/>
        <pt x="1070" y="77" on="0"/>
        <pt x="1060" y="122" on="1"/>
        <pt x="1019" y="76" on="0"/>
        <pt x="959" y="17" on="0"/>
        <pt x="903" y="-17" on="0"/>
        <pt x="844" y="-30" on="0"/>
        <pt x="804" y="-30" on="1"/>
        <pt x="753" y="-30" on="0"/>
        <pt x="648" y="23" on="0"/>
        <pt x="564" y="136" on="0"/>
        <pt x="510" y="311" on="0"/>
        <pt x="510" y="434" on="1"/>
        <pt x="510" y="499" on="0"/>
        <pt x="536" y="627" on="0"/>
        <pt x="587" y="744" on="0"/>
        <pt x="662" y="845" on="0"/>
        <pt x="760" y="918" on="0"/>
        <pt x="879" y="960" on="0"/>
        <pt x="949" y="960" on="1"/>
        <pt x="972" y="960" on="0"/>
        <pt x="1013" y="953" on="0"/>
        <pt x="1054" y="934" on="0"/>
        <pt x="1096" y="898" on="0"/>
        <pt x="1119" y="869" on="1"/>
        <pt x="1151" y="879" on="0"/>
        <pt x="1204" y="899" on="0"/>
        <pt x="1252" y="920" on="0"/>
        <pt x="1298" y="945" on="0"/>
        <pt x="1323" y="960" on="1"/>
        <pt x="1354" y="930" on="1"/>
        <pt x="1345" y="893" on="0"/>
        <pt x="1339" y="853" on="1"/>
        <pt x="1333" y="819" on="0"/>
        <pt x="1324" y="735" on="0"/>
        <pt x="1324" y="693" on="1"/>
        <pt x="1324" y="285" on="1"/>
        <pt x="1324" y="259" on="0"/>
        <pt x="1327" y="220" on="0"/>
        <pt x="1339" y="193" on="0"/>
        <pt x="1362" y="179" on="0"/>
        <pt x="1382" y="179" on="1"/>
        <pt x="1407" y="179" on="0"/>
        <pt x="1461" y="220" on="0"/>
        <pt x="1505" y="302" on="0"/>
        <pt x="1533" y="428" on="0"/>
        <pt x="1533" y="512" on="1"/>
        <pt x="1533" y="684" on="0"/>
        <pt x="1450" y="937" on="0"/>
        <pt x="1299" y="1102" on="0"/>
        <pt x="1085" y="1183" on="0"/>
        <pt x="955" y="1183" on="1"/>
        <pt x="802" y="1183" on="0"/>
        <pt x="572" y="1079" on="0"/>
        <pt x="417" y="899" on="0"/>
        <pt x="340" y="659" on="0"/>
        <pt x="340" y="524" on="1"/>
        <pt x="340" y="332" on="0"/>
        <pt x="443" y="46" on="0"/>
        <pt x="621" y="-142" on="0"/>
        <pt x="863" y="-235" on="0"/>
        <pt x="1003" y="-235" on="1"/>
        <pt x="1102" y="-235" on="0"/>
        <pt x="1273" y="-200" on="0"/>
        <pt x="1411" y="-148" on="0"/>
        <pt x="1513" y="-88" on="0"/>
        <pt x="1543" y="-62" on="1"/>
        <pt x="1596" y="-159" on="1"/>
        <pt x="1560" y="-201" on="0"/>
        <pt x="1445" y="-294" on="0"/>
        <pt x="1286" y="-373" on="0"/>
        <pt x="1080" y="-425" on="0"/>
        <pt x="954" y="-425" on="1"/>
        <pt x="763" y="-425" on="0"/>
        <pt x="445" y="-305" on="0"/>
        <pt x="217" y="-77" on="0"/>
        <pt x="90" y="254" on="0"/>
        <pt x="90" y="465" on="1"/>
        <pt x="90" y="588" on="0"/>
        <pt x="153" y="819" on="0"/>
        <pt x="269" y="1020" on="0"/>
        <pt x="433" y="1187" on="0"/>
        <pt x="634" y="1307" on="0"/>
        <pt x="867" y="1373" on="0"/>
        <pt x="994" y="1373" on="1"/>
        <pt x="1162" y="1373" on="0"/>
        <pt x="1441" y="1277" on="0"/>
        <pt x="1642" y="1081" on="0"/>
        <pt x="1753" y="782" on="0"/>
      </contour>
    </TTGlyph>
    <TTGlyph name="atilde" xMin="60" yMin="-30" xMax="1046" yMax="1420">
      <component glyphName="a" x="0" y="0" flags="0x0"/>
      <component glyphName="tildecomb" x="1071" y="0" flags="0x0"/>
    </TTGlyph>
    <TTGlyph name="atilde.SngStory" xMin="60" yMin="-30" xMax="1121" yMax="1420">
      <component glyphName="a.SngStory" x="0" y="0" flags="0x0"/>
      <component glyphName="tildecomb" x="1135" y="0" flags="0x0"/>
    </TTGlyph>
    <TTGlyph name="b" xMin="0" yMin="-30" xMax="1050" yMax="1550">
      <contour>
        <pt x="800" y="418" on="1"/>
        <pt x="800" y="518" on="0"/>
        <pt x="767" y="654" on="0"/>
        <pt x="709" y="738" on="0"/>
        <pt x="632" y="775" on="0"/>
        <pt x="587" y="775" on="1"/>
        <pt x="552" y="775" on="0"/>
        <pt x="459" y="742" on="0"/>
        <pt x="390" y="700" on="1"/>
        <pt x="390" y="223" on="1"/>
        <pt x="470" y="185" on="0"/>
        <pt x="579" y="150" on="0"/>
        <pt x="607" y="150" on="1"/>
        <pt x="656" y="150" on="0"/>
        <pt x="729" y="190" on="0"/>
        <pt x="777" y="262" on="0"/>
        <pt x="800" y="360" on="0"/>
      </contour>
      <contour>
        <pt x="1050" y="512" on="1"/>
        <pt x="1050" y="454" on="0"/>
        <pt x="1004" y="329" on="0"/>
        <pt x="924" y="208" on="0"/>
        <pt x="818" y="100" on="0"/>
        <pt x="698" y="18" on="0"/>
        <pt x="570" y="-30" on="0"/>
        <pt x="509" y="-30" on="1"/>
        <pt x="479" y="-30" on="0"/>
        <pt x="390" y="-10" on="0"/>
        <pt x="286" y="24" on="0"/>
        <pt x="174" y="70" on="0"/>
        <pt x="120" y="96" on="1"/>
        <pt x="120" y="1256" on="1"/>
        <pt x="120" y="1302" on="0"/>
        <pt x="113" y="1352" on="0"/>
        <pt x="89" y="1377" on="0"/>
        <pt x="41" y="1385" on="0"/>
        <pt x="0" y="1390" on="1"/>
        <pt x="0" y="1470" on="1"/>
        <pt x="52" y="1478" on="0"/>
        <pt x="142" y="1493" on="0"/>
        <pt x="225" y="1512" on="0"/>
        <pt x="303" y="1535" on="0"/>
        <pt x="343" y="1550" on="1"/>
        <pt x="347" y="1546" on="0"/>
        <pt x="362" y="1532" on="0"/>
        <pt x="370" y="1524" on="1"/>
        <pt x="379" y="1515" on="0"/>
        <pt x="390" y="1506" on="1"/>
        <pt x="390" y="827" on="1"/>
        <pt x="440" y="864" on="0"/>
        <pt x="536" y="915" on="0"/>
        <pt x="623" y="947" on="0"/>
        <pt x="698" y="960" on="0"/>
        <pt x="727" y="960" on="1"/>
        <pt x="803" y="960" on="0"/>
        <pt x="923" y="896" on="0"/>
        <pt x="1006" y="779" on="0"/>
        <pt x="1050" y="614" on="0"/>
      </contour>
    </TTGlyph>
    <TTGlyph name="backslash" xMin="35" yMin="-335" xMax="925" yMax="1600">
      <contour>
        <pt x="880" y="-335" on="1"/>
        <pt x="868" y="-331" on="0"/>
        <pt x="820" y="-316" on="0"/>
        <pt x="769" y="-299" on="0"/>
        <pt x="725" y="-281" on="0"/>
        <pt x="716" y="-274" on="1"/>
        <pt x="35" y="1568" on="1"/>
        <pt x="82" y="1600" on="1"/>
        <pt x="97" y="1596" on="0"/>
        <pt x="141" y="1583" on="0"/>
        <pt x="188" y="1567" on="0"/>
        <pt x="231" y="1550" on="0"/>
        <pt x="245" y="1541" on="1"/>
        <pt x="925" y="-300" on="1"/>
      </contour>
    </TTGlyph>
    <TTGlyph name="bar" xMin="160" yMin="-405" xMax="340" yMax="1670">
      <contour>
        <pt x="340" y="-343" on="1"/>
        <pt x="331" y="-351" on="0"/>
        <pt x="296" y="-369" on="0"/>
        <pt x="256" y="-386" on="0"/>
        <pt x="217" y="-401" on="0"/>
        <pt x="205" y="-405" on="1"/>
        <pt x="160" y="-372" on="1"/>
        <pt x="160" y="1611" on="1"/>
        <pt x="174" y="1619" on="0"/>
        <pt x="208" y="1637" on="0"/>
        <pt x="244" y="1653" on="0"/>
        <pt x="279" y="1666" on="0"/>
        <pt x="294" y="1670" on="1"/>
        <pt x="340" y="1638" on="1"/>
      </contour>
    </TTGlyph>
    <TTGlyph name="braceleft" xMin="80" yMin="-315" xMax="707" yMax="1600">
      <contour>
        <pt x="707" y="1513" on="1"/>
        <pt x="629" y="1464" on="0"/>
        <pt x="533" y="1338" on="0"/>
        <pt x="533" y="1272" on="1"/>
        <pt x="533" y="1221" on="0"/>
        <pt x="546" y="1138" on="0"/>
        <pt x="561" y="1057" on="0"/>
        <pt x="574" y="974" on="0"/>
        <pt x="574" y="923" on="1"/>
        <pt x="574" y="881" on="0"/>
        <pt x="543" y="800" on="0"/>
        <pt x="489" y="729" on="0"/>
        <pt x="416" y="671" on="0"/>
        <pt x="374" y="653" on="1"/>
        <pt x="474" y="635" on="0"/>
        <pt x="574" y="496" on="0"/>
        <pt x="574" y="385" on="1"/>
        <pt x="574" y="332" on="0"/>
        <pt x="561" y="238" on="0"/>
        <pt x="546" y="150" on="0"/>
        <pt x="533" y="65" on="0"/>
        <pt x="533" y="23" on="1"/>
        <pt x="533" y="-13" on="0"/>
        <pt x="545" y="-75" on="0"/>
        <pt x="580" y="-131" on="0"/>
        <pt x="644" y="-185" on="0"/>
        <pt x="697" y="-214" on="1"/>
        <pt x="654" y="-315" on="1"/>
        <pt x="559" y="-281" on="0"/>
        <pt x="408" y="-212" on="0"/>
        <pt x="303" y="-128" on="0"/>
        <pt x="247" y="-20" on="0"/>
        <pt x="247" y="52" on="1"/>
        <pt x="247" y="103" on="0"/>
        <pt x="260" y="191" on="0"/>
        <pt x="275" y="276" on="0"/>
        <pt x="288" y="367" on="0"/>
        <pt x="288" y="422" on="1"/>
        <pt x="288" y="503" on="0"/>
        <pt x="222" y="566" on="0"/>
        <pt x="162" y="566" on="1"/>
        <pt x="141" y="566" on="1"/>
        <pt x="135" y="566" on="0"/>
        <pt x="125" y="565" on="0"/>
        <pt x="112" y="562" on="0"/>
        <pt x="97" y="560" on="1"/>
        <pt x="80" y="653" on="1"/>
        <pt x="190" y="684" on="0"/>
        <pt x="288" y="788" on="0"/>
        <pt x="288" y="863" on="1"/>
        <pt x="288" y="916" on="0"/>
        <pt x="275" y="999" on="0"/>
        <pt x="260" y="1077" on="0"/>
        <pt x="247" y="1161" on="0"/>
        <pt x="247" y="1215" on="1"/>
        <pt x="247" y="1282" on="0"/>
        <pt x="312" y="1394" on="0"/>
        <pt x="424" y="1488" on="0"/>
        <pt x="575" y="1566" on="0"/>
        <pt x="661" y="1600" on="1"/>
      </contour>
    </TTGlyph>
    <TTGlyph name="braceright" xMin="20" yMin="-316" xMax="647" yMax="1599">
      <contour>
        <pt x="647" y="631" on="1"/>
        <pt x="537" y="600" on="0"/>
        <pt x="439" y="496" on="0"/>
        <pt x="439" y="421" on="1"/>
        <pt x="439" y="368" on="0"/>
        <pt x="452" y="285" on="0"/>
        <pt x="467" y="207" on="0"/>
        <pt x="480" y="123" on="0"/>
        <pt x="480" y="69" on="1"/>
        <pt x="480" y="1" on="0"/>
        <pt x="415" y="-110" on="0"/>
        <pt x="303" y="-204" on="0"/>
        <pt x="152" y="-282" on="0"/>
        <pt x="66" y="-316" on="1"/>
        <pt x="20" y="-229" on="1"/>
        <pt x="98" y="-180" on="0"/>
        <pt x="194" y="-54" on="0"/>
        <pt x="194" y="12" on="1"/>
        <pt x="194" y="63" on="0"/>
        <pt x="181" y="146" on="0"/>
        <pt x="166" y="227" on="0"/>
        <pt x="153" y="310" on="0"/>
        <pt x="153" y="361" on="1"/>
        <pt x="153" y="403" on="0"/>
        <pt x="184" y="484" on="0"/>
        <pt x="238" y="555" on="0"/>
        <pt x="311" y="613" on="0"/>
        <pt x="353" y="631" on="1"/>
        <pt x="253" y="649" on="0"/>
        <pt x="153" y="788" on="0"/>
        <pt x="153" y="899" on="1"/>
        <pt x="153" y="951" on="0"/>
        <pt x="166" y="1046" on="0"/>
        <pt x="181" y="1134" on="0"/>
        <pt x="194" y="1219" on="0"/>
        <pt x="194" y="1261" on="1"/>
        <pt x="194" y="1297" on="0"/>
        <pt x="182" y="1359" on="0"/>
        <pt x="147" y="1415" on="0"/>
        <pt x="83" y="1469" on="0"/>
        <pt x="30" y="1498" on="1"/>
        <pt x="73" y="1599" on="1"/>
        <pt x="168" y="1565" on="0"/>
        <pt x="319" y="1496" on="0"/>
        <pt x="424" y="1412" on="0"/>
        <pt x="480" y="1304" on="0"/>
        <pt x="480" y="1232" on="1"/>
        <pt x="480" y="1181" on="0"/>
        <pt x="467" y="1093" on="0"/>
        <pt x="452" y="1008" on="0"/>
        <pt x="439" y="917" on="0"/>
        <pt x="439" y="862" on="1"/>
        <pt x="439" y="781" on="0"/>
        <pt x="505" y="718" on="0"/>
        <pt x="565" y="718" on="1"/>
        <pt x="585" y="718" on="1"/>
        <pt x="592" y="718" on="0"/>
        <pt x="602" y="719" on="0"/>
        <pt x="615" y="722" on="0"/>
        <pt x="630" y="724" on="1"/>
      </contour>
    </TTGlyph>
    <TTGlyph name="bracketleft" xMin="120" yMin="-335" xMax="691" yMax="1600">
      <contour>
        <pt x="691" y="-219" on="1"/>
        <pt x="689" y="-229" on="0"/>
        <pt x="679" y="-261" on="0"/>
        <pt x="667" y="-295" on="0"/>
        <pt x="656" y="-326" on="0"/>
        <pt x="652" y="-335" on="1"/>
        <pt x="120" y="-335" on="1"/>
        <pt x="120" y="1600" on="1"/>
        <pt x="646" y="1600" on="1"/>
        <pt x="689" y="1564" on="1"/>
        <pt x="687" y="1552" on="0"/>
        <pt x="677" y="1516" on="0"/>
        <pt x="666" y="1480" on="0"/>
        <pt x="655" y="1451" on="0"/>
        <pt x="652" y="1445" on="1"/>
        <pt x="380" y="1445" on="1"/>
        <pt x="380" y="-180" on="1"/>
        <pt x="646" y="-180" on="1"/>
      </contour>
    </TTGlyph>
    <TTGlyph name="bracketright" xMin="20" yMin="-335" xMax="590" yMax="1600">
      <contour>
        <pt x="65" y="-335" on="1"/>
        <pt x="22" y="-299" on="1"/>
        <pt x="24" y="-287" on="0"/>
        <pt x="34" y="-251" on="0"/>
        <pt x="45" y="-215" on="0"/>
        <pt x="56" y="-186" on="0"/>
        <pt x="59" y="-180" on="1"/>
        <pt x="330" y="-180" on="1"/>
        <pt x="330" y="1445" on="1"/>
        <pt x="65" y="1445" on="1"/>
        <pt x="20" y="1484" on="1"/>
        <pt x="22" y="1494" on="0"/>
        <pt x="32" y="1526" on="0"/>
        <pt x="44" y="1560" on="0"/>
        <pt x="55" y="1591" on="0"/>
        <pt x="59" y="1600" on="1"/>
        <pt x="590" y="1600" on="1"/>
        <pt x="590" y="-335" on="1"/>
      </contour>
    </TTGlyph>
    <TTGlyph name="breve" xMin="0" yMin="1060" xMax="730" yMax="1445">
      <contour>
        <pt x="730" y="1370" on="1"/>
        <pt x="700" y="1289" on="0"/>
        <pt x="618" y="1172" on="0"/>
        <pt x="524" y="1096" on="0"/>
        <pt x="419" y="1060" on="0"/>
        <pt x="367" y="1060" on="1"/>
        <pt x="310" y="1060" on="0"/>
        <pt x="204" y="1096" on="0"/>
        <pt x="110" y="1172" on="0"/>
        <pt x="30" y="1289" on="0"/>
        <pt x="0" y="1370" on="1"/>
        <pt x="6" y="1379" on="0"/>
        <pt x="27" y="1402" on="0"/>
        <pt x="51" y="1424" on="0"/>
        <pt x="75" y="1441" on="0"/>
        <pt x="83" y="1445" on="1"/>
        <pt x="108" y="1403" on="0"/>
        <pt x="176" y="1338" on="0"/>
        <pt x="252" y="1295" on="0"/>
        <pt x="330" y="1272" on="0"/>
        <pt x="363" y="1272" on="1"/>
        <pt x="398" y="1272" on="0"/>
        <pt x="477" y="1294" on="0"/>
        <pt x="553" y="1338" on="0"/>
        <pt x="621" y="1403" on="0"/>
        <pt x="647" y="1445" on="1"/>
        <pt x="656" y="1441" on="0"/>
        <pt x="679" y="1424" on="0"/>
        <pt x="703" y="1402" on="0"/>
        <pt x="724" y="1379" on="0"/>
      </contour>
    </TTGlyph>
    <TTGlyph name="brokenbar" xMin="154" yMin="-406" xMax="346" yMax="1670">
      <contour>
        <pt x="346" y="-344" on="1"/>
        <pt x="336" y="-352" on="0"/>
        <pt x="297" y="-370" on="0"/>
        <pt x="254" y="-387" on="0"/>
        <pt x="213" y="-402" on="0"/>
        <pt x="201" y="-406" on="1"/>
        <pt x="154" y="-373" on="1"/>
        <pt x="154" y="479" on="1"/>
        <pt x="169" y="488" on="0"/>
        <pt x="206" y="505" on="0"/>
        <pt x="245" y="522" on="0"/>
        <pt x="284" y="536" on="0"/>
        <pt x="299" y="541" on="1"/>
        <pt x="346" y="506" on="1"/>
      </contour>
      <contour>
        <pt x="346" y="777" on="1"/>
        <pt x="336" y="769" on="0"/>
        <pt x="297" y="751" on="0"/>
        <pt x="254" y="734" on="0"/>
        <pt x="213" y="720" on="0"/>
        <pt x="201" y="716" on="1"/>
        <pt x="154" y="748" on="1"/>
        <pt x="154" y="1611" on="1"/>
        <pt x="169" y="1619" on="0"/>
        <pt x="206" y="1637" on="0"/>
        <pt x="245" y="1653" on="0"/>
        <pt x="284" y="1666" on="0"/>
        <pt x="299" y="1670" on="1"/>
        <pt x="346" y="1638" on="1"/>
      </contour>
    </TTGlyph>
    <TTGlyph name="bullet" xMin="70" yMin="389" xMax="498" yMax="885">
      <contour>
        <pt x="498" y="662" on="1"/>
        <pt x="498" y="601" on="0"/>
        <pt x="463" y="501" on="0"/>
        <pt x="400" y="429" on="0"/>
        <pt x="313" y="389" on="0"/>
        <pt x="260" y="389" on="1"/>
        <pt x="212" y="389" on="0"/>
        <pt x="141" y="422" on="0"/>
        <pt x="94" y="482" on="0"/>
        <pt x="70" y="564" on="0"/>
        <pt x="70" y="612" on="1"/>
        <pt x="70" y="672" on="0"/>
        <pt x="107" y="772" on="0"/>
        <pt x="171" y="845" on="0"/>
        <pt x="258" y="885" on="0"/>
        <pt x="309" y="885" on="1"/>
        <pt x="354" y="885" on="0"/>
        <pt x="425" y="852" on="0"/>
        <pt x="473" y="793" on="0"/>
        <pt x="498" y="711" on="0"/>
      </contour>
    </TTGlyph>
    <TTGlyph name="c" xMin="60" yMin="-30" xMax="910" yMax="960">
      <contour>
        <pt x="910" y="190" on="1"/>
        <pt x="845" y="117" on="0"/>
        <pt x="731" y="30" on="0"/>
        <pt x="627" y="-16" on="0"/>
        <pt x="532" y="-30" on="0"/>
        <pt x="485" y="-30" on="1"/>
        <pt x="401" y="-30" on="0"/>
        <pt x="247" y="35" on="0"/>
        <pt x="130" y="157" on="0"/>
        <pt x="60" y="333" on="0"/>
        <pt x="60" y="444" on="1"/>
        <pt x="60" y="552" on="0"/>
        <pt x="140" y="740" on="0"/>
        <pt x="285" y="879" on="0"/>
        <pt x="487" y="960" on="0"/>
        <pt x="610" y="960" on="1"/>
        <pt x="643" y="960" on="0"/>
        <pt x="731" y="949" on="0"/>
        <pt x="816" y="928" on="0"/>
        <pt x="888" y="899" on="0"/>
        <pt x="905" y="881" on="1"/>
        <pt x="906" y="873" on="0"/>
        <pt x="898" y="828" on="0"/>
        <pt x="883" y="769" on="0"/>
        <pt x="863" y="702" on="0"/>
        <pt x="843" y="642" on="0"/>
        <pt x="824" y="596" on="0"/>
        <pt x="818" y="587" on="1"/>
        <pt x="741" y="597" on="1"/>
        <pt x="722" y="657" on="0"/>
        <pt x="682" y="744" on="0"/>
        <pt x="634" y="802" on="0"/>
        <pt x="576" y="830" on="0"/>
        <pt x="540" y="830" on="1"/>
        <pt x="499" y="830" on="0"/>
        <pt x="423" y="792" on="0"/>
        <pt x="365" y="708" on="0"/>
        <pt x="330" y="573" on="0"/>
        <pt x="330" y="475" on="1"/>
        <pt x="330" y="397" on="0"/>
        <pt x="367" y="276" on="0"/>
        <pt x="434" y="193" on="0"/>
        <pt x="524" y="150" on="0"/>
        <pt x="577" y="150" on="1"/>
        <pt x="605" y="150" on="0"/>
        <pt x="659" y="157" on="0"/>
        <pt x="722" y="181" on="0"/>
        <pt x="799" y="225" on="0"/>
        <pt x="851" y="261" on="1"/>
      </contour>
    </TTGlyph>
    <TTGlyph name="cacute" xMin="60" yMin="-30" xMax="910" yMax="1519">
      <component glyphName="c" x="0" y="0" flags="0x0"/>
      <component glyphName="acutecomb" x="1058" y="0" flags="0x0"/>
    </TTGlyph>
    <TTGlyph name="caron" xMin="20" yMin="1062" xMax="723" yMax="1526">
      <contour>
        <pt x="439" y="1062" on="1"/>
        <pt x="292" y="1062" on="1"/>
        <pt x="20" y="1451" on="1"/>
        <pt x="32" y="1470" on="0"/>
        <pt x="66" y="1518" on="0"/>
        <pt x="83" y="1526" on="1"/>
        <pt x="367" y="1318" on="1"/>
        <pt x="648" y="1526" on="1"/>
        <pt x="656" y="1522" on="0"/>
        <pt x="676" y="1505" on="0"/>
        <pt x="697" y="1483" on="0"/>
        <pt x="716" y="1460" on="0"/>
        <pt x="723" y="1451" on="1"/>
      </contour>
    </TTGlyph>
    <TTGlyph name="ccaron" xMin="60" yMin="-30" xMax="910" yMax="1526">
      <component glyphName="c" x="0" y="0" flags="0x0"/>
      <component glyphName="uni030C" x="1024" y="0" flags="0x0"/>
    </TTGlyph>
    <TTGlyph name="ccedilla" xMin="60" yMin="-444" xMax="910" yMax="960">
      <contour>
        <pt x="728" y="-229" on="1"/>
        <pt x="728" y="-266" on="0"/>
        <pt x="668" y="-337" on="0"/>
        <pt x="564" y="-396" on="0"/>
        <pt x="427" y="-437" on="0"/>
        <pt x="350" y="-444" on="1"/>
        <pt x="308" y="-365" on="1"/>
        <pt x="389" y="-354" on="0"/>
        <pt x="460" y="-298" on="0"/>
        <pt x="460" y="-266" on="1"/>
        <pt x="460" y="-232" on="0"/>
        <pt x="415" y="-202" on="0"/>
        <pt x="377" y="-199" on="1"/>
        <pt x="378" y="-198" on="0"/>
        <pt x="381" y="-194" on="1"/>
        <pt x="385" y="-190" on="0"/>
        <pt x="403" y="-149" on="0"/>
        <pt x="419" y="-106" on="1"/>
        <pt x="430" y="-76" on="0"/>
        <pt x="445" y="-28" on="1"/>
        <pt x="383" y="-22" on="0"/>
        <pt x="324" y="2" on="1"/>
        <pt x="247" y="35" on="0"/>
        <pt x="130" y="157" on="0"/>
        <pt x="60" y="333" on="0"/>
        <pt x="60" y="444" on="1"/>
        <pt x="60" y="552" on="0"/>
        <pt x="140" y="740" on="0"/>
        <pt x="285" y="879" on="0"/>
        <pt x="487" y="960" on="0"/>
        <pt x="610" y="960" on="1"/>
        <pt x="643" y="960" on="0"/>
        <pt x="731" y="949" on="0"/>
        <pt x="816" y="928" on="0"/>
        <pt x="888" y="899" on="0"/>
        <pt x="905" y="881" on="1"/>
        <pt x="906" y="873" on="0"/>
        <pt x="898" y="828" on="0"/>
        <pt x="883" y="769" on="0"/>
        <pt x="863" y="702" on="0"/>
        <pt x="843" y="642" on="0"/>
        <pt x="824" y="596" on="0"/>
        <pt x="818" y="587" on="1"/>
        <pt x="741" y="597" on="1"/>
        <pt x="722" y="657" on="0"/>
        <pt x="682" y="744" on="0"/>
        <pt x="634" y="802" on="0"/>
        <pt x="576" y="830" on="0"/>
        <pt x="540" y="830" on="1"/>
        <pt x="499" y="830" on="0"/>
        <pt x="423" y="792" on="0"/>
        <pt x="365" y="708" on="0"/>
        <pt x="330" y="573" on="0"/>
        <pt x="330" y="475" on="1"/>
        <pt x="330" y="397" on="0"/>
        <pt x="367" y="276" on="0"/>
        <pt x="434" y="193" on="0"/>
        <pt x="524" y="150" on="0"/>
        <pt x="577" y="150" on="1"/>
        <pt x="605" y="150" on="0"/>
        <pt x="659" y="157" on="0"/>
        <pt x="722" y="181" on="0"/>
        <pt x="799" y="225" on="0"/>
        <pt x="851" y="261" on="1"/>
        <pt x="910" y="190" on="1"/>
        <pt x="845" y="117" on="0"/>
        <pt x="731" y="30" on="0"/>
        <pt x="679" y="7" on="1"/>
        <pt x="629" y="-15" on="0"/>
        <pt x="583" y="-22" on="1"/>
        <pt x="558" y="-84" on="1"/>
        <pt x="728" y="-114" on="0"/>
      </contour>
    </TTGlyph>
    <TTGlyph name="ccircumflex" xMin="60" yMin="-30" xMax="910" yMax="1501">
      <component glyphName="c" x="0" y="0" flags="0x0"/>
      <component glyphName="uni0302" x="1033" y="0" flags="0x0"/>
    </TTGlyph>
    <TTGlyph name="cdotaccent" xMin="60" yMin="-30" xMax="910" yMax="1400">
      <component glyphName="c" x="0" y="0" flags="0x0"/>
      <component glyphName="uni0307" x="1033" y="0" flags="0x0"/>
    </TTGlyph>
    <TTGlyph name="cedilla" xMin="49" yMin="-444" xMax="469" yMax="14">
      <contour>
        <pt x="469" y="-229" on="1"/>
        <pt x="469" y="-266" on="0"/>
        <pt x="409" y="-337" on="0"/>
        <pt x="305" y="-396" on="0"/>
        <pt x="168" y="-437" on="0"/>
        <pt x="91" y="-444" on="1"/>
        <pt x="49" y="-365" on="1"/>
        <pt x="130" y="-354" on="0"/>
        <pt x="201" y="-298" on="0"/>
        <pt x="201" y="-266" on="1"/>
        <pt x="201" y="-232" on="0"/>
        <pt x="156" y="-202" on="0"/>
        <pt x="118" y="-199" on="1"/>
        <pt x="119" y="-198" on="0"/>
        <pt x="122" y="-194" on="1"/>
        <pt x="126" y="-190" on="0"/>
        <pt x="144" y="-149" on="0"/>
        <pt x="176" y="-63" on="0"/>
        <pt x="200" y="14" on="1"/>
        <pt x="338" y="12" on="1"/>
        <pt x="299" y="-84" on="1"/>
        <pt x="469" y="-114" on="0"/>
      </contour>
    </TTGlyph>
    <TTGlyph name="cent" xMin="84" yMin="-41" xMax="974" yMax="1245">
      <contour>
        <pt x="635" y="12" on="1"/>
        <pt x="617" y="-4" on="0"/>
        <pt x="564" y="-33" on="0"/>
        <pt x="540" y="-41" on="1"/>
        <pt x="505" y="-6" on="1"/>
        <pt x="505" y="130" on="1"/>
        <pt x="458" y="134" on="0"/>
        <pt x="359" y="167" on="0"/>
        <pt x="266" y="221" on="0"/>
        <pt x="182" y="298" on="0"/>
        <pt x="120" y="396" on="0"/>
        <pt x="84" y="516" on="0"/>
        <pt x="84" y="586" on="1"/>
        <pt x="84" y="675" on="0"/>
        <pt x="143" y="831" on="0"/>
        <pt x="252" y="956" on="0"/>
        <pt x="408" y="1043" on="0"/>
        <pt x="505" y="1063" on="1"/>
        <pt x="505" y="1194" on="1"/>
        <pt x="519" y="1203" on="0"/>
        <pt x="540" y="1218" on="0"/>
        <pt x="561" y="1231" on="0"/>
        <pt x="584" y="1241" on="0"/>
        <pt x="599" y="1245" on="1"/>
        <pt x="635" y="1213" on="1"/>
        <pt x="635" y="1078" on="1"/>
        <pt x="642" y="1079" on="0"/>
        <pt x="649" y="1079" on="1"/>
        <pt x="664" y="1079" on="1"/>
        <pt x="697" y="1079" on="0"/>
        <pt x="788" y="1068" on="0"/>
        <pt x="878" y="1047" on="0"/>
        <pt x="953" y="1018" on="0"/>
        <pt x="970" y="999" on="1"/>
        <pt x="971" y="991" on="0"/>
        <pt x="963" y="956" on="0"/>
        <pt x="948" y="911" on="0"/>
        <pt x="928" y="859" on="0"/>
        <pt x="907" y="813" on="0"/>
        <pt x="889" y="776" on="0"/>
        <pt x="883" y="768" on="1"/>
        <pt x="808" y="788" on="1"/>
        <pt x="800" y="803" on="0"/>
        <pt x="772" y="845" on="0"/>
        <pt x="729" y="887" on="0"/>
        <pt x="672" y="924" on="0"/>
        <pt x="635" y="933" on="1"/>
        <pt x="635" y="283" on="1"/>
        <pt x="665" y="285" on="0"/>
        <pt x="723" y="301" on="0"/>
        <pt x="787" y="337" on="0"/>
        <pt x="860" y="396" on="0"/>
        <pt x="905" y="441" on="1"/>
        <pt x="974" y="360" on="1"/>
        <pt x="923" y="304" on="0"/>
        <pt x="835" y="225" on="0"/>
        <pt x="753" y="172" on="0"/>
        <pt x="675" y="143" on="0"/>
        <pt x="635" y="136" on="1"/>
      </contour>
      <contour>
        <pt x="326" y="616" on="1"/>
        <pt x="326" y="485" on="0"/>
        <pt x="425" y="328" on="0"/>
        <pt x="505" y="299" on="1"/>
        <pt x="505" y="931" on="1"/>
        <pt x="470" y="921" on="0"/>
        <pt x="405" y="876" on="0"/>
        <pt x="355" y="800" on="0"/>
        <pt x="326" y="691" on="0"/>
      </contour>
    </TTGlyph>
    <TTGlyph name="circumflex" xMin="9" yMin="1037" xMax="712" yMax="1501">
      <contour>
        <pt x="712" y="1112" on="1"/>
        <pt x="700" y="1093" on="0"/>
        <pt x="666" y="1045" on="0"/>
        <pt x="649" y="1037" on="1"/>
        <pt x="365" y="1245" on="1"/>
        <pt x="84" y="1037" on="1"/>
        <pt x="76" y="1041" on="0"/>
        <pt x="56" y="1058" on="0"/>
        <pt x="35" y="1080" on="0"/>
        <pt x="16" y="1103" on="0"/>
        <pt x="9" y="1112" on="1"/>
        <pt x="293" y="1501" on="1"/>
        <pt x="440" y="1501" on="1"/>
      </contour>
    </TTGlyph>
    <TTGlyph name="colon" xMin="131" yMin="-40" xMax="489" yMax="960">
      <component glyphName="period" x="0" y="0" flags="0x0"/>
      <component glyphName="period" x="0" y="684" flags="0x0"/>
    </TTGlyph>
    <TTGlyph name="comma" xMin="88" yMin="-405" xMax="510" yMax="270">
      <contour>
        <pt x="510" y="70" on="1"/>
        <pt x="510" y="12" on="0"/>
        <pt x="459" y="-122" on="0"/>
        <pt x="373" y="-251" on="0"/>
        <pt x="259" y="-366" on="0"/>
        <pt x="196" y="-405" on="1"/>
        <pt x="121" y="-350" on="1"/>
        <pt x="177" y="-285" on="0"/>
        <pt x="246" y="-137" on="0"/>
        <pt x="246" y="-50" on="1"/>
        <pt x="246" y="-28" on="0"/>
        <pt x="226" y="17" on="0"/>
        <pt x="189" y="53" on="0"/>
        <pt x="136" y="74" on="0"/>
        <pt x="104" y="72" on="1"/>
        <pt x="88" y="159" on="1"/>
        <pt x="94" y="167" on="0"/>
        <pt x="135" y="189" on="0"/>
        <pt x="194" y="214" on="0"/>
        <pt x="263" y="239" on="0"/>
        <pt x="330" y="258" on="0"/>
        <pt x="390" y="270" on="0"/>
        <pt x="409" y="269" on="1"/>
        <pt x="433" y="258" on="0"/>
        <pt x="471" y="225" on="0"/>
        <pt x="496" y="178" on="0"/>
        <pt x="510" y="113" on="0"/>
      </contour>
    </TTGlyph>
    <TTGlyph name="copyright" xMin="80" yMin="-30" xMax="1428" yMax="1382">
      <contour>
        <pt x="1084" y="426" on="1"/>
        <pt x="1028" y="364" on="0"/>
        <pt x="934" y="291" on="0"/>
        <pt x="850" y="251" on="0"/>
        <pt x="771" y="239" on="0"/>
        <pt x="731" y="239" on="1"/>
        <pt x="659" y="239" on="0"/>
        <pt x="526" y="297" on="0"/>
        <pt x="424" y="404" on="0"/>
        <pt x="362" y="556" on="0"/>
        <pt x="362" y="651" on="1"/>
        <pt x="362" y="742" on="0"/>
        <pt x="433" y="908" on="0"/>
        <pt x="559" y="1032" on="0"/>
        <pt x="734" y="1106" on="0"/>
        <pt x="838" y="1106" on="1"/>
        <pt x="869" y="1106" on="0"/>
        <pt x="939" y="1093" on="0"/>
        <pt x="1004" y="1072" on="0"/>
        <pt x="1057" y="1044" on="0"/>
        <pt x="1071" y="1029" on="1"/>
        <pt x="1072" y="1022" on="0"/>
        <pt x="1065" y="984" on="0"/>
        <pt x="1053" y="934" on="0"/>
        <pt x="1036" y="877" on="0"/>
        <pt x="1018" y="826" on="0"/>
        <pt x="1003" y="787" on="0"/>
        <pt x="997" y="779" on="1"/>
        <pt x="932" y="788" on="1"/>
        <pt x="925" y="828" on="0"/>
        <pt x="903" y="904" on="0"/>
        <pt x="868" y="961" on="0"/>
        <pt x="815" y="996" on="0"/>
        <pt x="778" y="996" on="1"/>
        <pt x="689" y="996" on="0"/>
        <pt x="584" y="844" on="0"/>
        <pt x="584" y="684" on="1"/>
        <pt x="584" y="618" on="0"/>
        <pt x="621" y="511" on="0"/>
        <pt x="684" y="435" on="0"/>
        <pt x="765" y="394" on="0"/>
        <pt x="810" y="394" on="1"/>
        <pt x="834" y="394" on="0"/>
        <pt x="877" y="400" on="0"/>
        <pt x="927" y="419" on="0"/>
        <pt x="990" y="456" on="0"/>
        <pt x="1034" y="487" on="1"/>
      </contour>
      <contour>
        <pt x="1298" y="677" on="1"/>
        <pt x="1298" y="795" on="0"/>
        <pt x="1217" y="1004" on="0"/>
        <pt x="1072" y="1160" on="0"/>
        <pt x="872" y="1250" on="0"/>
        <pt x="753" y="1250" on="1"/>
        <pt x="635" y="1250" on="0"/>
        <pt x="436" y="1160" on="0"/>
        <pt x="291" y="1004" on="0"/>
        <pt x="210" y="795" on="0"/>
        <pt x="210" y="677" on="1"/>
        <pt x="210" y="558" on="0"/>
        <pt x="291" y="348" on="0"/>
        <pt x="436" y="192" on="0"/>
        <pt x="635" y="102" on="0"/>
        <pt x="753" y="102" on="1"/>
        <pt x="872" y="102" on="0"/>
        <pt x="1072" y="192" on="0"/>
        <pt x="1217" y="348" on="0"/>
        <pt x="1298" y="558" on="0"/>
      </contour>
      <contour>
        <pt x="1428" y="677" on="1"/>
        <pt x="1428" y="531" on="0"/>
        <pt x="1327" y="273" on="0"/>
        <pt x="1147" y="81" on="0"/>
        <pt x="899" y="-30" on="0"/>
        <pt x="753" y="-30" on="1"/>
        <pt x="655" y="-30" on="0"/>
        <pt x="480" y="21" on="0"/>
        <pt x="330" y="113" on="0"/>
        <pt x="210" y="242" on="0"/>
        <pt x="126" y="399" on="0"/>
        <pt x="80" y="580" on="0"/>
        <pt x="80" y="677" on="1"/>
        <pt x="80" y="823" on="0"/>
        <pt x="181" y="1080" on="0"/>
        <pt x="360" y="1271" on="0"/>
        <pt x="607" y="1382" on="0"/>
        <pt x="753" y="1382" on="1"/>
        <pt x="850" y="1382" on="0"/>
        <pt x="1026" y="1332" on="0"/>
        <pt x="1176" y="1240" on="0"/>
        <pt x="1297" y="1111" on="0"/>
        <pt x="1382" y="955" on="0"/>
        <pt x="1428" y="774" on="0"/>
      </contour>
    </TTGlyph>
    <TTGlyph name="currency" xMin="80" yMin="150" xMax="981" yMax="1053">
      <contour>
        <pt x="367" y="769" on="1"/>
        <pt x="332" y="734" on="0"/>
        <pt x="297" y="646" on="0"/>
        <pt x="297" y="601" on="1"/>
        <pt x="297" y="556" on="0"/>
        <pt x="330" y="471" on="0"/>
        <pt x="365" y="437" on="1"/>
        <pt x="401" y="401" on="0"/>
        <pt x="487" y="367" on="0"/>
        <pt x="532" y="367" on="1"/>
        <pt x="578" y="367" on="0"/>
        <pt x="662" y="401" on="0"/>
        <pt x="697" y="436" on="1"/>
        <pt x="731" y="471" on="0"/>
        <pt x="766" y="557" on="0"/>
        <pt x="766" y="602" on="1"/>
        <pt x="766" y="647" on="0"/>
        <pt x="731" y="734" on="0"/>
        <pt x="696" y="769" on="1"/>
        <pt x="661" y="804" on="0"/>
        <pt x="578" y="837" on="0"/>
        <pt x="532" y="837" on="1"/>
        <pt x="487" y="837" on="0"/>
        <pt x="402" y="804" on="0"/>
      </contour>
      <contour>
        <pt x="889" y="151" on="1"/>
        <pt x="741" y="298" on="1"/>
        <pt x="695" y="266" on="0"/>
        <pt x="589" y="234" on="0"/>
        <pt x="532" y="234" on="1"/>
        <pt x="475" y="234" on="0"/>
        <pt x="368" y="266" on="0"/>
        <pt x="320" y="299" on="1"/>
        <pt x="169" y="150" on="1"/>
        <pt x="123" y="153" on="1"/>
        <pt x="112" y="172" on="0"/>
        <pt x="89" y="217" on="0"/>
        <pt x="80" y="240" on="1"/>
        <pt x="229" y="389" on="1"/>
        <pt x="196" y="437" on="0"/>
        <pt x="164" y="543" on="0"/>
        <pt x="164" y="599" on="1"/>
        <pt x="164" y="656" on="0"/>
        <pt x="197" y="765" on="0"/>
        <pt x="231" y="813" on="1"/>
        <pt x="81" y="963" on="1"/>
        <pt x="84" y="1010" on="1"/>
        <pt x="103" y="1021" on="0"/>
        <pt x="148" y="1043" on="0"/>
        <pt x="171" y="1053" on="1"/>
        <pt x="320" y="903" on="1"/>
        <pt x="368" y="938" on="0"/>
        <pt x="476" y="972" on="0"/>
        <pt x="532" y="972" on="1"/>
        <pt x="588" y="972" on="0"/>
        <pt x="693" y="938" on="0"/>
        <pt x="741" y="904" on="1"/>
        <pt x="889" y="1052" on="1"/>
        <pt x="936" y="1053" on="1"/>
        <pt x="978" y="961" on="1"/>
        <pt x="831" y="813" on="1"/>
        <pt x="864" y="765" on="0"/>
        <pt x="899" y="656" on="0"/>
        <pt x="899" y="599" on="1"/>
        <pt x="899" y="544" on="0"/>
        <pt x="865" y="437" on="0"/>
        <pt x="832" y="389" on="1"/>
        <pt x="980" y="241" on="1"/>
        <pt x="981" y="193" on="1"/>
      </contour>
    </TTGlyph>
    <TTGlyph name="d" xMin="60" yMin="-30" xMax="1171" yMax="1550">
      <contour>
        <pt x="1171" y="124" on="1"/>
        <pt x="1125" y="93" on="0"/>
        <pt x="1023" y="37" on="0"/>
        <pt x="932" y="-5" on="0"/>
        <pt x="863" y="-30" on="0"/>
        <pt x="849" y="-30" on="1"/>
        <pt x="811" y="-30" on="0"/>
        <pt x="765" y="55" on="0"/>
        <pt x="754" y="136" on="1"/>
        <pt x="705" y="89" on="0"/>
        <pt x="627" y="25" on="0"/>
        <pt x="555" y="-14" on="0"/>
        <pt x="481" y="-30" on="0"/>
        <pt x="436" y="-30" on="1"/>
        <pt x="365" y="-30" on="0"/>
        <pt x="230" y="35" on="0"/>
        <pt x="125" y="157" on="0"/>
        <pt x="60" y="333" on="0"/>
        <pt x="60" y="444" on="1"/>
        <pt x="60" y="549" on="0"/>
        <pt x="132" y="736" on="0"/>
        <pt x="262" y="877" on="0"/>
        <pt x="443" y="960" on="0"/>
        <pt x="551" y="960" on="1"/>
        <pt x="598" y="960" on="0"/>
        <pt x="691" y="938" on="0"/>
        <pt x="745" y="902" on="1"/>
        <pt x="745" y="1234" on="1"/>
        <pt x="745" y="1289" on="0"/>
        <pt x="742" y="1354" on="0"/>
        <pt x="718" y="1389" on="0"/>
        <pt x="663" y="1402" on="0"/>
        <pt x="610" y="1406" on="1"/>
        <pt x="610" y="1485" on="1"/>
        <pt x="670" y="1490" on="0"/>
        <pt x="779" y="1506" on="0"/>
        <pt x="873" y="1523" on="0"/>
        <pt x="948" y="1542" on="0"/>
        <pt x="974" y="1550" on="1"/>
        <pt x="1015" y="1510" on="1"/>
        <pt x="1015" y="314" on="1"/>
        <pt x="1015" y="279" on="0"/>
        <pt x="1018" y="232" on="0"/>
        <pt x="1023" y="203" on="0"/>
        <pt x="1032" y="189" on="0"/>
        <pt x="1038" y="186" on="1"/>
        <pt x="1044" y="183" on="0"/>
        <pt x="1057" y="180" on="0"/>
        <pt x="1078" y="184" on="0"/>
        <pt x="1112" y="195" on="0"/>
        <pt x="1138" y="207" on="1"/>
      </contour>
      <contour>
        <pt x="745" y="272" on="1"/>
        <pt x="745" y="698" on="1"/>
        <pt x="707" y="756" on="0"/>
        <pt x="606" y="820" on="0"/>
        <pt x="540" y="820" on="1"/>
        <pt x="495" y="820" on="0"/>
        <pt x="418" y="785" on="0"/>
        <pt x="362" y="709" on="0"/>
        <pt x="330" y="589" on="0"/>
        <pt x="330" y="505" on="1"/>
        <pt x="330" y="428" on="0"/>
        <pt x="367" y="307" on="0"/>
        <pt x="428" y="224" on="0"/>
        <pt x="506" y="180" on="0"/>
        <pt x="547" y="180" on="1"/>
        <pt x="572" y="180" on="0"/>
        <pt x="618" y="189" on="0"/>
        <pt x="665" y="210" on="0"/>
        <pt x="716" y="246" on="0"/>
      </contour>
    </TTGlyph>
    <TTGlyph name="dagger" xMin="50" yMin="-40" xMax="967" yMax="1480">
      <contour>
        <pt x="967" y="1124" on="1"/>
        <pt x="960" y="1107" on="0"/>
        <pt x="923" y="1034" on="0"/>
        <pt x="879" y="952" on="0"/>
        <pt x="837" y="876" on="0"/>
        <pt x="825" y="857" on="1"/>
        <pt x="792" y="878" on="0"/>
        <pt x="731" y="912" on="0"/>
        <pt x="670" y="936" on="0"/>
        <pt x="604" y="951" on="0"/>
        <pt x="566" y="955" on="1"/>
        <pt x="572" y="888" on="0"/>
        <pt x="614" y="746" on="0"/>
        <pt x="651" y="680" on="1"/>
        <pt x="609" y="569" on="0"/>
        <pt x="566" y="376" on="0"/>
        <pt x="564" y="280" on="1"/>
        <pt x="563" y="222" on="0"/>
        <pt x="592" y="110" on="0"/>
        <pt x="627" y="49" on="1"/>
        <pt x="618" y="42" on="0"/>
        <pt x="561" y="16" on="0"/>
        <pt x="495" y="-13" on="0"/>
        <pt x="435" y="-36" on="0"/>
        <pt x="423" y="-40" on="1"/>
        <pt x="384" y="-9" on="1"/>
        <pt x="398" y="24" on="0"/>
        <pt x="422" y="100" on="0"/>
        <pt x="439" y="177" on="0"/>
        <pt x="448" y="250" on="0"/>
        <pt x="448" y="280" on="1"/>
        <pt x="446" y="378" on="0"/>
        <pt x="403" y="570" on="0"/>
        <pt x="361" y="680" on="1"/>
        <pt x="397" y="746" on="0"/>
        <pt x="438" y="888" on="0"/>
        <pt x="445" y="955" on="1"/>
        <pt x="260" y="939" on="0"/>
        <pt x="85" y="857" on="1"/>
        <pt x="50" y="910" on="1"/>
        <pt x="57" y="927" on="0"/>
        <pt x="94" y="1000" on="0"/>
        <pt x="137" y="1082" on="0"/>
        <pt x="180" y="1158" on="0"/>
        <pt x="192" y="1177" on="1"/>
        <pt x="224" y="1156" on="0"/>
        <pt x="283" y="1123" on="0"/>
        <pt x="343" y="1099" on="0"/>
        <pt x="408" y="1084" on="0"/>
        <pt x="445" y="1080" on="1"/>
        <pt x="442" y="1118" on="0"/>
        <pt x="426" y="1185" on="0"/>
        <pt x="402" y="1249" on="0"/>
        <pt x="368" y="1313" on="0"/>
        <pt x="346" y="1348" on="1"/>
        <pt x="365" y="1360" on="0"/>
        <pt x="441" y="1399" on="0"/>
        <pt x="523" y="1439" on="0"/>
        <pt x="596" y="1473" on="0"/>
        <pt x="613" y="1480" on="1"/>
        <pt x="666" y="1445" on="1"/>
        <pt x="624" y="1354" on="0"/>
        <pt x="575" y="1170" on="0"/>
        <pt x="567" y="1079" on="1"/>
        <pt x="661" y="1087" on="0"/>
        <pt x="844" y="1135" on="0"/>
        <pt x="932" y="1177" on="1"/>
      </contour>
    </TTGlyph>
    <TTGlyph name="daggerdbl" xMin="50" yMin="-40" xMax="967" yMax="1480">
      <contour>
        <pt x="967" y="1124" on="1"/>
        <pt x="960" y="1107" on="0"/>
        <pt x="923" y="1034" on="0"/>
        <pt x="879" y="952" on="0"/>
        <pt x="837" y="876" on="0"/>
        <pt x="825" y="857" on="1"/>
        <pt x="792" y="877" on="0"/>
        <pt x="732" y="909" on="0"/>
        <pt x="671" y="933" on="0"/>
        <pt x="606" y="950" on="0"/>
        <pt x="569" y="954" on="1"/>
        <pt x="575" y="896" on="0"/>
        <pt x="617" y="785" on="0"/>
        <pt x="653" y="720" on="1"/>
        <pt x="619" y="658" on="0"/>
        <pt x="579" y="541" on="0"/>
        <pt x="571" y="485" on="1"/>
        <pt x="665" y="493" on="0"/>
        <pt x="844" y="541" on="0"/>
        <pt x="932" y="583" on="1"/>
        <pt x="967" y="530" on="1"/>
        <pt x="960" y="513" on="0"/>
        <pt x="923" y="440" on="0"/>
        <pt x="879" y="358" on="0"/>
        <pt x="837" y="282" on="0"/>
        <pt x="825" y="263" on="1"/>
        <pt x="793" y="281" on="0"/>
        <pt x="733" y="312" on="0"/>
        <pt x="672" y="338" on="0"/>
        <pt x="605" y="355" on="0"/>
        <pt x="567" y="360" on="1"/>
        <pt x="570" y="318" on="0"/>
        <pt x="585" y="251" on="0"/>
        <pt x="610" y="190" on="0"/>
        <pt x="645" y="128" on="0"/>
        <pt x="668" y="92" on="1"/>
        <pt x="649" y="80" on="0"/>
        <pt x="573" y="41" on="0"/>
        <pt x="491" y="1" on="0"/>
        <pt x="418" y="-33" on="0"/>
        <pt x="401" y="-40" on="1"/>
        <pt x="348" y="-5" on="1"/>
        <pt x="391" y="88" on="0"/>
        <pt x="443" y="264" on="0"/>
        <pt x="448" y="360" on="1"/>
        <pt x="354" y="352" on="0"/>
        <pt x="173" y="302" on="0"/>
        <pt x="85" y="263" on="1"/>
        <pt x="50" y="316" on="1"/>
        <pt x="57" y="333" on="0"/>
        <pt x="94" y="406" on="0"/>
        <pt x="137" y="488" on="0"/>
        <pt x="180" y="564" on="0"/>
        <pt x="192" y="583" on="1"/>
        <pt x="224" y="562" on="0"/>
        <pt x="284" y="530" on="0"/>
        <pt x="344" y="505" on="0"/>
        <pt x="408" y="489" on="0"/>
        <pt x="445" y="485" on="1"/>
        <pt x="437" y="541" on="0"/>
        <pt x="397" y="658" on="0"/>
        <pt x="363" y="720" on="1"/>
        <pt x="398" y="786" on="0"/>
        <pt x="439" y="897" on="0"/>
        <pt x="446" y="955" on="1"/>
        <pt x="352" y="947" on="0"/>
        <pt x="173" y="896" on="0"/>
        <pt x="85" y="857" on="1"/>
        <pt x="50" y="910" on="1"/>
        <pt x="57" y="927" on="0"/>
        <pt x="94" y="1000" on="0"/>
        <pt x="137" y="1082" on="0"/>
        <pt x="180" y="1158" on="0"/>
        <pt x="192" y="1177" on="1"/>
        <pt x="224" y="1156" on="0"/>
        <pt x="284" y="1123" on="0"/>
        <pt x="345" y="1099" on="0"/>
        <pt x="409" y="1084" on="0"/>
        <pt x="447" y="1080" on="1"/>
        <pt x="444" y="1120" on="0"/>
        <pt x="427" y="1188" on="0"/>
        <pt x="402" y="1250" on="0"/>
        <pt x="368" y="1312" on="0"/>
        <pt x="348" y="1348" on="1"/>
        <pt x="367" y="1360" on="0"/>
        <pt x="443" y="1399" on="0"/>
        <pt x="525" y="1439" on="0"/>
        <pt x="598" y="1473" on="0"/>
        <pt x="615" y="1480" on="1"/>
        <pt x="668" y="1445" on="1"/>
        <pt x="629" y="1354" on="0"/>
        <pt x="577" y="1174" on="0"/>
        <pt x="569" y="1079" on="1"/>
        <pt x="663" y="1087" on="0"/>
        <pt x="844" y="1135" on="0"/>
        <pt x="932" y="1177" on="1"/>
      </contour>
    </TTGlyph>
    <TTGlyph name="dcroat" xMin="60" yMin="-30" xMax="1180" yMax="1550">
      <contour>
        <pt x="1171" y="124" on="1"/>
        <pt x="1125" y="93" on="0"/>
        <pt x="1023" y="37" on="0"/>
        <pt x="932" y="-5" on="0"/>
        <pt x="863" y="-30" on="0"/>
        <pt x="849" y="-30" on="1"/>
        <pt x="811" y="-30" on="0"/>
        <pt x="765" y="55" on="0"/>
        <pt x="754" y="136" on="1"/>
        <pt x="705" y="89" on="0"/>
        <pt x="627" y="25" on="0"/>
        <pt x="555" y="-14" on="0"/>
        <pt x="481" y="-30" on="0"/>
        <pt x="436" y="-30" on="1"/>
        <pt x="365" y="-30" on="0"/>
        <pt x="230" y="35" on="0"/>
        <pt x="125" y="157" on="0"/>
        <pt x="60" y="333" on="0"/>
        <pt x="60" y="444" on="1"/>
        <pt x="60" y="549" on="0"/>
        <pt x="132" y="736" on="0"/>
        <pt x="262" y="877" on="0"/>
        <pt x="443" y="960" on="0"/>
        <pt x="551" y="960" on="1"/>
        <pt x="598" y="960" on="0"/>
        <pt x="691" y="938" on="0"/>
        <pt x="745" y="902" on="1"/>
        <pt x="745" y="1105" on="1"/>
        <pt x="453" y="1105" on="1"/>
        <pt x="430" y="1127" on="1"/>
        <pt x="432" y="1135" on="0"/>
        <pt x="442" y="1165" on="0"/>
        <pt x="454" y="1197" on="0"/>
        <pt x="466" y="1227" on="0"/>
        <pt x="470" y="1235" on="1"/>
        <pt x="745" y="1235" on="1"/>
        <pt x="745" y="1254" on="1"/>
        <pt x="745" y="1302" on="0"/>
        <pt x="740" y="1358" on="0"/>
        <pt x="714" y="1390" on="0"/>
        <pt x="659" y="1402" on="0"/>
        <pt x="610" y="1406" on="1"/>
        <pt x="610" y="1485" on="1"/>
        <pt x="670" y="1490" on="0"/>
        <pt x="779" y="1506" on="0"/>
        <pt x="873" y="1523" on="0"/>
        <pt x="948" y="1542" on="0"/>
        <pt x="974" y="1550" on="1"/>
        <pt x="1015" y="1510" on="1"/>
        <pt x="1015" y="1235" on="1"/>
        <pt x="1158" y="1235" on="1"/>
        <pt x="1180" y="1210" on="1"/>
        <pt x="1141" y="1105" on="1"/>
        <pt x="1015" y="1105" on="1"/>
        <pt x="1015" y="314" on="1"/>
        <pt x="1015" y="279" on="0"/>
        <pt x="1018" y="232" on="0"/>
        <pt x="1023" y="203" on="0"/>
        <pt x="1032" y="189" on="0"/>
        <pt x="1038" y="186" on="1"/>
        <pt x="1044" y="183" on="0"/>
        <pt x="1057" y="180" on="0"/>
        <pt x="1078" y="184" on="0"/>
        <pt x="1112" y="195" on="0"/>
        <pt x="1138" y="207" on="1"/>
      </contour>
      <contour>
        <pt x="745" y="272" on="1"/>
        <pt x="745" y="698" on="1"/>
        <pt x="707" y="756" on="0"/>
        <pt x="606" y="820" on="0"/>
        <pt x="540" y="820" on="1"/>
        <pt x="495" y="820" on="0"/>
        <pt x="418" y="785" on="0"/>
        <pt x="362" y="709" on="0"/>
        <pt x="330" y="589" on="0"/>
        <pt x="330" y="505" on="1"/>
        <pt x="330" y="428" on="0"/>
        <pt x="367" y="307" on="0"/>
        <pt x="428" y="224" on="0"/>
        <pt x="506" y="180" on="0"/>
        <pt x="547" y="180" on="1"/>
        <pt x="572" y="180" on="0"/>
        <pt x="618" y="189" on="0"/>
        <pt x="665" y="210" on="0"/>
        <pt x="716" y="246" on="0"/>
      </contour>
    </TTGlyph>
    <TTGlyph name="degree" xMin="106" yMin="723" xMax="627" yMax="1271">
      <contour>
        <pt x="461" y="995" on="1"/>
        <pt x="461" y="1019" on="0"/>
        <pt x="449" y="1061" on="0"/>
        <pt x="427" y="1094" on="0"/>
        <pt x="395" y="1113" on="0"/>
        <pt x="376" y="1113" on="1"/>
        <pt x="356" y="1113" on="0"/>
        <pt x="319" y="1097" on="0"/>
        <pt x="290" y="1067" on="0"/>
        <pt x="273" y="1024" on="0"/>
        <pt x="273" y="998" on="1"/>
        <pt x="273" y="975" on="0"/>
        <pt x="285" y="933" on="0"/>
        <pt x="306" y="900" on="0"/>
        <pt x="337" y="880" on="0"/>
        <pt x="357" y="880" on="1"/>
        <pt x="376" y="880" on="0"/>
        <pt x="414" y="895" on="0"/>
        <pt x="443" y="925" on="0"/>
        <pt x="461" y="968" on="0"/>
      </contour>
      <contour>
        <pt x="627" y="1052" on="1"/>
        <pt x="627" y="981" on="0"/>
        <pt x="572" y="861" on="0"/>
        <pt x="485" y="773" on="0"/>
        <pt x="376" y="723" on="0"/>
        <pt x="323" y="723" on="1"/>
        <pt x="276" y="723" on="0"/>
        <pt x="196" y="758" on="0"/>
        <pt x="138" y="817" on="0"/>
        <pt x="106" y="896" on="0"/>
        <pt x="106" y="941" on="1"/>
        <pt x="106" y="1013" on="0"/>
        <pt x="160" y="1134" on="0"/>
        <pt x="247" y="1222" on="0"/>
        <pt x="356" y="1271" on="0"/>
        <pt x="410" y="1271" on="1"/>
        <pt x="455" y="1271" on="0"/>
        <pt x="534" y="1235" on="0"/>
        <pt x="593" y="1175" on="0"/>
        <pt x="627" y="1096" on="0"/>
      </contour>
    </TTGlyph>
    <TTGlyph name="dieresis" xMin="35" yMin="1080" xMax="765" yMax="1400">
      <contour>
        <pt x="765" y="1270" on="1"/>
        <pt x="765" y="1231" on="0"/>
        <pt x="738" y="1161" on="0"/>
        <pt x="691" y="1110" on="0"/>
        <pt x="629" y="1080" on="0"/>
        <pt x="595" y="1080" on="1"/>
        <pt x="532" y="1080" on="0"/>
        <pt x="465" y="1146" on="0"/>
        <pt x="465" y="1210" on="1"/>
        <pt x="465" y="1250" on="0"/>
        <pt x="493" y="1319" on="0"/>
        <pt x="541" y="1370" on="0"/>
        <pt x="602" y="1400" on="0"/>
        <pt x="635" y="1400" on="1"/>
        <pt x="695" y="1400" on="0"/>
        <pt x="765" y="1336" on="0"/>
      </contour>
      <contour>
        <pt x="335" y="1270" on="1"/>
        <pt x="335" y="1231" on="0"/>
        <pt x="308" y="1161" on="0"/>
        <pt x="261" y="1110" on="0"/>
        <pt x="199" y="1080" on="0"/>
        <pt x="165" y="1080" on="1"/>
        <pt x="102" y="1080" on="0"/>
        <pt x="35" y="1146" on="0"/>
        <pt x="35" y="1210" on="1"/>
        <pt x="35" y="1250" on="0"/>
        <pt x="63" y="1319" on="0"/>
        <pt x="111" y="1370" on="0"/>
        <pt x="172" y="1400" on="0"/>
        <pt x="205" y="1400" on="1"/>
        <pt x="265" y="1400" on="0"/>
        <pt x="335" y="1336" on="0"/>
      </contour>
    </TTGlyph>
    <TTGlyph name="divide" xMin="50" yMin="166" xMax="820" yMax="959">
      <contour>
        <pt x="551" y="319" on="1"/>
        <pt x="551" y="288" on="0"/>
        <pt x="531" y="232" on="0"/>
        <pt x="497" y="190" on="0"/>
        <pt x="449" y="166" on="0"/>
        <pt x="422" y="166" on="1"/>
        <pt x="372" y="166" on="0"/>
        <pt x="328" y="222" on="0"/>
        <pt x="328" y="274" on="1"/>
        <pt x="328" y="305" on="0"/>
        <pt x="348" y="361" on="0"/>
        <pt x="383" y="401" on="0"/>
        <pt x="430" y="425" on="0"/>
        <pt x="457" y="425" on="1"/>
        <pt x="551" y="425" on="0"/>
      </contour>
      <contour>
        <pt x="551" y="853" on="1"/>
        <pt x="551" y="822" on="0"/>
        <pt x="531" y="766" on="0"/>
        <pt x="497" y="724" on="0"/>
        <pt x="449" y="700" on="0"/>
        <pt x="422" y="700" on="1"/>
        <pt x="372" y="700" on="0"/>
        <pt x="328" y="756" on="0"/>
        <pt x="328" y="808" on="1"/>
        <pt x="328" y="839" on="0"/>
        <pt x="348" y="895" on="0"/>
        <pt x="383" y="935" on="0"/>
        <pt x="430" y="959" on="0"/>
        <pt x="457" y="959" on="1"/>
        <pt x="551" y="959" on="0"/>
      </contour>
      <contour>
        <pt x="820" y="606" on="1"/>
        <pt x="817" y="595" on="0"/>
        <pt x="803" y="561" on="0"/>
        <pt x="787" y="525" on="0"/>
        <pt x="773" y="493" on="0"/>
        <pt x="769" y="485" on="1"/>
        <pt x="85" y="485" on="1"/>
        <pt x="50" y="519" on="1"/>
        <pt x="53" y="530" on="0"/>
        <pt x="66" y="563" on="0"/>
        <pt x="81" y="598" on="0"/>
        <pt x="96" y="630" on="0"/>
        <pt x="101" y="640" on="1"/>
        <pt x="785" y="640" on="1"/>
      </contour>
    </TTGlyph>
    <TTGlyph name="dollar" xMin="72" yMin="-174" xMax="982" yMax="1384">
      <contour>
        <pt x="305" y="948" on="1"/>
        <pt x="305" y="919" on="0"/>
        <pt x="328" y="872" on="0"/>
        <pt x="370" y="833" on="0"/>
        <pt x="428" y="801" on="0"/>
        <pt x="462" y="787" on="1"/>
        <pt x="462" y="1083" on="1"/>
        <pt x="391" y="1074" on="0"/>
        <pt x="305" y="999" on="0"/>
      </contour>
      <contour>
        <pt x="747" y="314" on="1"/>
        <pt x="747" y="351" on="0"/>
        <pt x="724" y="409" on="0"/>
        <pt x="682" y="457" on="0"/>
        <pt x="625" y="494" on="0"/>
        <pt x="592" y="510" on="1"/>
        <pt x="592" y="145" on="1"/>
        <pt x="623" y="150" on="0"/>
        <pt x="679" y="175" on="0"/>
        <pt x="722" y="216" on="0"/>
        <pt x="747" y="275" on="0"/>
      </contour>
      <contour>
        <pt x="592" y="-123" on="1"/>
        <pt x="574" y="-139" on="0"/>
        <pt x="524" y="-168" on="0"/>
        <pt x="499" y="-174" on="1"/>
        <pt x="462" y="-142" on="1"/>
        <pt x="462" y="-9" on="1"/>
        <pt x="421" y="-7" on="0"/>
        <pt x="324" y="12" on="0"/>
        <pt x="224" y="45" on="0"/>
        <pt x="125" y="89" on="0"/>
        <pt x="82" y="116" on="1"/>
        <pt x="77" y="119" on="0"/>
        <pt x="73" y="158" on="0"/>
        <pt x="72" y="215" on="0"/>
        <pt x="74" y="285" on="0"/>
        <pt x="79" y="352" on="0"/>
        <pt x="87" y="412" on="0"/>
        <pt x="92" y="430" on="1"/>
        <pt x="175" y="426" on="1"/>
        <pt x="199" y="375" on="0"/>
        <pt x="255" y="284" on="0"/>
        <pt x="325" y="211" on="0"/>
        <pt x="410" y="159" on="0"/>
        <pt x="462" y="148" on="1"/>
        <pt x="462" y="561" on="1"/>
        <pt x="394" y="585" on="0"/>
        <pt x="257" y="637" on="0"/>
        <pt x="147" y="712" on="0"/>
        <pt x="78" y="820" on="0"/>
        <pt x="78" y="901" on="1"/>
        <pt x="78" y="944" on="0"/>
        <pt x="115" y="1044" on="0"/>
        <pt x="204" y="1134" on="0"/>
        <pt x="352" y="1200" on="0"/>
        <pt x="462" y="1210" on="1"/>
        <pt x="462" y="1336" on="1"/>
        <pt x="476" y="1344" on="0"/>
        <pt x="498" y="1358" on="0"/>
        <pt x="519" y="1370" on="0"/>
        <pt x="541" y="1380" on="0"/>
        <pt x="556" y="1384" on="1"/>
        <pt x="592" y="1352" on="1"/>
        <pt x="592" y="1212" on="1"/>
        <pt x="647" y="1208" on="0"/>
        <pt x="756" y="1187" on="0"/>
        <pt x="850" y="1157" on="0"/>
        <pt x="923" y="1122" on="0"/>
        <pt x="941" y="1104" on="1"/>
        <pt x="945" y="1099" on="0"/>
        <pt x="941" y="1065" on="0"/>
        <pt x="928" y="1016" on="0"/>
        <pt x="909" y="961" on="0"/>
        <pt x="887" y="910" on="0"/>
        <pt x="866" y="871" on="0"/>
        <pt x="857" y="863" on="1"/>
        <pt x="778" y="871" on="1"/>
        <pt x="747" y="949" on="0"/>
        <pt x="658" y="1052" on="0"/>
        <pt x="592" y="1073" on="1"/>
        <pt x="592" y="739" on="1"/>
        <pt x="661" y="715" on="0"/>
        <pt x="800" y="658" on="0"/>
        <pt x="912" y="574" on="0"/>
        <pt x="982" y="454" on="0"/>
        <pt x="982" y="367" on="1"/>
        <pt x="982" y="307" on="0"/>
        <pt x="940" y="187" on="0"/>
        <pt x="847" y="85" on="0"/>
        <pt x="698" y="10" on="0"/>
        <pt x="592" y="-3" on="1"/>
      </contour>
    </TTGlyph>
    <TTGlyph name="dotaccent" xMin="50" yMin="1080" xMax="350" yMax="1400">
      <contour>
        <pt x="350" y="1270" on="1"/>
        <pt x="350" y="1231" on="0"/>
        <pt x="323" y="1161" on="0"/>
        <pt x="276" y="1110" on="0"/>
        <pt x="214" y="1080" on="0"/>
        <pt x="180" y="1080" on="1"/>
        <pt x="117" y="1080" on="0"/>
        <pt x="50" y="1146" on="0"/>
        <pt x="50" y="1210" on="1"/>
        <pt x="50" y="1250" on="0"/>
        <pt x="78" y="1319" on="0"/>
        <pt x="126" y="1370" on="0"/>
        <pt x="187" y="1400" on="0"/>
        <pt x="220" y="1400" on="1"/>
        <pt x="280" y="1400" on="0"/>
        <pt x="350" y="1336" on="0"/>
      </contour>
    </TTGlyph>
    <TTGlyph name="dotbelowcomb" xMin="-665" yMin="-460" xMax="-365" yMax="-140">
      <contour>
        <pt x="-365" y="-270" on="1"/>
        <pt x="-365" y="-309" on="0"/>
        <pt x="-392" y="-379" on="0"/>
        <pt x="-439" y="-430" on="0"/>
        <pt x="-501" y="-460" on="0"/>
        <pt x="-535" y="-460" on="1"/>
        <pt x="-598" y="-460" on="0"/>
        <pt x="-665" y="-394" on="0"/>
        <pt x="-665" y="-330" on="1"/>
        <pt x="-665" y="-290" on="0"/>
        <pt x="-637" y="-221" on="0"/>
        <pt x="-589" y="-170" on="0"/>
        <pt x="-528" y="-140" on="0"/>
        <pt x="-495" y="-140" on="1"/>
        <pt x="-435" y="-140" on="0"/>
        <pt x="-365" y="-204" on="0"/>
      </contour>
    </TTGlyph>
    <TTGlyph name="dotlessi" xMin="60" yMin="0" xMax="590" yMax="960">
      <component glyphName="i.Dotless" x="0" y="0" flags="0x0"/>
    </TTGlyph>
    <TTGlyph name="e" xMin="60" yMin="-30" xMax="946" yMax="960">
      <contour>
        <pt x="516" y="835" on="1"/>
        <pt x="471" y="835" on="0"/>
        <pt x="409" y="800" on="0"/>
        <pt x="368" y="734" on="0"/>
        <pt x="346" y="640" on="0"/>
        <pt x="342" y="580" on="1"/>
        <pt x="644" y="580" on="1"/>
        <pt x="667" y="580" on="0"/>
        <pt x="682" y="595" on="0"/>
        <pt x="682" y="616" on="1"/>
        <pt x="682" y="647" on="0"/>
        <pt x="665" y="723" on="0"/>
        <pt x="626" y="790" on="0"/>
        <pt x="562" y="835" on="0"/>
      </contour>
      <contour>
        <pt x="946" y="547" on="1"/>
        <pt x="937" y="537" on="0"/>
        <pt x="900" y="512" on="0"/>
        <pt x="856" y="488" on="0"/>
        <pt x="812" y="466" on="0"/>
        <pt x="796" y="460" on="1"/>
        <pt x="340" y="460" on="1"/>
        <pt x="343" y="391" on="0"/>
        <pt x="376" y="276" on="0"/>
        <pt x="435" y="195" on="0"/>
        <pt x="521" y="150" on="0"/>
        <pt x="576" y="150" on="1"/>
        <pt x="607" y="150" on="0"/>
        <pt x="667" y="157" on="0"/>
        <pt x="736" y="181" on="0"/>
        <pt x="823" y="227" on="0"/>
        <pt x="883" y="266" on="1"/>
        <pt x="889" y="263" on="0"/>
        <pt x="907" y="242" on="0"/>
        <pt x="924" y="219" on="0"/>
        <pt x="938" y="199" on="0"/>
        <pt x="940" y="195" on="1"/>
        <pt x="869" y="126" on="0"/>
        <pt x="757" y="38" on="0"/>
        <pt x="653" y="-12" on="0"/>
        <pt x="548" y="-30" on="0"/>
        <pt x="485" y="-30" on="1"/>
        <pt x="397" y="-30" on="0"/>
        <pt x="242" y="39" on="0"/>
        <pt x="127" y="164" on="0"/>
        <pt x="60" y="338" on="0"/>
        <pt x="60" y="444" on="1"/>
        <pt x="60" y="580" on="0"/>
        <pt x="159" y="785" on="0"/>
        <pt x="261" y="861" on="1"/>
        <pt x="317" y="903" on="0"/>
        <pt x="470" y="960" on="0"/>
        <pt x="554" y="960" on="1"/>
        <pt x="652" y="960" on="0"/>
        <pt x="799" y="896" on="0"/>
        <pt x="897" y="784" on="0"/>
        <pt x="946" y="633" on="0"/>
      </contour>
    </TTGlyph>
    <TTGlyph name="eacute" xMin="60" yMin="-30" xMax="946" yMax="1519">
      <component glyphName="e" x="0" y="0" flags="0x0"/>
      <component glyphName="acutecomb" x="1084" y="0" flags="0x0"/>
    </TTGlyph>
    <TTGlyph name="ebreve" xMin="60" yMin="-30" xMax="946" yMax="1445">
      <component glyphName="e" x="0" y="0" flags="0x0"/>
      <component glyphName="uni0306" x="1059" y="0" flags="0x0"/>
    </TTGlyph>
    <TTGlyph name="ecaron" xMin="60" yMin="-30" xMax="946" yMax="1526">
      <component glyphName="e" x="0" y="0" flags="0x0"/>
      <component glyphName="uni030C" x="1050" y="0" flags="0x0"/>
    </TTGlyph>
    <TTGlyph name="ecircumflex" xMin="60" yMin="-30" xMax="946" yMax="1501">
      <component glyphName="e" x="0" y="0" flags="0x0"/>
      <component glyphName="uni0302" x="1059" y="0" flags="0x0"/>
    </TTGlyph>
</ttFont>
